<mxfile host="app.diagrams.net" modified="2024-02-05T13:09:29.250Z" agent="Mozilla/5.0 (Windows NT 10.0; Win64; x64) AppleWebKit/537.36 (KHTML, like Gecko) Chrome/121.0.0.0 Safari/537.36" etag="FVAaZscmaZoZP-Awn4iB" version="23.1.1" type="device">
  <diagram name="Page-1" id="5348f1db-0dfa-24cf-5d06-2057accb5106">
    <mxGraphModel dx="4593.5" dy="5417" grid="1" gridSize="10" guides="1" tooltips="1" connect="1" arrows="1" fold="1" page="1" pageScale="1.5" pageWidth="827" pageHeight="1169" background="none" math="0" shadow="0">
      <root>
        <mxCell id="0" style=";html=1;" />
        <mxCell id="1" style=";html=1;" parent="0" />
        <mxCell id="oO1IpqutuhY_mgt90Hi0-393" value="" style="strokeWidth=1;shadow=0;dashed=0;align=center;html=1;shape=mxgraph.mockup.containers.browserWindow;rSize=0;strokeColor=#666666;strokeColor2=#008cff;strokeColor3=#c4c4c4;mainText=,;recursiveResize=0;fontSize=30;" parent="1" vertex="1">
          <mxGeometry x="410" y="-2220" width="1310" height="1930" as="geometry" />
        </mxCell>
        <mxCell id="oO1IpqutuhY_mgt90Hi0-394" value="News Daily" style="strokeWidth=1;shadow=0;dashed=0;align=center;html=1;shape=mxgraph.mockup.containers.anchor;fontSize=17;fontColor=#666666;align=left;whiteSpace=wrap;" parent="oO1IpqutuhY_mgt90Hi0-393" vertex="1">
          <mxGeometry x="60" y="12" width="110" height="26" as="geometry" />
        </mxCell>
        <mxCell id="oO1IpqutuhY_mgt90Hi0-395" value="127.0.0.1:5173/articles/:id?page=1" style="strokeWidth=1;shadow=0;dashed=0;align=center;html=1;shape=mxgraph.mockup.containers.anchor;rSize=0;fontSize=17;fontColor=#666666;align=left;" parent="oO1IpqutuhY_mgt90Hi0-393" vertex="1">
          <mxGeometry x="130" y="60" width="250" height="26" as="geometry" />
        </mxCell>
        <mxCell id="oO1IpqutuhY_mgt90Hi0-425" value="" style="shape=mxgraph.mockup.containers.marginRect;rectMarginTop=10;strokeColor=#666666;strokeWidth=1;dashed=0;rounded=1;arcSize=5;recursiveResize=0;html=1;whiteSpace=wrap;" parent="oO1IpqutuhY_mgt90Hi0-393" vertex="1">
          <mxGeometry x="20" y="120" width="1240" height="200" as="geometry" />
        </mxCell>
        <mxCell id="oO1IpqutuhY_mgt90Hi0-426" value="NavBar" style="shape=rect;strokeColor=none;fillColor=#008cff;strokeWidth=1;dashed=0;rounded=1;arcSize=20;fontColor=#ffffff;fontSize=17;spacing=2;spacingTop=-2;align=left;autosize=1;spacingLeft=4;resizeWidth=0;resizeHeight=0;perimeter=none;html=1;whiteSpace=wrap;" parent="oO1IpqutuhY_mgt90Hi0-425" vertex="1">
          <mxGeometry x="5" width="80" height="30" as="geometry" />
        </mxCell>
        <mxCell id="oO1IpqutuhY_mgt90Hi0-427" value="" style="shape=mxgraph.mockup.containers.marginRect;rectMarginTop=10;strokeColor=#666666;strokeWidth=1;dashed=0;rounded=1;arcSize=5;recursiveResize=0;html=1;whiteSpace=wrap;" parent="oO1IpqutuhY_mgt90Hi0-425" vertex="1">
          <mxGeometry x="30" y="35" width="132.86" height="135" as="geometry" />
        </mxCell>
        <mxCell id="oO1IpqutuhY_mgt90Hi0-428" value="CategoriesPane" style="shape=rect;strokeColor=none;fillColor=#008cff;strokeWidth=1;dashed=0;rounded=1;arcSize=20;fontColor=#ffffff;fontSize=17;spacing=2;spacingTop=-2;align=left;autosize=1;spacingLeft=4;resizeWidth=0;resizeHeight=0;perimeter=none;html=1;whiteSpace=wrap;" parent="oO1IpqutuhY_mgt90Hi0-427" vertex="1">
          <mxGeometry x="5" width="150" height="30" as="geometry" />
        </mxCell>
        <mxCell id="oO1IpqutuhY_mgt90Hi0-429" value="" style="shape=image;html=1;verticalAlign=top;verticalLabelPosition=bottom;labelBackgroundColor=#ffffff;imageAspect=0;aspect=fixed;image=https://cdn4.iconfinder.com/data/icons/flat-black/128/menu.png" parent="oO1IpqutuhY_mgt90Hi0-427" vertex="1">
          <mxGeometry x="11.43" y="20" width="110" height="110" as="geometry" />
        </mxCell>
        <mxCell id="oO1IpqutuhY_mgt90Hi0-430" value="" style="shape=mxgraph.mockup.containers.marginRect;rectMarginTop=10;strokeColor=#666666;strokeWidth=1;dashed=0;rounded=1;arcSize=5;recursiveResize=0;html=1;whiteSpace=wrap;" parent="oO1IpqutuhY_mgt90Hi0-425" vertex="1">
          <mxGeometry x="200" y="35" width="860" height="140" as="geometry" />
        </mxCell>
        <mxCell id="oO1IpqutuhY_mgt90Hi0-431" value="TitleBar" style="shape=rect;strokeColor=none;fillColor=#008cff;strokeWidth=1;dashed=0;rounded=1;arcSize=20;fontColor=#ffffff;fontSize=17;spacing=2;spacingTop=-2;align=left;autosize=1;spacingLeft=4;resizeWidth=0;resizeHeight=0;perimeter=none;html=1;whiteSpace=wrap;" parent="oO1IpqutuhY_mgt90Hi0-430" vertex="1">
          <mxGeometry x="5" width="80" height="30" as="geometry" />
        </mxCell>
        <mxCell id="oO1IpqutuhY_mgt90Hi0-432" value="WebsiteTitle" style="text;strokeColor=none;fillColor=none;html=1;fontSize=40;fontStyle=5;verticalAlign=middle;align=center;" parent="oO1IpqutuhY_mgt90Hi0-430" vertex="1">
          <mxGeometry x="380" y="45" width="160" height="50" as="geometry" />
        </mxCell>
        <mxCell id="oO1IpqutuhY_mgt90Hi0-433" value="" style="shape=mxgraph.mockup.containers.marginRect;rectMarginTop=10;strokeColor=#666666;strokeWidth=1;dashed=0;rounded=1;arcSize=5;recursiveResize=0;html=1;whiteSpace=wrap;" parent="oO1IpqutuhY_mgt90Hi0-425" vertex="1">
          <mxGeometry x="1080" y="30" width="130" height="140" as="geometry" />
        </mxCell>
        <mxCell id="oO1IpqutuhY_mgt90Hi0-434" value="Avatar" style="shape=rect;strokeColor=none;fillColor=#008cff;strokeWidth=1;dashed=0;rounded=1;arcSize=20;fontColor=#ffffff;fontSize=17;spacing=2;spacingTop=-2;align=left;autosize=1;spacingLeft=4;resizeWidth=0;resizeHeight=0;perimeter=none;html=1;whiteSpace=wrap;" parent="oO1IpqutuhY_mgt90Hi0-433" vertex="1">
          <mxGeometry x="5" width="70" height="30" as="geometry" />
        </mxCell>
        <mxCell id="oO1IpqutuhY_mgt90Hi0-435" value="" style="verticalLabelPosition=bottom;shadow=0;dashed=0;align=center;html=1;verticalAlign=top;strokeWidth=1;shape=mxgraph.mockup.containers.userFemale;strokeColor=#666666;strokeColor2=#008cff;" parent="oO1IpqutuhY_mgt90Hi0-433" vertex="1">
          <mxGeometry x="32.5" y="37.5" width="65" height="65" as="geometry" />
        </mxCell>
        <mxCell id="oO1IpqutuhY_mgt90Hi0-436" value="Log Out" style="text;strokeColor=none;fillColor=none;html=1;fontSize=20;fontStyle=0;verticalAlign=middle;align=center;" parent="oO1IpqutuhY_mgt90Hi0-433" vertex="1">
          <mxGeometry x="10" y="110" width="110" height="30" as="geometry" />
        </mxCell>
        <mxCell id="oO1IpqutuhY_mgt90Hi0-441" value="" style="shape=mxgraph.mockup.containers.marginRect;rectMarginTop=10;strokeColor=#666666;strokeWidth=1;dashed=0;rounded=1;arcSize=5;recursiveResize=0;html=1;whiteSpace=wrap;" parent="oO1IpqutuhY_mgt90Hi0-393" vertex="1">
          <mxGeometry x="50" y="840" width="1180" height="220" as="geometry" />
        </mxCell>
        <mxCell id="oO1IpqutuhY_mgt90Hi0-442" value="CommentForm" style="shape=rect;strokeColor=none;fillColor=#008cff;strokeWidth=1;dashed=0;rounded=1;arcSize=20;fontColor=#ffffff;fontSize=17;spacing=2;spacingTop=-2;align=left;autosize=1;spacingLeft=4;resizeWidth=0;resizeHeight=0;perimeter=none;html=1;whiteSpace=wrap;" parent="oO1IpqutuhY_mgt90Hi0-441" vertex="1">
          <mxGeometry x="5" width="140" height="30" as="geometry" />
        </mxCell>
        <mxCell id="oO1IpqutuhY_mgt90Hi0-449" value="Comment...." style="strokeWidth=1;shadow=0;dashed=0;align=center;html=1;shape=mxgraph.mockup.text.textBox;fontColor=#666666;align=left;fontSize=30;spacingLeft=4;spacingTop=-3;whiteSpace=wrap;strokeColor=#666666;mainText=" parent="oO1IpqutuhY_mgt90Hi0-441" vertex="1">
          <mxGeometry x="20" y="50" width="1120" height="60" as="geometry" />
        </mxCell>
        <mxCell id="oO1IpqutuhY_mgt90Hi0-450" value="Submit Comment" style="strokeWidth=1;shadow=0;dashed=0;align=center;html=1;shape=mxgraph.mockup.buttons.button;strokeColor=#666666;fontColor=#ffffff;mainText=;buttonStyle=round;fontSize=17;fontStyle=1;fillColor=#008cff;whiteSpace=wrap;" parent="oO1IpqutuhY_mgt90Hi0-441" vertex="1">
          <mxGeometry x="990" y="140" width="150" height="50" as="geometry" />
        </mxCell>
        <mxCell id="oO1IpqutuhY_mgt90Hi0-455" value="" style="shape=mxgraph.mockup.containers.marginRect;rectMarginTop=10;strokeColor=#666666;strokeWidth=1;dashed=0;rounded=1;arcSize=5;recursiveResize=0;html=1;whiteSpace=wrap;" parent="oO1IpqutuhY_mgt90Hi0-393" vertex="1">
          <mxGeometry x="50" y="1090" width="1180" height="780" as="geometry" />
        </mxCell>
        <mxCell id="oO1IpqutuhY_mgt90Hi0-456" value="Paginator" style="shape=rect;strokeColor=none;fillColor=#008cff;strokeWidth=1;dashed=0;rounded=1;arcSize=20;fontColor=#ffffff;fontSize=17;spacing=2;spacingTop=-2;align=left;autosize=1;spacingLeft=4;resizeWidth=0;resizeHeight=0;perimeter=none;html=1;whiteSpace=wrap;" parent="oO1IpqutuhY_mgt90Hi0-455" vertex="1">
          <mxGeometry x="5" width="100" height="30" as="geometry" />
        </mxCell>
        <mxCell id="oO1IpqutuhY_mgt90Hi0-459" value="" style="shape=mxgraph.mockup.containers.marginRect;rectMarginTop=10;strokeColor=#666666;strokeWidth=1;dashed=0;rounded=1;arcSize=5;recursiveResize=0;html=1;whiteSpace=wrap;" parent="oO1IpqutuhY_mgt90Hi0-455" vertex="1">
          <mxGeometry x="20" y="50" width="1150" height="280" as="geometry" />
        </mxCell>
        <mxCell id="oO1IpqutuhY_mgt90Hi0-460" value="Post" style="shape=rect;strokeColor=none;fillColor=#008cff;strokeWidth=1;dashed=0;rounded=1;arcSize=20;fontColor=#ffffff;fontSize=17;spacing=2;spacingTop=-2;align=left;autosize=1;spacingLeft=4;resizeWidth=0;resizeHeight=0;perimeter=none;html=1;whiteSpace=wrap;" parent="oO1IpqutuhY_mgt90Hi0-459" vertex="1">
          <mxGeometry x="5" width="60" height="30" as="geometry" />
        </mxCell>
        <mxCell id="oO1IpqutuhY_mgt90Hi0-465" value="by Author" style="text;strokeColor=none;fillColor=none;html=1;fontSize=30;fontStyle=2;verticalAlign=middle;align=center;" parent="oO1IpqutuhY_mgt90Hi0-459" vertex="1">
          <mxGeometry x="20" y="45" width="160" height="50" as="geometry" />
        </mxCell>
        <mxCell id="oO1IpqutuhY_mgt90Hi0-469" value="Lorem ipsum dolor sit amet, consectetur adipisicing elit, sed do eiusmod tempor incididunt ut labore et dolore magna aliqua. Ut enim ad minim veniam, quis nostrud exercitation ullamco laboris nisi ut aliquip ex ea commodo consequat. Duis aute irure dolor in reprehenderit in voluptate velit esse cillum dolore eu fugiat nulla pariatur. Excepteur sint occaecat cupidatat non proident, sunt in culpa qui officia deserunt mollit anim id est laborum." style="text;spacingTop=-5;whiteSpace=wrap;html=1;align=left;fontSize=20;fontFamily=Helvetica;fillColor=none;strokeColor=none;" parent="oO1IpqutuhY_mgt90Hi0-459" vertex="1">
          <mxGeometry x="40" y="110" width="1050" height="140" as="geometry" />
        </mxCell>
        <mxCell id="oO1IpqutuhY_mgt90Hi0-468" value="YYYY-MM-DD" style="text;strokeColor=none;fillColor=none;html=1;fontSize=25;fontStyle=0;verticalAlign=middle;align=center;" parent="oO1IpqutuhY_mgt90Hi0-459" vertex="1">
          <mxGeometry x="950" y="210" width="160" height="50" as="geometry" />
        </mxCell>
        <mxCell id="HvcPI_E8XcnlEceZRkLn-39" value="" style="shape=mxgraph.mockup.containers.marginRect;rectMarginTop=10;strokeColor=#666666;strokeWidth=1;dashed=0;rounded=1;arcSize=5;recursiveResize=0;html=1;whiteSpace=wrap;" parent="oO1IpqutuhY_mgt90Hi0-459" vertex="1">
          <mxGeometry x="990" y="20" width="135" height="90" as="geometry" />
        </mxCell>
        <mxCell id="HvcPI_E8XcnlEceZRkLn-40" value="IconAndCount" style="shape=rect;strokeColor=none;fillColor=#008cff;strokeWidth=1;dashed=0;rounded=1;arcSize=20;fontColor=#ffffff;fontSize=17;spacing=2;spacingTop=-2;align=left;autosize=1;spacingLeft=4;resizeWidth=0;resizeHeight=0;perimeter=none;html=1;whiteSpace=wrap;" parent="HvcPI_E8XcnlEceZRkLn-39" vertex="1">
          <mxGeometry x="5" width="130" height="30" as="geometry" />
        </mxCell>
        <mxCell id="HvcPI_E8XcnlEceZRkLn-41" value="" style="shape=mxgraph.signs.healthcare.heart_2;html=1;pointerEvents=1;fillColor=#FF0080;strokeColor=none;verticalLabelPosition=bottom;verticalAlign=top;align=center;sketch=0;fontColor=#ff0000;" parent="HvcPI_E8XcnlEceZRkLn-39" vertex="1">
          <mxGeometry x="20" y="33" width="40" height="40" as="geometry" />
        </mxCell>
        <mxCell id="HvcPI_E8XcnlEceZRkLn-42" value="15" style="text;strokeColor=none;fillColor=none;html=1;fontSize=25;fontStyle=0;verticalAlign=middle;align=center;" parent="HvcPI_E8XcnlEceZRkLn-39" vertex="1">
          <mxGeometry x="50" y="28" width="70" height="50" as="geometry" />
        </mxCell>
        <mxCell id="oO1IpqutuhY_mgt90Hi0-470" value="" style="shape=mxgraph.mockup.containers.marginRect;rectMarginTop=10;strokeColor=#666666;strokeWidth=1;dashed=0;rounded=1;arcSize=5;recursiveResize=0;html=1;whiteSpace=wrap;" parent="oO1IpqutuhY_mgt90Hi0-455" vertex="1">
          <mxGeometry x="20" y="350" width="1150" height="330" as="geometry" />
        </mxCell>
        <mxCell id="oO1IpqutuhY_mgt90Hi0-471" value="Post" style="shape=rect;strokeColor=none;fillColor=#008cff;strokeWidth=1;dashed=0;rounded=1;arcSize=20;fontColor=#ffffff;fontSize=17;spacing=2;spacingTop=-2;align=left;autosize=1;spacingLeft=4;resizeWidth=0;resizeHeight=0;perimeter=none;html=1;whiteSpace=wrap;" parent="oO1IpqutuhY_mgt90Hi0-470" vertex="1">
          <mxGeometry x="5" width="60" height="30" as="geometry" />
        </mxCell>
        <mxCell id="oO1IpqutuhY_mgt90Hi0-472" value="by Author" style="text;strokeColor=none;fillColor=none;html=1;fontSize=30;fontStyle=2;verticalAlign=middle;align=center;" parent="oO1IpqutuhY_mgt90Hi0-470" vertex="1">
          <mxGeometry x="20" y="45" width="160" height="50" as="geometry" />
        </mxCell>
        <mxCell id="oO1IpqutuhY_mgt90Hi0-475" value="Lorem ipsum dolor sit amet, consectetur adipisicing elit, sed do eiusmod tempor incididunt ut labore et dolore magna aliqua. Ut enim ad minim veniam, quis nostrud exercitation ullamco laboris nisi ut aliquip ex ea commodo consequat. Duis aute irure dolor in reprehenderit in voluptate velit esse cillum dolore eu fugiat nulla pariatur. Excepteur sint occaecat cupidatat non proident, sunt in culpa qui officia deserunt mollit anim id est laborum." style="text;spacingTop=-5;whiteSpace=wrap;html=1;align=left;fontSize=20;fontFamily=Helvetica;fillColor=none;strokeColor=none;" parent="oO1IpqutuhY_mgt90Hi0-470" vertex="1">
          <mxGeometry x="40" y="110" width="1040" height="140" as="geometry" />
        </mxCell>
        <mxCell id="oO1IpqutuhY_mgt90Hi0-476" value="YYYY-MM-DD" style="text;strokeColor=none;fillColor=none;html=1;fontSize=25;fontStyle=0;verticalAlign=middle;align=center;" parent="oO1IpqutuhY_mgt90Hi0-470" vertex="1">
          <mxGeometry x="940" y="210" width="160" height="50" as="geometry" />
        </mxCell>
        <mxCell id="oO1IpqutuhY_mgt90Hi0-490" value="DeleteComment" style="strokeWidth=1;shadow=0;dashed=0;align=center;html=1;shape=mxgraph.mockup.buttons.button;strokeColor=#666666;fontColor=#ffffff;mainText=;buttonStyle=round;fontSize=17;fontStyle=1;fillColor=#008cff;whiteSpace=wrap;" parent="oO1IpqutuhY_mgt90Hi0-470" vertex="1">
          <mxGeometry x="40" y="220" width="150" height="50" as="geometry" />
        </mxCell>
        <mxCell id="HvcPI_E8XcnlEceZRkLn-43" value="" style="shape=mxgraph.mockup.containers.marginRect;rectMarginTop=10;strokeColor=#666666;strokeWidth=1;dashed=0;rounded=1;arcSize=5;recursiveResize=0;html=1;whiteSpace=wrap;" parent="oO1IpqutuhY_mgt90Hi0-470" vertex="1">
          <mxGeometry x="990" y="20" width="135" height="90" as="geometry" />
        </mxCell>
        <mxCell id="HvcPI_E8XcnlEceZRkLn-44" value="IconAndCount" style="shape=rect;strokeColor=none;fillColor=#008cff;strokeWidth=1;dashed=0;rounded=1;arcSize=20;fontColor=#ffffff;fontSize=17;spacing=2;spacingTop=-2;align=left;autosize=1;spacingLeft=4;resizeWidth=0;resizeHeight=0;perimeter=none;html=1;whiteSpace=wrap;" parent="HvcPI_E8XcnlEceZRkLn-43" vertex="1">
          <mxGeometry x="5" width="130" height="30" as="geometry" />
        </mxCell>
        <mxCell id="HvcPI_E8XcnlEceZRkLn-45" value="" style="shape=mxgraph.signs.healthcare.heart_2;html=1;pointerEvents=1;fillColor=#FF0080;strokeColor=none;verticalLabelPosition=bottom;verticalAlign=top;align=center;sketch=0;fontColor=#ff0000;" parent="HvcPI_E8XcnlEceZRkLn-43" vertex="1">
          <mxGeometry x="20" y="33" width="40" height="40" as="geometry" />
        </mxCell>
        <mxCell id="HvcPI_E8XcnlEceZRkLn-46" value="15" style="text;strokeColor=none;fillColor=none;html=1;fontSize=25;fontStyle=0;verticalAlign=middle;align=center;" parent="HvcPI_E8XcnlEceZRkLn-43" vertex="1">
          <mxGeometry x="50" y="28" width="70" height="50" as="geometry" />
        </mxCell>
        <mxCell id="B4IMx2vGt0d6lZp3y3eG-9" value="&lt;font style=&quot;font-size: 30px;&quot;&gt;&amp;lt;&amp;lt; Prev 1 2 3 4 5 6 7 8 9 10 Next &amp;gt;&amp;gt;&lt;/font&gt;" style="strokeWidth=1;shadow=0;dashed=0;align=center;html=1;shape=mxgraph.mockup.navigation.pagination;linkText=;fontSize=17;fontColor=#0000ff;fontStyle=4;" parent="oO1IpqutuhY_mgt90Hi0-455" vertex="1">
          <mxGeometry x="320" y="710" width="540" height="30" as="geometry" />
        </mxCell>
        <mxCell id="oO1IpqutuhY_mgt90Hi0-416" value="" style="shape=mxgraph.mockup.containers.marginRect;rectMarginTop=10;strokeColor=#666666;strokeWidth=1;dashed=0;rounded=1;arcSize=5;recursiveResize=0;html=1;whiteSpace=wrap;" parent="oO1IpqutuhY_mgt90Hi0-393" vertex="1">
          <mxGeometry x="50" y="380" width="1180" height="440" as="geometry" />
        </mxCell>
        <mxCell id="oO1IpqutuhY_mgt90Hi0-417" value="Post" style="shape=rect;strokeColor=none;fillColor=#008cff;strokeWidth=1;dashed=0;rounded=1;arcSize=20;fontColor=#ffffff;fontSize=17;spacing=2;spacingTop=-2;align=left;autosize=1;spacingLeft=4;resizeWidth=0;resizeHeight=0;perimeter=none;html=1;whiteSpace=wrap;" parent="oO1IpqutuhY_mgt90Hi0-416" vertex="1">
          <mxGeometry x="5" width="60" height="30" as="geometry" />
        </mxCell>
        <mxCell id="oO1IpqutuhY_mgt90Hi0-418" value="YYYY-MM-DD" style="text;strokeColor=none;fillColor=none;html=1;fontSize=25;fontStyle=0;verticalAlign=middle;align=center;" parent="oO1IpqutuhY_mgt90Hi0-416" vertex="1">
          <mxGeometry x="1000" y="350" width="160" height="50" as="geometry" />
        </mxCell>
        <mxCell id="oO1IpqutuhY_mgt90Hi0-419" value="ArticleTitle" style="text;strokeColor=none;fillColor=none;html=1;fontSize=40;fontStyle=1;verticalAlign=middle;align=center;" parent="oO1IpqutuhY_mgt90Hi0-416" vertex="1">
          <mxGeometry x="490" y="80" width="160" height="50" as="geometry" />
        </mxCell>
        <mxCell id="oO1IpqutuhY_mgt90Hi0-420" value="by Author" style="text;strokeColor=none;fillColor=none;html=1;fontSize=30;fontStyle=2;verticalAlign=middle;align=center;" parent="oO1IpqutuhY_mgt90Hi0-416" vertex="1">
          <mxGeometry x="1000" y="20" width="160" height="50" as="geometry" />
        </mxCell>
        <mxCell id="oO1IpqutuhY_mgt90Hi0-437" value="" style="shape=image;html=1;verticalAlign=top;verticalLabelPosition=bottom;labelBackgroundColor=#ffffff;imageAspect=0;aspect=fixed;image=https://cdn3.iconfinder.com/data/icons/essential-pack/32/89-Picture-128.png" parent="oO1IpqutuhY_mgt90Hi0-416" vertex="1">
          <mxGeometry x="52" y="155" width="245" height="245" as="geometry" />
        </mxCell>
        <mxCell id="HvcPI_E8XcnlEceZRkLn-35" value="" style="shape=mxgraph.mockup.containers.marginRect;rectMarginTop=10;strokeColor=#666666;strokeWidth=1;dashed=0;rounded=1;arcSize=5;recursiveResize=0;html=1;whiteSpace=wrap;" parent="oO1IpqutuhY_mgt90Hi0-416" vertex="1">
          <mxGeometry x="1020" y="70" width="135" height="90" as="geometry" />
        </mxCell>
        <mxCell id="HvcPI_E8XcnlEceZRkLn-36" value="IconAndCount" style="shape=rect;strokeColor=none;fillColor=#008cff;strokeWidth=1;dashed=0;rounded=1;arcSize=20;fontColor=#ffffff;fontSize=17;spacing=2;spacingTop=-2;align=left;autosize=1;spacingLeft=4;resizeWidth=0;resizeHeight=0;perimeter=none;html=1;whiteSpace=wrap;" parent="HvcPI_E8XcnlEceZRkLn-35" vertex="1">
          <mxGeometry x="5" width="130" height="30" as="geometry" />
        </mxCell>
        <mxCell id="HvcPI_E8XcnlEceZRkLn-37" value="" style="shape=mxgraph.signs.healthcare.heart_2;html=1;pointerEvents=1;fillColor=#FF0080;strokeColor=none;verticalLabelPosition=bottom;verticalAlign=top;align=center;sketch=0;fontColor=#ff0000;" parent="HvcPI_E8XcnlEceZRkLn-35" vertex="1">
          <mxGeometry x="20" y="33" width="40" height="40" as="geometry" />
        </mxCell>
        <mxCell id="HvcPI_E8XcnlEceZRkLn-38" value="15" style="text;strokeColor=none;fillColor=none;html=1;fontSize=25;fontStyle=0;verticalAlign=middle;align=center;" parent="HvcPI_E8XcnlEceZRkLn-35" vertex="1">
          <mxGeometry x="50" y="28" width="70" height="50" as="geometry" />
        </mxCell>
        <mxCell id="HvcPI_E8XcnlEceZRkLn-285" value="" style="shape=mxgraph.mockup.containers.marginRect;rectMarginTop=10;strokeColor=#666666;strokeWidth=1;dashed=0;rounded=1;arcSize=5;recursiveResize=0;html=1;whiteSpace=wrap;fillColor=none;" parent="oO1IpqutuhY_mgt90Hi0-393" vertex="1">
          <mxGeometry x="15" y="340" width="1250" height="1560" as="geometry" />
        </mxCell>
        <mxCell id="HvcPI_E8XcnlEceZRkLn-286" value="Article" style="shape=rect;strokeColor=none;fillColor=#008cff;strokeWidth=1;dashed=0;rounded=1;arcSize=20;fontColor=#ffffff;fontSize=17;spacing=2;spacingTop=-2;align=left;autosize=1;spacingLeft=4;resizeWidth=0;resizeHeight=0;perimeter=none;html=1;whiteSpace=wrap;" parent="HvcPI_E8XcnlEceZRkLn-285" vertex="1">
          <mxGeometry x="5" width="70" height="30" as="geometry" />
        </mxCell>
        <mxCell id="HvcPI_E8XcnlEceZRkLn-151" value="Null if {isArticle} ===false&lt;br&gt;else mediaquery&lt;br&gt;for visibility" style="strokeWidth=1;shadow=0;dashed=0;align=center;html=1;shape=mxgraph.mockup.text.callout;linkText=;textSize=17;textColor=#666666;callDir=NW;callStyle=line;fontSize=25;fontColor=#d40c20;align=left;verticalAlign=top;strokeColor=#666666;" parent="HvcPI_E8XcnlEceZRkLn-285" vertex="1">
          <mxGeometry x="130" y="70" width="125" height="160" as="geometry" />
        </mxCell>
        <mxCell id="oO1IpqutuhY_mgt90Hi0-1" value="" style="strokeWidth=1;shadow=0;dashed=0;align=center;html=1;shape=mxgraph.mockup.containers.browserWindow;rSize=0;strokeColor=#666666;strokeColor2=#008cff;strokeColor3=#c4c4c4;mainText=,;recursiveResize=0;fontSize=30;fontStyle=4" parent="1" vertex="1">
          <mxGeometry x="-57" y="-100" width="430" height="1400" as="geometry" />
        </mxCell>
        <mxCell id="oO1IpqutuhY_mgt90Hi0-2" value="News Daily" style="strokeWidth=1;shadow=0;dashed=0;align=center;html=1;shape=mxgraph.mockup.containers.anchor;fontSize=17;fontColor=#666666;align=left;whiteSpace=wrap;" parent="oO1IpqutuhY_mgt90Hi0-1" vertex="1">
          <mxGeometry x="60" y="12" width="110" height="26" as="geometry" />
        </mxCell>
        <mxCell id="oO1IpqutuhY_mgt90Hi0-3" value="127.0.0.1:5173/home?page=1" style="strokeWidth=1;shadow=0;dashed=0;align=center;html=1;shape=mxgraph.mockup.containers.anchor;rSize=0;fontSize=17;fontColor=#666666;align=left;" parent="oO1IpqutuhY_mgt90Hi0-1" vertex="1">
          <mxGeometry x="130" y="60" width="250" height="26" as="geometry" />
        </mxCell>
        <mxCell id="oO1IpqutuhY_mgt90Hi0-110" value="" style="shape=mxgraph.mockup.containers.marginRect;rectMarginTop=10;strokeColor=#666666;strokeWidth=1;dashed=0;rounded=1;arcSize=5;recursiveResize=0;html=1;whiteSpace=wrap;" parent="oO1IpqutuhY_mgt90Hi0-1" vertex="1">
          <mxGeometry x="30" y="130" width="370" height="370" as="geometry" />
        </mxCell>
        <mxCell id="oO1IpqutuhY_mgt90Hi0-111" value="NavBar" style="shape=rect;strokeColor=none;fillColor=#008cff;strokeWidth=1;dashed=0;rounded=1;arcSize=20;fontColor=#ffffff;fontSize=17;spacing=2;spacingTop=-2;align=left;autosize=1;spacingLeft=4;resizeWidth=0;resizeHeight=0;perimeter=none;html=1;whiteSpace=wrap;" parent="oO1IpqutuhY_mgt90Hi0-110" vertex="1">
          <mxGeometry x="5" width="80" height="30" as="geometry" />
        </mxCell>
        <mxCell id="oO1IpqutuhY_mgt90Hi0-112" value="" style="shape=mxgraph.mockup.containers.marginRect;rectMarginTop=10;strokeColor=#666666;strokeWidth=1;dashed=0;rounded=1;arcSize=5;recursiveResize=0;html=1;whiteSpace=wrap;" parent="oO1IpqutuhY_mgt90Hi0-110" vertex="1">
          <mxGeometry x="30" y="35" width="132.86" height="135" as="geometry" />
        </mxCell>
        <mxCell id="oO1IpqutuhY_mgt90Hi0-113" value="CategoriesPane" style="shape=rect;strokeColor=none;fillColor=#008cff;strokeWidth=1;dashed=0;rounded=1;arcSize=20;fontColor=#ffffff;fontSize=17;spacing=2;spacingTop=-2;align=left;autosize=1;spacingLeft=4;resizeWidth=0;resizeHeight=0;perimeter=none;html=1;whiteSpace=wrap;" parent="oO1IpqutuhY_mgt90Hi0-112" vertex="1">
          <mxGeometry x="5" width="150" height="30" as="geometry" />
        </mxCell>
        <mxCell id="oO1IpqutuhY_mgt90Hi0-114" value="" style="shape=image;html=1;verticalAlign=top;verticalLabelPosition=bottom;labelBackgroundColor=#ffffff;imageAspect=0;aspect=fixed;image=https://cdn4.iconfinder.com/data/icons/flat-black/128/menu.png" parent="oO1IpqutuhY_mgt90Hi0-112" vertex="1">
          <mxGeometry x="11.43" y="20" width="110" height="110" as="geometry" />
        </mxCell>
        <mxCell id="oO1IpqutuhY_mgt90Hi0-115" value="" style="shape=mxgraph.mockup.containers.marginRect;rectMarginTop=10;strokeColor=#666666;strokeWidth=1;dashed=0;rounded=1;arcSize=5;recursiveResize=0;html=1;whiteSpace=wrap;" parent="oO1IpqutuhY_mgt90Hi0-110" vertex="1">
          <mxGeometry x="30" y="200" width="310" height="140" as="geometry" />
        </mxCell>
        <mxCell id="oO1IpqutuhY_mgt90Hi0-116" value="TitleBar" style="shape=rect;strokeColor=none;fillColor=#008cff;strokeWidth=1;dashed=0;rounded=1;arcSize=20;fontColor=#ffffff;fontSize=17;spacing=2;spacingTop=-2;align=left;autosize=1;spacingLeft=4;resizeWidth=0;resizeHeight=0;perimeter=none;html=1;whiteSpace=wrap;" parent="oO1IpqutuhY_mgt90Hi0-115" vertex="1">
          <mxGeometry x="5" width="80" height="30" as="geometry" />
        </mxCell>
        <mxCell id="oO1IpqutuhY_mgt90Hi0-117" value="WebsiteTitle" style="text;strokeColor=none;fillColor=none;html=1;fontSize=40;fontStyle=5;verticalAlign=middle;align=center;" parent="oO1IpqutuhY_mgt90Hi0-115" vertex="1">
          <mxGeometry x="85" y="45" width="160" height="50" as="geometry" />
        </mxCell>
        <mxCell id="oO1IpqutuhY_mgt90Hi0-118" value="" style="shape=mxgraph.mockup.containers.marginRect;rectMarginTop=10;strokeColor=#666666;strokeWidth=1;dashed=0;rounded=1;arcSize=5;recursiveResize=0;html=1;whiteSpace=wrap;" parent="oO1IpqutuhY_mgt90Hi0-110" vertex="1">
          <mxGeometry x="210" y="35" width="130" height="140" as="geometry" />
        </mxCell>
        <mxCell id="oO1IpqutuhY_mgt90Hi0-119" value="Avatar" style="shape=rect;strokeColor=none;fillColor=#008cff;strokeWidth=1;dashed=0;rounded=1;arcSize=20;fontColor=#ffffff;fontSize=17;spacing=2;spacingTop=-2;align=left;autosize=1;spacingLeft=4;resizeWidth=0;resizeHeight=0;perimeter=none;html=1;whiteSpace=wrap;" parent="oO1IpqutuhY_mgt90Hi0-118" vertex="1">
          <mxGeometry x="5" width="70" height="30" as="geometry" />
        </mxCell>
        <mxCell id="oO1IpqutuhY_mgt90Hi0-120" value="" style="verticalLabelPosition=bottom;shadow=0;dashed=0;align=center;html=1;verticalAlign=top;strokeWidth=1;shape=mxgraph.mockup.containers.userFemale;strokeColor=#666666;strokeColor2=#008cff;" parent="oO1IpqutuhY_mgt90Hi0-118" vertex="1">
          <mxGeometry x="27.5" y="30" width="75" height="65" as="geometry" />
        </mxCell>
        <mxCell id="oO1IpqutuhY_mgt90Hi0-354" value="Log Out" style="text;strokeColor=none;fillColor=none;html=1;fontSize=20;fontStyle=0;verticalAlign=middle;align=center;" parent="oO1IpqutuhY_mgt90Hi0-118" vertex="1">
          <mxGeometry x="5" y="105" width="110" height="30" as="geometry" />
        </mxCell>
        <mxCell id="oO1IpqutuhY_mgt90Hi0-121" value="" style="shape=mxgraph.mockup.containers.marginRect;rectMarginTop=10;strokeColor=#666666;strokeWidth=1;dashed=0;rounded=1;arcSize=5;recursiveResize=0;html=1;whiteSpace=wrap;" parent="oO1IpqutuhY_mgt90Hi0-1" vertex="1">
          <mxGeometry x="30" y="530" width="380" height="840" as="geometry" />
        </mxCell>
        <mxCell id="oO1IpqutuhY_mgt90Hi0-122" value="Paginator" style="shape=rect;strokeColor=none;fillColor=#008cff;strokeWidth=1;dashed=0;rounded=1;arcSize=20;fontColor=#ffffff;fontSize=17;spacing=2;spacingTop=-2;align=left;autosize=1;spacingLeft=4;resizeWidth=0;resizeHeight=0;perimeter=none;html=1;whiteSpace=wrap;" parent="oO1IpqutuhY_mgt90Hi0-121" vertex="1">
          <mxGeometry x="5" width="100" height="30" as="geometry" />
        </mxCell>
        <mxCell id="oO1IpqutuhY_mgt90Hi0-123" value="" style="shape=mxgraph.mockup.containers.marginRect;rectMarginTop=10;strokeColor=#666666;strokeWidth=1;dashed=0;rounded=1;arcSize=5;recursiveResize=0;html=1;whiteSpace=wrap;" parent="oO1IpqutuhY_mgt90Hi0-121" vertex="1">
          <mxGeometry x="25" y="40" width="325" height="350" as="geometry" />
        </mxCell>
        <mxCell id="oO1IpqutuhY_mgt90Hi0-124" value="ArticleCard" style="shape=rect;strokeColor=none;fillColor=#008cff;strokeWidth=1;dashed=0;rounded=1;arcSize=20;fontColor=#ffffff;fontSize=17;spacing=2;spacingTop=-2;align=left;autosize=1;spacingLeft=4;resizeWidth=0;resizeHeight=0;perimeter=none;html=1;whiteSpace=wrap;" parent="oO1IpqutuhY_mgt90Hi0-123" vertex="1">
          <mxGeometry x="5" width="110" height="30" as="geometry" />
        </mxCell>
        <mxCell id="oO1IpqutuhY_mgt90Hi0-125" value="YYYY-MM-DD" style="text;strokeColor=none;fillColor=none;html=1;fontSize=25;fontStyle=0;verticalAlign=middle;align=center;" parent="oO1IpqutuhY_mgt90Hi0-123" vertex="1">
          <mxGeometry x="82.5" y="185" width="160" height="50" as="geometry" />
        </mxCell>
        <mxCell id="oO1IpqutuhY_mgt90Hi0-126" value="ArticleTitle" style="text;strokeColor=none;fillColor=none;html=1;fontSize=40;fontStyle=1;verticalAlign=middle;align=center;" parent="oO1IpqutuhY_mgt90Hi0-123" vertex="1">
          <mxGeometry x="77.5" y="118" width="160" height="50" as="geometry" />
        </mxCell>
        <mxCell id="oO1IpqutuhY_mgt90Hi0-127" value="by Author" style="text;strokeColor=none;fillColor=none;html=1;fontSize=30;fontStyle=2;verticalAlign=middle;align=center;" parent="oO1IpqutuhY_mgt90Hi0-123" vertex="1">
          <mxGeometry x="82.5" y="60" width="160" height="50" as="geometry" />
        </mxCell>
        <mxCell id="HvcPI_E8XcnlEceZRkLn-96" value="" style="shape=mxgraph.mockup.containers.marginRect;rectMarginTop=10;strokeColor=#666666;strokeWidth=1;dashed=0;rounded=1;arcSize=5;recursiveResize=0;html=1;whiteSpace=wrap;" parent="oO1IpqutuhY_mgt90Hi0-123" vertex="1">
          <mxGeometry x="175" y="250" width="135" height="90" as="geometry" />
        </mxCell>
        <mxCell id="HvcPI_E8XcnlEceZRkLn-97" value="IconAndCount" style="shape=rect;strokeColor=none;fillColor=#008cff;strokeWidth=1;dashed=0;rounded=1;arcSize=20;fontColor=#ffffff;fontSize=17;spacing=2;spacingTop=-2;align=left;autosize=1;spacingLeft=4;resizeWidth=0;resizeHeight=0;perimeter=none;html=1;whiteSpace=wrap;" parent="HvcPI_E8XcnlEceZRkLn-96" vertex="1">
          <mxGeometry x="5" width="130" height="30" as="geometry" />
        </mxCell>
        <mxCell id="HvcPI_E8XcnlEceZRkLn-98" value="" style="shape=image;html=1;verticalAlign=top;verticalLabelPosition=bottom;labelBackgroundColor=#ffffff;imageAspect=0;aspect=fixed;image=https://cdn1.iconfinder.com/data/icons/unicons-line-vol-2/24/comment-alt-lines-128.png" parent="HvcPI_E8XcnlEceZRkLn-96" vertex="1">
          <mxGeometry y="30" width="60" height="60" as="geometry" />
        </mxCell>
        <mxCell id="HvcPI_E8XcnlEceZRkLn-99" value="99" style="text;strokeColor=none;fillColor=none;html=1;fontSize=25;fontStyle=0;verticalAlign=middle;align=center;" parent="HvcPI_E8XcnlEceZRkLn-96" vertex="1">
          <mxGeometry x="60" y="35" width="70" height="50" as="geometry" />
        </mxCell>
        <mxCell id="HvcPI_E8XcnlEceZRkLn-100" value="" style="shape=mxgraph.mockup.containers.marginRect;rectMarginTop=10;strokeColor=#666666;strokeWidth=1;dashed=0;rounded=1;arcSize=5;recursiveResize=0;html=1;whiteSpace=wrap;" parent="oO1IpqutuhY_mgt90Hi0-123" vertex="1">
          <mxGeometry x="15" y="250" width="135" height="90" as="geometry" />
        </mxCell>
        <mxCell id="HvcPI_E8XcnlEceZRkLn-101" value="IconAndCount" style="shape=rect;strokeColor=none;fillColor=#008cff;strokeWidth=1;dashed=0;rounded=1;arcSize=20;fontColor=#ffffff;fontSize=17;spacing=2;spacingTop=-2;align=left;autosize=1;spacingLeft=4;resizeWidth=0;resizeHeight=0;perimeter=none;html=1;whiteSpace=wrap;" parent="HvcPI_E8XcnlEceZRkLn-100" vertex="1">
          <mxGeometry x="5" width="130" height="30" as="geometry" />
        </mxCell>
        <mxCell id="HvcPI_E8XcnlEceZRkLn-102" value="" style="shape=mxgraph.signs.healthcare.heart_2;html=1;pointerEvents=1;fillColor=#FF0080;strokeColor=none;verticalLabelPosition=bottom;verticalAlign=top;align=center;sketch=0;fontColor=#ff0000;" parent="HvcPI_E8XcnlEceZRkLn-100" vertex="1">
          <mxGeometry x="20" y="33" width="40" height="40" as="geometry" />
        </mxCell>
        <mxCell id="HvcPI_E8XcnlEceZRkLn-103" value="15" style="text;strokeColor=none;fillColor=none;html=1;fontSize=25;fontStyle=0;verticalAlign=middle;align=center;" parent="HvcPI_E8XcnlEceZRkLn-100" vertex="1">
          <mxGeometry x="50" y="28" width="70" height="50" as="geometry" />
        </mxCell>
        <mxCell id="oO1IpqutuhY_mgt90Hi0-150" value="" style="shape=mxgraph.mockup.containers.marginRect;rectMarginTop=10;strokeColor=#666666;strokeWidth=1;dashed=0;rounded=1;arcSize=5;recursiveResize=0;html=1;whiteSpace=wrap;" parent="oO1IpqutuhY_mgt90Hi0-121" vertex="1">
          <mxGeometry x="25" y="430" width="325" height="350" as="geometry" />
        </mxCell>
        <mxCell id="oO1IpqutuhY_mgt90Hi0-151" value="ArticleCard" style="shape=rect;strokeColor=none;fillColor=#008cff;strokeWidth=1;dashed=0;rounded=1;arcSize=20;fontColor=#ffffff;fontSize=17;spacing=2;spacingTop=-2;align=left;autosize=1;spacingLeft=4;resizeWidth=0;resizeHeight=0;perimeter=none;html=1;whiteSpace=wrap;" parent="oO1IpqutuhY_mgt90Hi0-150" vertex="1">
          <mxGeometry x="5" width="110" height="30" as="geometry" />
        </mxCell>
        <mxCell id="oO1IpqutuhY_mgt90Hi0-152" value="YYYY-MM-DD" style="text;strokeColor=none;fillColor=none;html=1;fontSize=25;fontStyle=0;verticalAlign=middle;align=center;" parent="oO1IpqutuhY_mgt90Hi0-150" vertex="1">
          <mxGeometry x="82.5" y="185" width="160" height="50" as="geometry" />
        </mxCell>
        <mxCell id="oO1IpqutuhY_mgt90Hi0-153" value="ArticleTitle" style="text;strokeColor=none;fillColor=none;html=1;fontSize=40;fontStyle=1;verticalAlign=middle;align=center;" parent="oO1IpqutuhY_mgt90Hi0-150" vertex="1">
          <mxGeometry x="77.5" y="118" width="160" height="50" as="geometry" />
        </mxCell>
        <mxCell id="oO1IpqutuhY_mgt90Hi0-154" value="by Author" style="text;strokeColor=none;fillColor=none;html=1;fontSize=30;fontStyle=2;verticalAlign=middle;align=center;" parent="oO1IpqutuhY_mgt90Hi0-150" vertex="1">
          <mxGeometry x="82.5" y="60" width="160" height="50" as="geometry" />
        </mxCell>
        <mxCell id="HvcPI_E8XcnlEceZRkLn-88" value="" style="shape=mxgraph.mockup.containers.marginRect;rectMarginTop=10;strokeColor=#666666;strokeWidth=1;dashed=0;rounded=1;arcSize=5;recursiveResize=0;html=1;whiteSpace=wrap;" parent="oO1IpqutuhY_mgt90Hi0-150" vertex="1">
          <mxGeometry x="175" y="235" width="135" height="90" as="geometry" />
        </mxCell>
        <mxCell id="HvcPI_E8XcnlEceZRkLn-89" value="IconAndCount" style="shape=rect;strokeColor=none;fillColor=#008cff;strokeWidth=1;dashed=0;rounded=1;arcSize=20;fontColor=#ffffff;fontSize=17;spacing=2;spacingTop=-2;align=left;autosize=1;spacingLeft=4;resizeWidth=0;resizeHeight=0;perimeter=none;html=1;whiteSpace=wrap;" parent="HvcPI_E8XcnlEceZRkLn-88" vertex="1">
          <mxGeometry x="5" width="130" height="30" as="geometry" />
        </mxCell>
        <mxCell id="HvcPI_E8XcnlEceZRkLn-90" value="" style="shape=image;html=1;verticalAlign=top;verticalLabelPosition=bottom;labelBackgroundColor=#ffffff;imageAspect=0;aspect=fixed;image=https://cdn1.iconfinder.com/data/icons/unicons-line-vol-2/24/comment-alt-lines-128.png" parent="HvcPI_E8XcnlEceZRkLn-88" vertex="1">
          <mxGeometry y="30" width="60" height="60" as="geometry" />
        </mxCell>
        <mxCell id="HvcPI_E8XcnlEceZRkLn-91" value="99" style="text;strokeColor=none;fillColor=none;html=1;fontSize=25;fontStyle=0;verticalAlign=middle;align=center;" parent="HvcPI_E8XcnlEceZRkLn-88" vertex="1">
          <mxGeometry x="60" y="35" width="70" height="50" as="geometry" />
        </mxCell>
        <mxCell id="HvcPI_E8XcnlEceZRkLn-92" value="" style="shape=mxgraph.mockup.containers.marginRect;rectMarginTop=10;strokeColor=#666666;strokeWidth=1;dashed=0;rounded=1;arcSize=5;recursiveResize=0;html=1;whiteSpace=wrap;" parent="oO1IpqutuhY_mgt90Hi0-150" vertex="1">
          <mxGeometry x="15" y="235" width="135" height="90" as="geometry" />
        </mxCell>
        <mxCell id="HvcPI_E8XcnlEceZRkLn-93" value="IconAndCount" style="shape=rect;strokeColor=none;fillColor=#008cff;strokeWidth=1;dashed=0;rounded=1;arcSize=20;fontColor=#ffffff;fontSize=17;spacing=2;spacingTop=-2;align=left;autosize=1;spacingLeft=4;resizeWidth=0;resizeHeight=0;perimeter=none;html=1;whiteSpace=wrap;" parent="HvcPI_E8XcnlEceZRkLn-92" vertex="1">
          <mxGeometry x="5" width="130" height="30" as="geometry" />
        </mxCell>
        <mxCell id="HvcPI_E8XcnlEceZRkLn-94" value="" style="shape=mxgraph.signs.healthcare.heart_2;html=1;pointerEvents=1;fillColor=#FF0080;strokeColor=none;verticalLabelPosition=bottom;verticalAlign=top;align=center;sketch=0;fontColor=#ff0000;" parent="HvcPI_E8XcnlEceZRkLn-92" vertex="1">
          <mxGeometry x="20" y="33" width="40" height="40" as="geometry" />
        </mxCell>
        <mxCell id="HvcPI_E8XcnlEceZRkLn-95" value="15" style="text;strokeColor=none;fillColor=none;html=1;fontSize=25;fontStyle=0;verticalAlign=middle;align=center;" parent="HvcPI_E8XcnlEceZRkLn-92" vertex="1">
          <mxGeometry x="50" y="28" width="70" height="50" as="geometry" />
        </mxCell>
        <mxCell id="B4IMx2vGt0d6lZp3y3eG-11" value="&lt;&lt; Prev 1 2 3 4 5 6 7 8 9 10 Next &gt;&gt;" style="strokeWidth=1;shadow=0;dashed=0;align=center;html=1;shape=mxgraph.mockup.navigation.pagination;linkText=;fontSize=17;fontColor=#0000ff;fontStyle=4;" parent="oO1IpqutuhY_mgt90Hi0-121" vertex="1">
          <mxGeometry x="12.5" y="790" width="350" height="30" as="geometry" />
        </mxCell>
        <mxCell id="oO1IpqutuhY_mgt90Hi0-29" value="" style="strokeWidth=1;shadow=0;dashed=0;align=center;html=1;shape=mxgraph.mockup.containers.browserWindow;rSize=0;strokeColor=#666666;strokeColor2=#008cff;strokeColor3=#c4c4c4;mainText=,;recursiveResize=0;fontSize=30;" parent="1" vertex="1">
          <mxGeometry x="413" y="-100" width="1300" height="1280" as="geometry" />
        </mxCell>
        <mxCell id="oO1IpqutuhY_mgt90Hi0-30" value="News Daily" style="strokeWidth=1;shadow=0;dashed=0;align=center;html=1;shape=mxgraph.mockup.containers.anchor;fontSize=17;fontColor=#666666;align=left;whiteSpace=wrap;" parent="oO1IpqutuhY_mgt90Hi0-29" vertex="1">
          <mxGeometry x="60" y="12" width="110" height="26" as="geometry" />
        </mxCell>
        <mxCell id="oO1IpqutuhY_mgt90Hi0-31" value="127.0.0.1:5173/home?page=1" style="strokeWidth=1;shadow=0;dashed=0;align=center;html=1;shape=mxgraph.mockup.containers.anchor;rSize=0;fontSize=17;fontColor=#666666;align=left;" parent="oO1IpqutuhY_mgt90Hi0-29" vertex="1">
          <mxGeometry x="130" y="60" width="820" height="26" as="geometry" />
        </mxCell>
        <mxCell id="oO1IpqutuhY_mgt90Hi0-42" value="" style="shape=mxgraph.mockup.containers.marginRect;rectMarginTop=10;strokeColor=#666666;strokeWidth=1;dashed=0;rounded=1;arcSize=5;recursiveResize=0;html=1;whiteSpace=wrap;" parent="oO1IpqutuhY_mgt90Hi0-29" vertex="1">
          <mxGeometry x="20" y="330" width="1240" height="920" as="geometry" />
        </mxCell>
        <mxCell id="oO1IpqutuhY_mgt90Hi0-43" value="Paginator" style="shape=rect;strokeColor=none;fillColor=#008cff;strokeWidth=1;dashed=0;rounded=1;arcSize=20;fontColor=#ffffff;fontSize=17;spacing=2;spacingTop=-2;align=left;autosize=1;spacingLeft=4;resizeWidth=0;resizeHeight=0;perimeter=none;html=1;whiteSpace=wrap;" parent="oO1IpqutuhY_mgt90Hi0-42" vertex="1">
          <mxGeometry x="5" width="100" height="30" as="geometry" />
        </mxCell>
        <mxCell id="oO1IpqutuhY_mgt90Hi0-46" value="" style="shape=mxgraph.mockup.containers.marginRect;rectMarginTop=10;strokeColor=#666666;strokeWidth=1;dashed=0;rounded=1;arcSize=5;recursiveResize=0;html=1;whiteSpace=wrap;" parent="oO1IpqutuhY_mgt90Hi0-42" vertex="1">
          <mxGeometry x="35" y="50" width="1170" height="240" as="geometry" />
        </mxCell>
        <mxCell id="oO1IpqutuhY_mgt90Hi0-47" value="ArticleCard" style="shape=rect;strokeColor=none;fillColor=#008cff;strokeWidth=1;dashed=0;rounded=1;arcSize=20;fontColor=#ffffff;fontSize=17;spacing=2;spacingTop=-2;align=left;autosize=1;spacingLeft=4;resizeWidth=0;resizeHeight=0;perimeter=none;html=1;whiteSpace=wrap;" parent="oO1IpqutuhY_mgt90Hi0-46" vertex="1">
          <mxGeometry x="5" width="110" height="30" as="geometry" />
        </mxCell>
        <mxCell id="oO1IpqutuhY_mgt90Hi0-50" value="YYYY-MM-DD" style="text;strokeColor=none;fillColor=none;html=1;fontSize=25;fontStyle=0;verticalAlign=middle;align=center;" parent="oO1IpqutuhY_mgt90Hi0-46" vertex="1">
          <mxGeometry x="20" y="170" width="160" height="50" as="geometry" />
        </mxCell>
        <mxCell id="oO1IpqutuhY_mgt90Hi0-48" value="ArticleTitle" style="text;strokeColor=none;fillColor=none;html=1;fontSize=40;fontStyle=1;verticalAlign=middle;align=center;" parent="oO1IpqutuhY_mgt90Hi0-46" vertex="1">
          <mxGeometry x="400" y="94.5" width="160" height="50" as="geometry" />
        </mxCell>
        <mxCell id="oO1IpqutuhY_mgt90Hi0-49" value="by Author" style="text;strokeColor=none;fillColor=none;html=1;fontSize=30;fontStyle=2;verticalAlign=middle;align=center;" parent="oO1IpqutuhY_mgt90Hi0-46" vertex="1">
          <mxGeometry x="940" y="15" width="160" height="50" as="geometry" />
        </mxCell>
        <mxCell id="HvcPI_E8XcnlEceZRkLn-19" value="" style="shape=mxgraph.mockup.containers.marginRect;rectMarginTop=10;strokeColor=#666666;strokeWidth=1;dashed=0;rounded=1;arcSize=5;recursiveResize=0;html=1;whiteSpace=wrap;" parent="oO1IpqutuhY_mgt90Hi0-46" vertex="1">
          <mxGeometry x="995" y="130" width="135" height="90" as="geometry" />
        </mxCell>
        <mxCell id="HvcPI_E8XcnlEceZRkLn-20" value="IconAndCount" style="shape=rect;strokeColor=none;fillColor=#008cff;strokeWidth=1;dashed=0;rounded=1;arcSize=20;fontColor=#ffffff;fontSize=17;spacing=2;spacingTop=-2;align=left;autosize=1;spacingLeft=4;resizeWidth=0;resizeHeight=0;perimeter=none;html=1;whiteSpace=wrap;" parent="HvcPI_E8XcnlEceZRkLn-19" vertex="1">
          <mxGeometry x="5" width="130" height="30" as="geometry" />
        </mxCell>
        <mxCell id="HvcPI_E8XcnlEceZRkLn-21" value="" style="shape=image;html=1;verticalAlign=top;verticalLabelPosition=bottom;labelBackgroundColor=#ffffff;imageAspect=0;aspect=fixed;image=https://cdn1.iconfinder.com/data/icons/unicons-line-vol-2/24/comment-alt-lines-128.png" parent="HvcPI_E8XcnlEceZRkLn-19" vertex="1">
          <mxGeometry y="30" width="60" height="60" as="geometry" />
        </mxCell>
        <mxCell id="HvcPI_E8XcnlEceZRkLn-22" value="99" style="text;strokeColor=none;fillColor=none;html=1;fontSize=25;fontStyle=0;verticalAlign=middle;align=center;" parent="HvcPI_E8XcnlEceZRkLn-19" vertex="1">
          <mxGeometry x="60" y="35" width="70" height="50" as="geometry" />
        </mxCell>
        <mxCell id="HvcPI_E8XcnlEceZRkLn-51" value="" style="shape=mxgraph.mockup.containers.marginRect;rectMarginTop=10;strokeColor=#666666;strokeWidth=1;dashed=0;rounded=1;arcSize=5;recursiveResize=0;html=1;whiteSpace=wrap;" parent="oO1IpqutuhY_mgt90Hi0-46" vertex="1">
          <mxGeometry x="835" y="130" width="135" height="90" as="geometry" />
        </mxCell>
        <mxCell id="HvcPI_E8XcnlEceZRkLn-52" value="IconAndCount" style="shape=rect;strokeColor=none;fillColor=#008cff;strokeWidth=1;dashed=0;rounded=1;arcSize=20;fontColor=#ffffff;fontSize=17;spacing=2;spacingTop=-2;align=left;autosize=1;spacingLeft=4;resizeWidth=0;resizeHeight=0;perimeter=none;html=1;whiteSpace=wrap;" parent="HvcPI_E8XcnlEceZRkLn-51" vertex="1">
          <mxGeometry x="5" width="130" height="30" as="geometry" />
        </mxCell>
        <mxCell id="HvcPI_E8XcnlEceZRkLn-53" value="" style="shape=mxgraph.signs.healthcare.heart_2;html=1;pointerEvents=1;fillColor=#FF0080;strokeColor=none;verticalLabelPosition=bottom;verticalAlign=top;align=center;sketch=0;fontColor=#ff0000;" parent="HvcPI_E8XcnlEceZRkLn-51" vertex="1">
          <mxGeometry x="20" y="33" width="40" height="40" as="geometry" />
        </mxCell>
        <mxCell id="HvcPI_E8XcnlEceZRkLn-54" value="15" style="text;strokeColor=none;fillColor=none;html=1;fontSize=25;fontStyle=0;verticalAlign=middle;align=center;" parent="HvcPI_E8XcnlEceZRkLn-51" vertex="1">
          <mxGeometry x="50" y="28" width="70" height="50" as="geometry" />
        </mxCell>
        <mxCell id="oO1IpqutuhY_mgt90Hi0-87" value="" style="shape=mxgraph.mockup.containers.marginRect;rectMarginTop=10;strokeColor=#666666;strokeWidth=1;dashed=0;rounded=1;arcSize=5;recursiveResize=0;html=1;whiteSpace=wrap;" parent="oO1IpqutuhY_mgt90Hi0-42" vertex="1">
          <mxGeometry x="30" y="320" width="1170" height="240" as="geometry" />
        </mxCell>
        <mxCell id="oO1IpqutuhY_mgt90Hi0-88" value="ArticleCard" style="shape=rect;strokeColor=none;fillColor=#008cff;strokeWidth=1;dashed=0;rounded=1;arcSize=20;fontColor=#ffffff;fontSize=17;spacing=2;spacingTop=-2;align=left;autosize=1;spacingLeft=4;resizeWidth=0;resizeHeight=0;perimeter=none;html=1;whiteSpace=wrap;" parent="oO1IpqutuhY_mgt90Hi0-87" vertex="1">
          <mxGeometry x="5" width="110" height="30" as="geometry" />
        </mxCell>
        <mxCell id="oO1IpqutuhY_mgt90Hi0-89" value="YYYY-MM-DD" style="text;strokeColor=none;fillColor=none;html=1;fontSize=25;fontStyle=0;verticalAlign=middle;align=center;" parent="oO1IpqutuhY_mgt90Hi0-87" vertex="1">
          <mxGeometry x="20" y="170" width="160" height="50" as="geometry" />
        </mxCell>
        <mxCell id="oO1IpqutuhY_mgt90Hi0-90" value="ArticleTitle" style="text;strokeColor=none;fillColor=none;html=1;fontSize=40;fontStyle=1;verticalAlign=middle;align=center;" parent="oO1IpqutuhY_mgt90Hi0-87" vertex="1">
          <mxGeometry x="400" y="94.5" width="160" height="50" as="geometry" />
        </mxCell>
        <mxCell id="oO1IpqutuhY_mgt90Hi0-91" value="by Author" style="text;strokeColor=none;fillColor=none;html=1;fontSize=30;fontStyle=2;verticalAlign=middle;align=center;" parent="oO1IpqutuhY_mgt90Hi0-87" vertex="1">
          <mxGeometry x="940" y="15" width="160" height="50" as="geometry" />
        </mxCell>
        <mxCell id="HvcPI_E8XcnlEceZRkLn-72" value="" style="shape=mxgraph.mockup.containers.marginRect;rectMarginTop=10;strokeColor=#666666;strokeWidth=1;dashed=0;rounded=1;arcSize=5;recursiveResize=0;html=1;whiteSpace=wrap;" parent="oO1IpqutuhY_mgt90Hi0-87" vertex="1">
          <mxGeometry x="1010" y="132" width="135" height="90" as="geometry" />
        </mxCell>
        <mxCell id="HvcPI_E8XcnlEceZRkLn-73" value="IconAndCount" style="shape=rect;strokeColor=none;fillColor=#008cff;strokeWidth=1;dashed=0;rounded=1;arcSize=20;fontColor=#ffffff;fontSize=17;spacing=2;spacingTop=-2;align=left;autosize=1;spacingLeft=4;resizeWidth=0;resizeHeight=0;perimeter=none;html=1;whiteSpace=wrap;" parent="HvcPI_E8XcnlEceZRkLn-72" vertex="1">
          <mxGeometry x="5" width="130" height="30" as="geometry" />
        </mxCell>
        <mxCell id="HvcPI_E8XcnlEceZRkLn-74" value="" style="shape=image;html=1;verticalAlign=top;verticalLabelPosition=bottom;labelBackgroundColor=#ffffff;imageAspect=0;aspect=fixed;image=https://cdn1.iconfinder.com/data/icons/unicons-line-vol-2/24/comment-alt-lines-128.png" parent="HvcPI_E8XcnlEceZRkLn-72" vertex="1">
          <mxGeometry y="30" width="60" height="60" as="geometry" />
        </mxCell>
        <mxCell id="HvcPI_E8XcnlEceZRkLn-75" value="99" style="text;strokeColor=none;fillColor=none;html=1;fontSize=25;fontStyle=0;verticalAlign=middle;align=center;" parent="HvcPI_E8XcnlEceZRkLn-72" vertex="1">
          <mxGeometry x="60" y="35" width="70" height="50" as="geometry" />
        </mxCell>
        <mxCell id="HvcPI_E8XcnlEceZRkLn-76" value="" style="shape=mxgraph.mockup.containers.marginRect;rectMarginTop=10;strokeColor=#666666;strokeWidth=1;dashed=0;rounded=1;arcSize=5;recursiveResize=0;html=1;whiteSpace=wrap;" parent="oO1IpqutuhY_mgt90Hi0-87" vertex="1">
          <mxGeometry x="850" y="132" width="135" height="90" as="geometry" />
        </mxCell>
        <mxCell id="HvcPI_E8XcnlEceZRkLn-77" value="IconAndCount" style="shape=rect;strokeColor=none;fillColor=#008cff;strokeWidth=1;dashed=0;rounded=1;arcSize=20;fontColor=#ffffff;fontSize=17;spacing=2;spacingTop=-2;align=left;autosize=1;spacingLeft=4;resizeWidth=0;resizeHeight=0;perimeter=none;html=1;whiteSpace=wrap;" parent="HvcPI_E8XcnlEceZRkLn-76" vertex="1">
          <mxGeometry x="5" width="130" height="30" as="geometry" />
        </mxCell>
        <mxCell id="HvcPI_E8XcnlEceZRkLn-78" value="" style="shape=mxgraph.signs.healthcare.heart_2;html=1;pointerEvents=1;fillColor=#FF0080;strokeColor=none;verticalLabelPosition=bottom;verticalAlign=top;align=center;sketch=0;fontColor=#ff0000;" parent="HvcPI_E8XcnlEceZRkLn-76" vertex="1">
          <mxGeometry x="20" y="33" width="40" height="40" as="geometry" />
        </mxCell>
        <mxCell id="HvcPI_E8XcnlEceZRkLn-79" value="15" style="text;strokeColor=none;fillColor=none;html=1;fontSize=25;fontStyle=0;verticalAlign=middle;align=center;" parent="HvcPI_E8XcnlEceZRkLn-76" vertex="1">
          <mxGeometry x="50" y="28" width="70" height="50" as="geometry" />
        </mxCell>
        <mxCell id="oO1IpqutuhY_mgt90Hi0-159" value="" style="shape=mxgraph.mockup.containers.marginRect;rectMarginTop=10;strokeColor=#666666;strokeWidth=1;dashed=0;rounded=1;arcSize=5;recursiveResize=0;html=1;whiteSpace=wrap;" parent="oO1IpqutuhY_mgt90Hi0-42" vertex="1">
          <mxGeometry x="35" y="590" width="1170" height="240" as="geometry" />
        </mxCell>
        <mxCell id="oO1IpqutuhY_mgt90Hi0-160" value="ArticleCard" style="shape=rect;strokeColor=none;fillColor=#008cff;strokeWidth=1;dashed=0;rounded=1;arcSize=20;fontColor=#ffffff;fontSize=17;spacing=2;spacingTop=-2;align=left;autosize=1;spacingLeft=4;resizeWidth=0;resizeHeight=0;perimeter=none;html=1;whiteSpace=wrap;" parent="oO1IpqutuhY_mgt90Hi0-159" vertex="1">
          <mxGeometry x="5" width="110" height="30" as="geometry" />
        </mxCell>
        <mxCell id="oO1IpqutuhY_mgt90Hi0-161" value="YYYY-MM-DD" style="text;strokeColor=none;fillColor=none;html=1;fontSize=25;fontStyle=0;verticalAlign=middle;align=center;" parent="oO1IpqutuhY_mgt90Hi0-159" vertex="1">
          <mxGeometry x="20" y="170" width="160" height="50" as="geometry" />
        </mxCell>
        <mxCell id="oO1IpqutuhY_mgt90Hi0-162" value="ArticleTitle" style="text;strokeColor=none;fillColor=none;html=1;fontSize=40;fontStyle=1;verticalAlign=middle;align=center;" parent="oO1IpqutuhY_mgt90Hi0-159" vertex="1">
          <mxGeometry x="400" y="94.5" width="160" height="50" as="geometry" />
        </mxCell>
        <mxCell id="HvcPI_E8XcnlEceZRkLn-80" value="" style="shape=mxgraph.mockup.containers.marginRect;rectMarginTop=10;strokeColor=#666666;strokeWidth=1;dashed=0;rounded=1;arcSize=5;recursiveResize=0;html=1;whiteSpace=wrap;" parent="oO1IpqutuhY_mgt90Hi0-159" vertex="1">
          <mxGeometry x="1015" y="140" width="135" height="90" as="geometry" />
        </mxCell>
        <mxCell id="HvcPI_E8XcnlEceZRkLn-81" value="IconAndCount" style="shape=rect;strokeColor=none;fillColor=#008cff;strokeWidth=1;dashed=0;rounded=1;arcSize=20;fontColor=#ffffff;fontSize=17;spacing=2;spacingTop=-2;align=left;autosize=1;spacingLeft=4;resizeWidth=0;resizeHeight=0;perimeter=none;html=1;whiteSpace=wrap;" parent="HvcPI_E8XcnlEceZRkLn-80" vertex="1">
          <mxGeometry x="5" width="130" height="30" as="geometry" />
        </mxCell>
        <mxCell id="HvcPI_E8XcnlEceZRkLn-82" value="" style="shape=image;html=1;verticalAlign=top;verticalLabelPosition=bottom;labelBackgroundColor=#ffffff;imageAspect=0;aspect=fixed;image=https://cdn1.iconfinder.com/data/icons/unicons-line-vol-2/24/comment-alt-lines-128.png" parent="HvcPI_E8XcnlEceZRkLn-80" vertex="1">
          <mxGeometry y="30" width="60" height="60" as="geometry" />
        </mxCell>
        <mxCell id="HvcPI_E8XcnlEceZRkLn-83" value="99" style="text;strokeColor=none;fillColor=none;html=1;fontSize=25;fontStyle=0;verticalAlign=middle;align=center;" parent="HvcPI_E8XcnlEceZRkLn-80" vertex="1">
          <mxGeometry x="60" y="35" width="70" height="50" as="geometry" />
        </mxCell>
        <mxCell id="HvcPI_E8XcnlEceZRkLn-84" value="" style="shape=mxgraph.mockup.containers.marginRect;rectMarginTop=10;strokeColor=#666666;strokeWidth=1;dashed=0;rounded=1;arcSize=5;recursiveResize=0;html=1;whiteSpace=wrap;" parent="oO1IpqutuhY_mgt90Hi0-159" vertex="1">
          <mxGeometry x="855" y="140" width="135" height="90" as="geometry" />
        </mxCell>
        <mxCell id="HvcPI_E8XcnlEceZRkLn-85" value="IconAndCount" style="shape=rect;strokeColor=none;fillColor=#008cff;strokeWidth=1;dashed=0;rounded=1;arcSize=20;fontColor=#ffffff;fontSize=17;spacing=2;spacingTop=-2;align=left;autosize=1;spacingLeft=4;resizeWidth=0;resizeHeight=0;perimeter=none;html=1;whiteSpace=wrap;" parent="HvcPI_E8XcnlEceZRkLn-84" vertex="1">
          <mxGeometry x="5" width="130" height="30" as="geometry" />
        </mxCell>
        <mxCell id="HvcPI_E8XcnlEceZRkLn-86" value="" style="shape=mxgraph.signs.healthcare.heart_2;html=1;pointerEvents=1;fillColor=#FF0080;strokeColor=none;verticalLabelPosition=bottom;verticalAlign=top;align=center;sketch=0;fontColor=#ff0000;" parent="HvcPI_E8XcnlEceZRkLn-84" vertex="1">
          <mxGeometry x="20" y="33" width="40" height="40" as="geometry" />
        </mxCell>
        <mxCell id="HvcPI_E8XcnlEceZRkLn-87" value="15" style="text;strokeColor=none;fillColor=none;html=1;fontSize=25;fontStyle=0;verticalAlign=middle;align=center;" parent="HvcPI_E8XcnlEceZRkLn-84" vertex="1">
          <mxGeometry x="50" y="28" width="70" height="50" as="geometry" />
        </mxCell>
        <mxCell id="B4IMx2vGt0d6lZp3y3eG-12" value="&lt;font style=&quot;font-size: 30px;&quot;&gt;&amp;lt;&amp;lt; Prev 1 2 3 4 5 6 7 8 9 10 Next &amp;gt;&amp;gt;&lt;/font&gt;" style="strokeWidth=1;shadow=0;dashed=0;align=center;html=1;shape=mxgraph.mockup.navigation.pagination;linkText=;fontSize=17;fontColor=#0000ff;fontStyle=4;" parent="oO1IpqutuhY_mgt90Hi0-42" vertex="1">
          <mxGeometry x="345" y="860" width="540" height="30" as="geometry" />
        </mxCell>
        <mxCell id="oO1IpqutuhY_mgt90Hi0-105" value="" style="shape=mxgraph.mockup.containers.marginRect;rectMarginTop=10;strokeColor=#666666;strokeWidth=1;dashed=0;rounded=1;arcSize=5;recursiveResize=0;html=1;whiteSpace=wrap;" parent="oO1IpqutuhY_mgt90Hi0-29" vertex="1">
          <mxGeometry x="20" y="120" width="1240" height="200" as="geometry" />
        </mxCell>
        <mxCell id="oO1IpqutuhY_mgt90Hi0-106" value="NavBar" style="shape=rect;strokeColor=none;fillColor=#008cff;strokeWidth=1;dashed=0;rounded=1;arcSize=20;fontColor=#ffffff;fontSize=17;spacing=2;spacingTop=-2;align=left;autosize=1;spacingLeft=4;resizeWidth=0;resizeHeight=0;perimeter=none;html=1;whiteSpace=wrap;" parent="oO1IpqutuhY_mgt90Hi0-105" vertex="1">
          <mxGeometry x="5" width="80" height="30" as="geometry" />
        </mxCell>
        <mxCell id="oO1IpqutuhY_mgt90Hi0-37" value="" style="shape=mxgraph.mockup.containers.marginRect;rectMarginTop=10;strokeColor=#666666;strokeWidth=1;dashed=0;rounded=1;arcSize=5;recursiveResize=0;html=1;whiteSpace=wrap;" parent="oO1IpqutuhY_mgt90Hi0-105" vertex="1">
          <mxGeometry x="30" y="35" width="132.86" height="135" as="geometry" />
        </mxCell>
        <mxCell id="oO1IpqutuhY_mgt90Hi0-38" value="CategoriesPane" style="shape=rect;strokeColor=none;fillColor=#008cff;strokeWidth=1;dashed=0;rounded=1;arcSize=20;fontColor=#ffffff;fontSize=17;spacing=2;spacingTop=-2;align=left;autosize=1;spacingLeft=4;resizeWidth=0;resizeHeight=0;perimeter=none;html=1;whiteSpace=wrap;" parent="oO1IpqutuhY_mgt90Hi0-37" vertex="1">
          <mxGeometry x="5" width="150" height="30" as="geometry" />
        </mxCell>
        <mxCell id="oO1IpqutuhY_mgt90Hi0-45" value="" style="shape=image;html=1;verticalAlign=top;verticalLabelPosition=bottom;labelBackgroundColor=#ffffff;imageAspect=0;aspect=fixed;image=https://cdn4.iconfinder.com/data/icons/flat-black/128/menu.png" parent="oO1IpqutuhY_mgt90Hi0-37" vertex="1">
          <mxGeometry x="11.43" y="20" width="110" height="110" as="geometry" />
        </mxCell>
        <mxCell id="oO1IpqutuhY_mgt90Hi0-32" value="" style="shape=mxgraph.mockup.containers.marginRect;rectMarginTop=10;strokeColor=#666666;strokeWidth=1;dashed=0;rounded=1;arcSize=5;recursiveResize=0;html=1;whiteSpace=wrap;" parent="oO1IpqutuhY_mgt90Hi0-105" vertex="1">
          <mxGeometry x="200" y="35" width="860" height="140" as="geometry" />
        </mxCell>
        <mxCell id="oO1IpqutuhY_mgt90Hi0-33" value="TitleBar" style="shape=rect;strokeColor=none;fillColor=#008cff;strokeWidth=1;dashed=0;rounded=1;arcSize=20;fontColor=#ffffff;fontSize=17;spacing=2;spacingTop=-2;align=left;autosize=1;spacingLeft=4;resizeWidth=0;resizeHeight=0;perimeter=none;html=1;whiteSpace=wrap;" parent="oO1IpqutuhY_mgt90Hi0-32" vertex="1">
          <mxGeometry x="5" width="80" height="30" as="geometry" />
        </mxCell>
        <mxCell id="oO1IpqutuhY_mgt90Hi0-35" value="WebsiteTitle" style="text;strokeColor=none;fillColor=none;html=1;fontSize=40;fontStyle=5;verticalAlign=middle;align=center;" parent="oO1IpqutuhY_mgt90Hi0-32" vertex="1">
          <mxGeometry x="380" y="45" width="160" height="50" as="geometry" />
        </mxCell>
        <mxCell id="oO1IpqutuhY_mgt90Hi0-99" value="" style="shape=mxgraph.mockup.containers.marginRect;rectMarginTop=10;strokeColor=#666666;strokeWidth=1;dashed=0;rounded=1;arcSize=5;recursiveResize=0;html=1;whiteSpace=wrap;" parent="oO1IpqutuhY_mgt90Hi0-105" vertex="1">
          <mxGeometry x="1080" y="30" width="130" height="140" as="geometry" />
        </mxCell>
        <mxCell id="oO1IpqutuhY_mgt90Hi0-100" value="Avatar" style="shape=rect;strokeColor=none;fillColor=#008cff;strokeWidth=1;dashed=0;rounded=1;arcSize=20;fontColor=#ffffff;fontSize=17;spacing=2;spacingTop=-2;align=left;autosize=1;spacingLeft=4;resizeWidth=0;resizeHeight=0;perimeter=none;html=1;whiteSpace=wrap;" parent="oO1IpqutuhY_mgt90Hi0-99" vertex="1">
          <mxGeometry x="5" width="70" height="30" as="geometry" />
        </mxCell>
        <mxCell id="oO1IpqutuhY_mgt90Hi0-34" value="" style="verticalLabelPosition=bottom;shadow=0;dashed=0;align=center;html=1;verticalAlign=top;strokeWidth=1;shape=mxgraph.mockup.containers.userFemale;strokeColor=#666666;strokeColor2=#008cff;" parent="oO1IpqutuhY_mgt90Hi0-99" vertex="1">
          <mxGeometry x="32.5" y="37.5" width="65" height="65" as="geometry" />
        </mxCell>
        <mxCell id="oO1IpqutuhY_mgt90Hi0-355" value="Log Out" style="text;strokeColor=none;fillColor=none;html=1;fontSize=20;fontStyle=0;verticalAlign=middle;align=center;" parent="oO1IpqutuhY_mgt90Hi0-99" vertex="1">
          <mxGeometry x="10" y="110" width="110" height="30" as="geometry" />
        </mxCell>
        <mxCell id="oO1IpqutuhY_mgt90Hi0-168" value="" style="shape=mxgraph.mockup.containers.marginRect;rectMarginTop=10;strokeColor=#666666;strokeWidth=1;dashed=0;rounded=1;arcSize=5;recursiveResize=0;html=1;whiteSpace=wrap;" parent="1" vertex="1">
          <mxGeometry x="-667" y="-70" width="295.5" height="370" as="geometry" />
        </mxCell>
        <mxCell id="oO1IpqutuhY_mgt90Hi0-169" value="CategoriesPane" style="shape=rect;strokeColor=none;fillColor=#008cff;strokeWidth=1;dashed=0;rounded=1;arcSize=20;fontColor=#ffffff;fontSize=17;spacing=2;spacingTop=-2;align=left;autosize=1;spacingLeft=4;resizeWidth=0;resizeHeight=0;perimeter=none;html=1;whiteSpace=wrap;" parent="oO1IpqutuhY_mgt90Hi0-168" vertex="1">
          <mxGeometry x="5" width="150" height="30" as="geometry" />
        </mxCell>
        <mxCell id="oO1IpqutuhY_mgt90Hi0-171" value="All Categories" style="shape=rectangle;strokeColor=none;fillColor=none;linkText=;fontSize=35;fontColor=#0000ff;fontStyle=4;html=1;align=center;" parent="oO1IpqutuhY_mgt90Hi0-168" vertex="1">
          <mxGeometry x="70" y="60" width="150" height="30" as="geometry" />
        </mxCell>
        <mxCell id="oO1IpqutuhY_mgt90Hi0-172" value="Category1" style="shape=rectangle;strokeColor=none;fillColor=none;linkText=;fontSize=35;fontColor=#0000ff;fontStyle=4;html=1;align=center;" parent="oO1IpqutuhY_mgt90Hi0-168" vertex="1">
          <mxGeometry x="70" y="130" width="150" height="30" as="geometry" />
        </mxCell>
        <mxCell id="oO1IpqutuhY_mgt90Hi0-173" value="Category2" style="shape=rectangle;strokeColor=none;fillColor=none;linkText=;fontSize=35;fontColor=#0000ff;fontStyle=4;html=1;align=center;" parent="oO1IpqutuhY_mgt90Hi0-168" vertex="1">
          <mxGeometry x="72.75" y="200" width="150" height="30" as="geometry" />
        </mxCell>
        <mxCell id="oO1IpqutuhY_mgt90Hi0-174" value="Category3" style="shape=rectangle;strokeColor=none;fillColor=none;linkText=;fontSize=35;fontColor=#0000ff;fontStyle=4;html=1;align=center;" parent="oO1IpqutuhY_mgt90Hi0-168" vertex="1">
          <mxGeometry x="72.75" y="280" width="150" height="30" as="geometry" />
        </mxCell>
        <mxCell id="oO1IpqutuhY_mgt90Hi0-176" value="Bootstrap&#39;s&lt;br style=&quot;font-size: 30px;&quot;&gt;floating&lt;br style=&quot;font-size: 30px;&quot;&gt;pane" style="strokeWidth=1;shadow=0;dashed=0;align=center;html=1;shape=mxgraph.mockup.text.callout;linkText=;textSize=17;textColor=#666666;callDir=SW;callStyle=line;fontSize=30;fontColor=#D40C20;align=left;verticalAlign=bottom;strokeColor=#666666;" parent="1" vertex="1">
          <mxGeometry x="-357" y="170" width="390" height="90" as="geometry" />
        </mxCell>
        <mxCell id="oO1IpqutuhY_mgt90Hi0-177" value="Flexbox" style="strokeWidth=1;shadow=0;dashed=0;align=center;html=1;shape=mxgraph.mockup.text.callout;linkText=;textSize=17;textColor=#666666;callDir=NE;callStyle=line;fontSize=30;fontColor=#D40C20;align=right;verticalAlign=top;strokeColor=#666666;horizontal=1;" parent="1" vertex="1">
          <mxGeometry x="1653" y="-50" width="220" height="100" as="geometry" />
        </mxCell>
        <mxCell id="oO1IpqutuhY_mgt90Hi0-179" value="Flexbox" style="strokeWidth=1;shadow=0;dashed=0;align=center;html=1;shape=mxgraph.mockup.text.callout;linkText=;textSize=17;textColor=#666666;callDir=NE;callStyle=line;fontSize=30;fontColor=#D40C20;align=right;verticalAlign=top;strokeColor=#666666;horizontal=1;" parent="1" vertex="1">
          <mxGeometry x="1613" y="320" width="220" height="100" as="geometry" />
        </mxCell>
        <mxCell id="oO1IpqutuhY_mgt90Hi0-180" value="Link&lt;br&gt;Home" style="strokeWidth=1;shadow=0;dashed=0;align=center;html=1;shape=mxgraph.mockup.text.callout;linkText=;textSize=17;textColor=#666666;callDir=SW;callStyle=line;fontSize=30;fontColor=#D40C20;align=left;verticalAlign=bottom;strokeColor=#666666;" parent="1" vertex="1">
          <mxGeometry x="-217" y="320" width="310" height="120" as="geometry" />
        </mxCell>
        <mxCell id="oO1IpqutuhY_mgt90Hi0-181" value="Link&lt;br&gt;to Article" style="strokeWidth=1;shadow=0;dashed=0;align=center;html=1;shape=mxgraph.mockup.text.callout;linkText=;textSize=17;textColor=#666666;callDir=SW;callStyle=line;fontSize=30;fontColor=#D40C20;align=left;verticalAlign=bottom;strokeColor=#666666;" parent="1" vertex="1">
          <mxGeometry x="-257" y="660" width="290" height="120" as="geometry" />
        </mxCell>
        <mxCell id="oO1IpqutuhY_mgt90Hi0-182" value="" style="strokeWidth=1;shadow=0;dashed=0;align=center;html=1;shape=mxgraph.mockup.containers.browserWindow;rSize=0;strokeColor=#666666;strokeColor2=#008cff;strokeColor3=#c4c4c4;mainText=,;recursiveResize=0;fontSize=30;fontStyle=4" parent="1" vertex="1">
          <mxGeometry x="-30" y="1490" width="430" height="860" as="geometry" />
        </mxCell>
        <mxCell id="oO1IpqutuhY_mgt90Hi0-183" value="News Daily" style="strokeWidth=1;shadow=0;dashed=0;align=center;html=1;shape=mxgraph.mockup.containers.anchor;fontSize=17;fontColor=#666666;align=left;whiteSpace=wrap;" parent="oO1IpqutuhY_mgt90Hi0-182" vertex="1">
          <mxGeometry x="60" y="12" width="110" height="26" as="geometry" />
        </mxCell>
        <mxCell id="oO1IpqutuhY_mgt90Hi0-184" value="127.0.0.1:5173/login" style="strokeWidth=1;shadow=0;dashed=0;align=center;html=1;shape=mxgraph.mockup.containers.anchor;rSize=0;fontSize=17;fontColor=#666666;align=left;" parent="oO1IpqutuhY_mgt90Hi0-182" vertex="1">
          <mxGeometry x="130" y="60" width="250" height="26" as="geometry" />
        </mxCell>
        <mxCell id="oO1IpqutuhY_mgt90Hi0-185" value="" style="shape=mxgraph.mockup.containers.marginRect;rectMarginTop=10;strokeColor=#666666;strokeWidth=1;dashed=0;rounded=1;arcSize=5;recursiveResize=0;html=1;whiteSpace=wrap;" parent="oO1IpqutuhY_mgt90Hi0-182" vertex="1">
          <mxGeometry x="30" y="130" width="370" height="220" as="geometry" />
        </mxCell>
        <mxCell id="oO1IpqutuhY_mgt90Hi0-186" value="NavBar" style="shape=rect;strokeColor=none;fillColor=#008cff;strokeWidth=1;dashed=0;rounded=1;arcSize=20;fontColor=#ffffff;fontSize=17;spacing=2;spacingTop=-2;align=left;autosize=1;spacingLeft=4;resizeWidth=0;resizeHeight=0;perimeter=none;html=1;whiteSpace=wrap;" parent="oO1IpqutuhY_mgt90Hi0-185" vertex="1">
          <mxGeometry x="5" width="80" height="30" as="geometry" />
        </mxCell>
        <mxCell id="oO1IpqutuhY_mgt90Hi0-190" value="" style="shape=mxgraph.mockup.containers.marginRect;rectMarginTop=10;strokeColor=#666666;strokeWidth=1;dashed=0;rounded=1;arcSize=5;recursiveResize=0;html=1;whiteSpace=wrap;" parent="oO1IpqutuhY_mgt90Hi0-185" vertex="1">
          <mxGeometry x="20" y="50" width="310" height="140" as="geometry" />
        </mxCell>
        <mxCell id="oO1IpqutuhY_mgt90Hi0-191" value="TitleBar" style="shape=rect;strokeColor=none;fillColor=#008cff;strokeWidth=1;dashed=0;rounded=1;arcSize=20;fontColor=#ffffff;fontSize=17;spacing=2;spacingTop=-2;align=left;autosize=1;spacingLeft=4;resizeWidth=0;resizeHeight=0;perimeter=none;html=1;whiteSpace=wrap;" parent="oO1IpqutuhY_mgt90Hi0-190" vertex="1">
          <mxGeometry x="5" width="80" height="30" as="geometry" />
        </mxCell>
        <mxCell id="oO1IpqutuhY_mgt90Hi0-192" value="WebsiteTitle" style="text;strokeColor=none;fillColor=none;html=1;fontSize=40;fontStyle=1;verticalAlign=middle;align=center;" parent="oO1IpqutuhY_mgt90Hi0-190" vertex="1">
          <mxGeometry x="85" y="45" width="160" height="50" as="geometry" />
        </mxCell>
        <mxCell id="oO1IpqutuhY_mgt90Hi0-196" value="" style="shape=mxgraph.mockup.containers.marginRect;rectMarginTop=10;strokeColor=#666666;strokeWidth=1;dashed=0;rounded=1;arcSize=5;recursiveResize=0;html=1;whiteSpace=wrap;" parent="oO1IpqutuhY_mgt90Hi0-182" vertex="1">
          <mxGeometry x="30" y="380" width="370" height="460" as="geometry" />
        </mxCell>
        <mxCell id="oO1IpqutuhY_mgt90Hi0-197" value="UserList" style="shape=rect;strokeColor=none;fillColor=#008cff;strokeWidth=1;dashed=0;rounded=1;arcSize=20;fontColor=#ffffff;fontSize=17;spacing=2;spacingTop=-2;align=left;autosize=1;spacingLeft=4;resizeWidth=0;resizeHeight=0;perimeter=none;html=1;whiteSpace=wrap;" parent="oO1IpqutuhY_mgt90Hi0-196" vertex="1">
          <mxGeometry x="5" width="90" height="30" as="geometry" />
        </mxCell>
        <mxCell id="oO1IpqutuhY_mgt90Hi0-259" value="ChooseUser/&lt;br style=&quot;font-size: 30px;&quot;&gt;SwitchUser" style="text;strokeColor=none;fillColor=none;html=1;fontSize=30;fontStyle=1;verticalAlign=middle;align=center;" parent="oO1IpqutuhY_mgt90Hi0-196" vertex="1">
          <mxGeometry x="112.5" y="30" width="145" height="70" as="geometry" />
        </mxCell>
        <mxCell id="HvcPI_E8XcnlEceZRkLn-122" value="" style="shape=mxgraph.mockup.containers.marginRect;rectMarginTop=10;strokeColor=#666666;strokeWidth=1;dashed=0;rounded=1;arcSize=5;recursiveResize=0;html=1;whiteSpace=wrap;" parent="oO1IpqutuhY_mgt90Hi0-196" vertex="1">
          <mxGeometry x="35" y="110" width="300" height="160" as="geometry" />
        </mxCell>
        <mxCell id="HvcPI_E8XcnlEceZRkLn-123" value="UserCard" style="shape=rect;strokeColor=none;fillColor=#008cff;strokeWidth=1;dashed=0;rounded=1;arcSize=20;fontColor=#ffffff;fontSize=17;spacing=2;spacingTop=-2;align=left;autosize=1;spacingLeft=4;resizeWidth=0;resizeHeight=0;perimeter=none;html=1;whiteSpace=wrap;" parent="HvcPI_E8XcnlEceZRkLn-122" vertex="1">
          <mxGeometry x="5" width="100" height="30" as="geometry" />
        </mxCell>
        <mxCell id="HvcPI_E8XcnlEceZRkLn-124" value="User Name" style="text;strokeColor=none;fillColor=none;html=1;fontSize=25;fontStyle=1;verticalAlign=middle;align=center;" parent="HvcPI_E8XcnlEceZRkLn-122" vertex="1">
          <mxGeometry x="140" y="65" width="160" height="50" as="geometry" />
        </mxCell>
        <mxCell id="HvcPI_E8XcnlEceZRkLn-125" value="" style="verticalLabelPosition=bottom;shadow=0;dashed=0;align=center;html=1;verticalAlign=top;strokeWidth=1;shape=mxgraph.mockup.containers.userFemale;strokeColor=#666666;strokeColor2=#008cff;" parent="HvcPI_E8XcnlEceZRkLn-122" vertex="1">
          <mxGeometry x="20" y="40" width="100" height="100" as="geometry" />
        </mxCell>
        <mxCell id="HvcPI_E8XcnlEceZRkLn-118" value="" style="shape=mxgraph.mockup.containers.marginRect;rectMarginTop=10;strokeColor=#666666;strokeWidth=1;dashed=0;rounded=1;arcSize=5;recursiveResize=0;html=1;whiteSpace=wrap;" parent="oO1IpqutuhY_mgt90Hi0-196" vertex="1">
          <mxGeometry x="35" y="280" width="300" height="160" as="geometry" />
        </mxCell>
        <mxCell id="HvcPI_E8XcnlEceZRkLn-119" value="UserCard" style="shape=rect;strokeColor=none;fillColor=#008cff;strokeWidth=1;dashed=0;rounded=1;arcSize=20;fontColor=#ffffff;fontSize=17;spacing=2;spacingTop=-2;align=left;autosize=1;spacingLeft=4;resizeWidth=0;resizeHeight=0;perimeter=none;html=1;whiteSpace=wrap;" parent="HvcPI_E8XcnlEceZRkLn-118" vertex="1">
          <mxGeometry x="5" width="100" height="30" as="geometry" />
        </mxCell>
        <mxCell id="HvcPI_E8XcnlEceZRkLn-120" value="User Name" style="text;strokeColor=none;fillColor=none;html=1;fontSize=25;fontStyle=1;verticalAlign=middle;align=center;" parent="HvcPI_E8XcnlEceZRkLn-118" vertex="1">
          <mxGeometry x="140" y="65" width="160" height="50" as="geometry" />
        </mxCell>
        <mxCell id="HvcPI_E8XcnlEceZRkLn-121" value="" style="verticalLabelPosition=bottom;shadow=0;dashed=0;align=center;html=1;verticalAlign=top;strokeWidth=1;shape=mxgraph.mockup.containers.userFemale;strokeColor=#666666;strokeColor2=#008cff;" parent="HvcPI_E8XcnlEceZRkLn-118" vertex="1">
          <mxGeometry x="20" y="40" width="100" height="100" as="geometry" />
        </mxCell>
        <mxCell id="oO1IpqutuhY_mgt90Hi0-216" value="" style="strokeWidth=1;shadow=0;dashed=0;align=center;html=1;shape=mxgraph.mockup.containers.browserWindow;rSize=0;strokeColor=#666666;strokeColor2=#008cff;strokeColor3=#c4c4c4;mainText=,;recursiveResize=0;fontSize=30;" parent="1" vertex="1">
          <mxGeometry x="430" y="1490" width="1300" height="970" as="geometry" />
        </mxCell>
        <mxCell id="oO1IpqutuhY_mgt90Hi0-217" value="News Daily" style="strokeWidth=1;shadow=0;dashed=0;align=center;html=1;shape=mxgraph.mockup.containers.anchor;fontSize=17;fontColor=#666666;align=left;whiteSpace=wrap;" parent="oO1IpqutuhY_mgt90Hi0-216" vertex="1">
          <mxGeometry x="60" y="12" width="110" height="26" as="geometry" />
        </mxCell>
        <mxCell id="oO1IpqutuhY_mgt90Hi0-218" value="127.0.0.1:5173/login" style="strokeWidth=1;shadow=0;dashed=0;align=center;html=1;shape=mxgraph.mockup.containers.anchor;rSize=0;fontSize=17;fontColor=#666666;align=left;" parent="oO1IpqutuhY_mgt90Hi0-216" vertex="1">
          <mxGeometry x="130" y="60" width="250" height="26" as="geometry" />
        </mxCell>
        <mxCell id="oO1IpqutuhY_mgt90Hi0-219" value="" style="shape=mxgraph.mockup.containers.marginRect;rectMarginTop=10;strokeColor=#666666;strokeWidth=1;dashed=0;rounded=1;arcSize=5;recursiveResize=0;html=1;whiteSpace=wrap;" parent="oO1IpqutuhY_mgt90Hi0-216" vertex="1">
          <mxGeometry x="20" y="330" width="1240" height="620" as="geometry" />
        </mxCell>
        <mxCell id="oO1IpqutuhY_mgt90Hi0-220" value="UserList" style="shape=rect;strokeColor=none;fillColor=#008cff;strokeWidth=1;dashed=0;rounded=1;arcSize=20;fontColor=#ffffff;fontSize=17;spacing=2;spacingTop=-2;align=left;autosize=1;spacingLeft=4;resizeWidth=0;resizeHeight=0;perimeter=none;html=1;whiteSpace=wrap;" parent="oO1IpqutuhY_mgt90Hi0-219" vertex="1">
          <mxGeometry x="5" width="90" height="30" as="geometry" />
        </mxCell>
        <mxCell id="oO1IpqutuhY_mgt90Hi0-272" value="ChooseUser/SwitchUser" style="text;strokeColor=none;fillColor=none;html=1;fontSize=40;fontStyle=1;verticalAlign=middle;align=center;" parent="oO1IpqutuhY_mgt90Hi0-219" vertex="1">
          <mxGeometry x="540" y="50" width="160" height="50" as="geometry" />
        </mxCell>
        <mxCell id="HvcPI_E8XcnlEceZRkLn-134" value="" style="shape=mxgraph.mockup.containers.marginRect;rectMarginTop=10;strokeColor=#666666;strokeWidth=1;dashed=0;rounded=1;arcSize=5;recursiveResize=0;html=1;whiteSpace=wrap;" parent="oO1IpqutuhY_mgt90Hi0-219" vertex="1">
          <mxGeometry x="470" y="102" width="300" height="160" as="geometry" />
        </mxCell>
        <mxCell id="HvcPI_E8XcnlEceZRkLn-135" value="UserCard" style="shape=rect;strokeColor=none;fillColor=#008cff;strokeWidth=1;dashed=0;rounded=1;arcSize=20;fontColor=#ffffff;fontSize=17;spacing=2;spacingTop=-2;align=left;autosize=1;spacingLeft=4;resizeWidth=0;resizeHeight=0;perimeter=none;html=1;whiteSpace=wrap;" parent="HvcPI_E8XcnlEceZRkLn-134" vertex="1">
          <mxGeometry x="5" width="100" height="30" as="geometry" />
        </mxCell>
        <mxCell id="HvcPI_E8XcnlEceZRkLn-136" value="User Name" style="text;strokeColor=none;fillColor=none;html=1;fontSize=25;fontStyle=1;verticalAlign=middle;align=center;" parent="HvcPI_E8XcnlEceZRkLn-134" vertex="1">
          <mxGeometry x="140" y="65" width="160" height="50" as="geometry" />
        </mxCell>
        <mxCell id="HvcPI_E8XcnlEceZRkLn-137" value="" style="verticalLabelPosition=bottom;shadow=0;dashed=0;align=center;html=1;verticalAlign=top;strokeWidth=1;shape=mxgraph.mockup.containers.userFemale;strokeColor=#666666;strokeColor2=#008cff;" parent="HvcPI_E8XcnlEceZRkLn-134" vertex="1">
          <mxGeometry x="20" y="40" width="100" height="100" as="geometry" />
        </mxCell>
        <mxCell id="HvcPI_E8XcnlEceZRkLn-130" value="" style="shape=mxgraph.mockup.containers.marginRect;rectMarginTop=10;strokeColor=#666666;strokeWidth=1;dashed=0;rounded=1;arcSize=5;recursiveResize=0;html=1;whiteSpace=wrap;" parent="oO1IpqutuhY_mgt90Hi0-219" vertex="1">
          <mxGeometry x="470" y="270" width="300" height="160" as="geometry" />
        </mxCell>
        <mxCell id="HvcPI_E8XcnlEceZRkLn-131" value="UserCard" style="shape=rect;strokeColor=none;fillColor=#008cff;strokeWidth=1;dashed=0;rounded=1;arcSize=20;fontColor=#ffffff;fontSize=17;spacing=2;spacingTop=-2;align=left;autosize=1;spacingLeft=4;resizeWidth=0;resizeHeight=0;perimeter=none;html=1;whiteSpace=wrap;" parent="HvcPI_E8XcnlEceZRkLn-130" vertex="1">
          <mxGeometry x="5" width="100" height="30" as="geometry" />
        </mxCell>
        <mxCell id="HvcPI_E8XcnlEceZRkLn-132" value="User Name" style="text;strokeColor=none;fillColor=none;html=1;fontSize=25;fontStyle=1;verticalAlign=middle;align=center;" parent="HvcPI_E8XcnlEceZRkLn-130" vertex="1">
          <mxGeometry x="140" y="65" width="160" height="50" as="geometry" />
        </mxCell>
        <mxCell id="HvcPI_E8XcnlEceZRkLn-133" value="" style="verticalLabelPosition=bottom;shadow=0;dashed=0;align=center;html=1;verticalAlign=top;strokeWidth=1;shape=mxgraph.mockup.containers.userFemale;strokeColor=#666666;strokeColor2=#008cff;" parent="HvcPI_E8XcnlEceZRkLn-130" vertex="1">
          <mxGeometry x="20" y="40" width="100" height="100" as="geometry" />
        </mxCell>
        <mxCell id="HvcPI_E8XcnlEceZRkLn-126" value="" style="shape=mxgraph.mockup.containers.marginRect;rectMarginTop=10;strokeColor=#666666;strokeWidth=1;dashed=0;rounded=1;arcSize=5;recursiveResize=0;html=1;whiteSpace=wrap;" parent="oO1IpqutuhY_mgt90Hi0-219" vertex="1">
          <mxGeometry x="470" y="440" width="300" height="160" as="geometry" />
        </mxCell>
        <mxCell id="HvcPI_E8XcnlEceZRkLn-127" value="UserCard" style="shape=rect;strokeColor=none;fillColor=#008cff;strokeWidth=1;dashed=0;rounded=1;arcSize=20;fontColor=#ffffff;fontSize=17;spacing=2;spacingTop=-2;align=left;autosize=1;spacingLeft=4;resizeWidth=0;resizeHeight=0;perimeter=none;html=1;whiteSpace=wrap;" parent="HvcPI_E8XcnlEceZRkLn-126" vertex="1">
          <mxGeometry x="5" width="100" height="30" as="geometry" />
        </mxCell>
        <mxCell id="HvcPI_E8XcnlEceZRkLn-128" value="User Name" style="text;strokeColor=none;fillColor=none;html=1;fontSize=25;fontStyle=1;verticalAlign=middle;align=center;" parent="HvcPI_E8XcnlEceZRkLn-126" vertex="1">
          <mxGeometry x="140" y="65" width="160" height="50" as="geometry" />
        </mxCell>
        <mxCell id="HvcPI_E8XcnlEceZRkLn-129" value="" style="verticalLabelPosition=bottom;shadow=0;dashed=0;align=center;html=1;verticalAlign=top;strokeWidth=1;shape=mxgraph.mockup.containers.userFemale;strokeColor=#666666;strokeColor2=#008cff;" parent="HvcPI_E8XcnlEceZRkLn-126" vertex="1">
          <mxGeometry x="20" y="40" width="100" height="100" as="geometry" />
        </mxCell>
        <mxCell id="oO1IpqutuhY_mgt90Hi0-248" value="" style="shape=mxgraph.mockup.containers.marginRect;rectMarginTop=10;strokeColor=#666666;strokeWidth=1;dashed=0;rounded=1;arcSize=5;recursiveResize=0;html=1;whiteSpace=wrap;" parent="oO1IpqutuhY_mgt90Hi0-216" vertex="1">
          <mxGeometry x="20" y="120" width="1240" height="200" as="geometry" />
        </mxCell>
        <mxCell id="oO1IpqutuhY_mgt90Hi0-249" value="NavBar" style="shape=rect;strokeColor=none;fillColor=#008cff;strokeWidth=1;dashed=0;rounded=1;arcSize=20;fontColor=#ffffff;fontSize=17;spacing=2;spacingTop=-2;align=left;autosize=1;spacingLeft=4;resizeWidth=0;resizeHeight=0;perimeter=none;html=1;whiteSpace=wrap;" parent="oO1IpqutuhY_mgt90Hi0-248" vertex="1">
          <mxGeometry x="5" width="80" height="30" as="geometry" />
        </mxCell>
        <mxCell id="oO1IpqutuhY_mgt90Hi0-253" value="" style="shape=mxgraph.mockup.containers.marginRect;rectMarginTop=10;strokeColor=#666666;strokeWidth=1;dashed=0;rounded=1;arcSize=5;recursiveResize=0;html=1;whiteSpace=wrap;" parent="oO1IpqutuhY_mgt90Hi0-248" vertex="1">
          <mxGeometry x="30" y="35" width="1180" height="140" as="geometry" />
        </mxCell>
        <mxCell id="oO1IpqutuhY_mgt90Hi0-254" value="TitleBar" style="shape=rect;strokeColor=none;fillColor=#008cff;strokeWidth=1;dashed=0;rounded=1;arcSize=20;fontColor=#ffffff;fontSize=17;spacing=2;spacingTop=-2;align=left;autosize=1;spacingLeft=4;resizeWidth=0;resizeHeight=0;perimeter=none;html=1;whiteSpace=wrap;" parent="oO1IpqutuhY_mgt90Hi0-253" vertex="1">
          <mxGeometry x="5" width="80" height="30" as="geometry" />
        </mxCell>
        <mxCell id="oO1IpqutuhY_mgt90Hi0-255" value="WebsiteTitle" style="text;strokeColor=none;fillColor=none;html=1;fontSize=40;fontStyle=1;verticalAlign=middle;align=center;labelBorderColor=none;" parent="oO1IpqutuhY_mgt90Hi0-253" vertex="1">
          <mxGeometry x="510" y="45" width="160" height="50" as="geometry" />
        </mxCell>
        <mxCell id="oO1IpqutuhY_mgt90Hi0-317" value="const [currentUser, setcurrentUser]&amp;nbsp; = useState(&quot;&quot;) - GLOBAL CONTEXT" style="text;strokeColor=none;fillColor=none;html=1;fontSize=30;fontStyle=1;verticalAlign=middle;align=center;fontColor=#007A00;" parent="1" vertex="1">
          <mxGeometry x="2400" y="-2020" width="160" height="50" as="geometry" />
        </mxCell>
        <mxCell id="oO1IpqutuhY_mgt90Hi0-318" value="AFFECTS&lt;br&gt;*Home link on Website Title&lt;br&gt;*title in UserList&lt;br&gt;*disabled UserCard in UserList&lt;br&gt;*DeleteComment button visibility&lt;br&gt;*HeartButton availability&lt;br&gt;*CategoriesPane visibility&lt;br style=&quot;border-color: var(--border-color);&quot;&gt;*Avatar visibility&lt;br&gt;*= username in POST requests" style="text;strokeColor=none;fillColor=none;html=1;fontSize=30;fontStyle=2;verticalAlign=middle;align=center;fontColor=#007A00;" parent="1" vertex="1">
          <mxGeometry x="2350" y="-1840" width="160" height="50" as="geometry" />
        </mxCell>
        <mxCell id="oO1IpqutuhY_mgt90Hi0-358" value="" style="strokeWidth=1;shadow=0;dashed=0;align=center;html=1;shape=mxgraph.mockup.containers.browserWindow;rSize=0;strokeColor=#666666;strokeColor2=#008cff;strokeColor3=#c4c4c4;mainText=,;recursiveResize=0;fontSize=30;fontStyle=4" parent="1" vertex="1">
          <mxGeometry x="-60" y="-2220" width="430" height="2030" as="geometry" />
        </mxCell>
        <mxCell id="oO1IpqutuhY_mgt90Hi0-359" value="News Daily" style="strokeWidth=1;shadow=0;dashed=0;align=center;html=1;shape=mxgraph.mockup.containers.anchor;fontSize=17;fontColor=#666666;align=left;whiteSpace=wrap;" parent="oO1IpqutuhY_mgt90Hi0-358" vertex="1">
          <mxGeometry x="60" y="12" width="110" height="26" as="geometry" />
        </mxCell>
        <mxCell id="oO1IpqutuhY_mgt90Hi0-360" value="127.0.0.1:5173/articles/:id?page=1" style="strokeWidth=1;shadow=0;dashed=0;align=center;html=1;shape=mxgraph.mockup.containers.anchor;rSize=0;fontSize=17;fontColor=#666666;align=left;" parent="oO1IpqutuhY_mgt90Hi0-358" vertex="1">
          <mxGeometry x="130" y="60" width="250" height="26" as="geometry" />
        </mxCell>
        <mxCell id="oO1IpqutuhY_mgt90Hi0-361" value="" style="shape=mxgraph.mockup.containers.marginRect;rectMarginTop=10;strokeColor=#666666;strokeWidth=1;dashed=0;rounded=1;arcSize=5;recursiveResize=0;html=1;whiteSpace=wrap;" parent="oO1IpqutuhY_mgt90Hi0-358" vertex="1">
          <mxGeometry x="30" y="130" width="370" height="370" as="geometry" />
        </mxCell>
        <mxCell id="oO1IpqutuhY_mgt90Hi0-362" value="NavBar" style="shape=rect;strokeColor=none;fillColor=#008cff;strokeWidth=1;dashed=0;rounded=1;arcSize=20;fontColor=#ffffff;fontSize=17;spacing=2;spacingTop=-2;align=left;autosize=1;spacingLeft=4;resizeWidth=0;resizeHeight=0;perimeter=none;html=1;whiteSpace=wrap;" parent="oO1IpqutuhY_mgt90Hi0-361" vertex="1">
          <mxGeometry x="5" width="80" height="30" as="geometry" />
        </mxCell>
        <mxCell id="oO1IpqutuhY_mgt90Hi0-363" value="" style="shape=mxgraph.mockup.containers.marginRect;rectMarginTop=10;strokeColor=#666666;strokeWidth=1;dashed=0;rounded=1;arcSize=5;recursiveResize=0;html=1;whiteSpace=wrap;" parent="oO1IpqutuhY_mgt90Hi0-361" vertex="1">
          <mxGeometry x="30" y="35" width="132.86" height="135" as="geometry" />
        </mxCell>
        <mxCell id="oO1IpqutuhY_mgt90Hi0-364" value="CategoriesPane" style="shape=rect;strokeColor=none;fillColor=#008cff;strokeWidth=1;dashed=0;rounded=1;arcSize=20;fontColor=#ffffff;fontSize=17;spacing=2;spacingTop=-2;align=left;autosize=1;spacingLeft=4;resizeWidth=0;resizeHeight=0;perimeter=none;html=1;whiteSpace=wrap;" parent="oO1IpqutuhY_mgt90Hi0-363" vertex="1">
          <mxGeometry x="5" width="150" height="30" as="geometry" />
        </mxCell>
        <mxCell id="oO1IpqutuhY_mgt90Hi0-365" value="" style="shape=image;html=1;verticalAlign=top;verticalLabelPosition=bottom;labelBackgroundColor=#ffffff;imageAspect=0;aspect=fixed;image=https://cdn4.iconfinder.com/data/icons/flat-black/128/menu.png" parent="oO1IpqutuhY_mgt90Hi0-363" vertex="1">
          <mxGeometry x="11.43" y="20" width="110" height="110" as="geometry" />
        </mxCell>
        <mxCell id="oO1IpqutuhY_mgt90Hi0-366" value="" style="shape=mxgraph.mockup.containers.marginRect;rectMarginTop=10;strokeColor=#666666;strokeWidth=1;dashed=0;rounded=1;arcSize=5;recursiveResize=0;html=1;whiteSpace=wrap;" parent="oO1IpqutuhY_mgt90Hi0-361" vertex="1">
          <mxGeometry x="30" y="200" width="310" height="140" as="geometry" />
        </mxCell>
        <mxCell id="oO1IpqutuhY_mgt90Hi0-367" value="TitleBar" style="shape=rect;strokeColor=none;fillColor=#008cff;strokeWidth=1;dashed=0;rounded=1;arcSize=20;fontColor=#ffffff;fontSize=17;spacing=2;spacingTop=-2;align=left;autosize=1;spacingLeft=4;resizeWidth=0;resizeHeight=0;perimeter=none;html=1;whiteSpace=wrap;" parent="oO1IpqutuhY_mgt90Hi0-366" vertex="1">
          <mxGeometry x="5" width="80" height="30" as="geometry" />
        </mxCell>
        <mxCell id="oO1IpqutuhY_mgt90Hi0-368" value="WebsiteTitle" style="text;strokeColor=none;fillColor=none;html=1;fontSize=40;fontStyle=5;verticalAlign=middle;align=center;" parent="oO1IpqutuhY_mgt90Hi0-366" vertex="1">
          <mxGeometry x="85" y="45" width="160" height="50" as="geometry" />
        </mxCell>
        <mxCell id="oO1IpqutuhY_mgt90Hi0-369" value="" style="shape=mxgraph.mockup.containers.marginRect;rectMarginTop=10;strokeColor=#666666;strokeWidth=1;dashed=0;rounded=1;arcSize=5;recursiveResize=0;html=1;whiteSpace=wrap;" parent="oO1IpqutuhY_mgt90Hi0-361" vertex="1">
          <mxGeometry x="210" y="35" width="130" height="140" as="geometry" />
        </mxCell>
        <mxCell id="oO1IpqutuhY_mgt90Hi0-370" value="Avatar" style="shape=rect;strokeColor=none;fillColor=#008cff;strokeWidth=1;dashed=0;rounded=1;arcSize=20;fontColor=#ffffff;fontSize=17;spacing=2;spacingTop=-2;align=left;autosize=1;spacingLeft=4;resizeWidth=0;resizeHeight=0;perimeter=none;html=1;whiteSpace=wrap;" parent="oO1IpqutuhY_mgt90Hi0-369" vertex="1">
          <mxGeometry x="5" width="70" height="30" as="geometry" />
        </mxCell>
        <mxCell id="oO1IpqutuhY_mgt90Hi0-371" value="" style="verticalLabelPosition=bottom;shadow=0;dashed=0;align=center;html=1;verticalAlign=top;strokeWidth=1;shape=mxgraph.mockup.containers.userFemale;strokeColor=#666666;strokeColor2=#008cff;" parent="oO1IpqutuhY_mgt90Hi0-369" vertex="1">
          <mxGeometry x="27.5" y="30" width="75" height="65" as="geometry" />
        </mxCell>
        <mxCell id="oO1IpqutuhY_mgt90Hi0-372" value="Log Out" style="text;strokeColor=none;fillColor=none;html=1;fontSize=20;fontStyle=0;verticalAlign=middle;align=center;" parent="oO1IpqutuhY_mgt90Hi0-369" vertex="1">
          <mxGeometry x="5" y="105" width="110" height="30" as="geometry" />
        </mxCell>
        <mxCell id="oO1IpqutuhY_mgt90Hi0-384" value="" style="shape=mxgraph.mockup.containers.marginRect;rectMarginTop=10;strokeColor=#666666;strokeWidth=1;dashed=0;rounded=1;arcSize=5;recursiveResize=0;html=1;whiteSpace=wrap;" parent="oO1IpqutuhY_mgt90Hi0-358" vertex="1">
          <mxGeometry x="57.5" y="560" width="315" height="580" as="geometry" />
        </mxCell>
        <mxCell id="oO1IpqutuhY_mgt90Hi0-385" value="Post" style="shape=rect;strokeColor=none;fillColor=#008cff;strokeWidth=1;dashed=0;rounded=1;arcSize=20;fontColor=#ffffff;fontSize=17;spacing=2;spacingTop=-2;align=left;autosize=1;spacingLeft=4;resizeWidth=0;resizeHeight=0;perimeter=none;html=1;whiteSpace=wrap;" parent="oO1IpqutuhY_mgt90Hi0-384" vertex="1">
          <mxGeometry x="5" width="60" height="30" as="geometry" />
        </mxCell>
        <mxCell id="oO1IpqutuhY_mgt90Hi0-386" value="YYYY-MM-DD" style="text;strokeColor=none;fillColor=none;html=1;fontSize=25;fontStyle=0;verticalAlign=middle;align=center;" parent="oO1IpqutuhY_mgt90Hi0-384" vertex="1">
          <mxGeometry x="77.5" y="510" width="160" height="50" as="geometry" />
        </mxCell>
        <mxCell id="oO1IpqutuhY_mgt90Hi0-387" value="ArticleTitle" style="text;strokeColor=none;fillColor=none;html=1;fontSize=40;fontStyle=1;verticalAlign=middle;align=center;" parent="oO1IpqutuhY_mgt90Hi0-384" vertex="1">
          <mxGeometry x="85.62" y="90" width="160" height="50" as="geometry" />
        </mxCell>
        <mxCell id="oO1IpqutuhY_mgt90Hi0-388" value="by Author" style="text;strokeColor=none;fillColor=none;html=1;fontSize=30;fontStyle=2;verticalAlign=middle;align=center;" parent="oO1IpqutuhY_mgt90Hi0-384" vertex="1">
          <mxGeometry x="88.12" y="40" width="160" height="50" as="geometry" />
        </mxCell>
        <mxCell id="oO1IpqutuhY_mgt90Hi0-439" value="Lorem ipsum dolor sit amet, consectetur adipisicing elit, sed do eiusmod tempor incididunt ut labore et dolore magna aliqua. Ut enim ad minim veniam, quis nostrud exercitation ullamco laboris nisi ut aliquip ex ea commodo consequat.&amp;nbsp;" style="text;spacingTop=-5;whiteSpace=wrap;html=1;align=left;fontSize=20;fontFamily=Helvetica;fillColor=none;strokeColor=none;" parent="oO1IpqutuhY_mgt90Hi0-384" vertex="1">
          <mxGeometry x="29.999999999999996" y="250" width="276.25" height="240" as="geometry" />
        </mxCell>
        <mxCell id="HvcPI_E8XcnlEceZRkLn-144" value="" style="shape=mxgraph.mockup.containers.marginRect;rectMarginTop=10;strokeColor=#666666;strokeWidth=1;dashed=0;rounded=1;arcSize=5;recursiveResize=0;html=1;whiteSpace=wrap;" parent="oO1IpqutuhY_mgt90Hi0-384" vertex="1">
          <mxGeometry x="100.62000000000006" y="140" width="135" height="90" as="geometry" />
        </mxCell>
        <mxCell id="HvcPI_E8XcnlEceZRkLn-145" value="IconAndCount" style="shape=rect;strokeColor=none;fillColor=#008cff;strokeWidth=1;dashed=0;rounded=1;arcSize=20;fontColor=#ffffff;fontSize=17;spacing=2;spacingTop=-2;align=left;autosize=1;spacingLeft=4;resizeWidth=0;resizeHeight=0;perimeter=none;html=1;whiteSpace=wrap;" parent="HvcPI_E8XcnlEceZRkLn-144" vertex="1">
          <mxGeometry x="5" width="130" height="30" as="geometry" />
        </mxCell>
        <mxCell id="HvcPI_E8XcnlEceZRkLn-146" value="" style="shape=mxgraph.signs.healthcare.heart_2;html=1;pointerEvents=1;fillColor=#FF0080;strokeColor=none;verticalLabelPosition=bottom;verticalAlign=top;align=center;sketch=0;fontColor=#ff0000;" parent="HvcPI_E8XcnlEceZRkLn-144" vertex="1">
          <mxGeometry x="20" y="33" width="40" height="40" as="geometry" />
        </mxCell>
        <mxCell id="HvcPI_E8XcnlEceZRkLn-147" value="15" style="text;strokeColor=none;fillColor=none;html=1;fontSize=25;fontStyle=0;verticalAlign=middle;align=center;" parent="HvcPI_E8XcnlEceZRkLn-144" vertex="1">
          <mxGeometry x="50" y="28" width="70" height="50" as="geometry" />
        </mxCell>
        <mxCell id="oO1IpqutuhY_mgt90Hi0-451" value="" style="shape=mxgraph.mockup.containers.marginRect;rectMarginTop=10;strokeColor=#666666;strokeWidth=1;dashed=0;rounded=1;arcSize=5;recursiveResize=0;html=1;whiteSpace=wrap;" parent="oO1IpqutuhY_mgt90Hi0-358" vertex="1">
          <mxGeometry x="57.5" y="1410" width="312.5" height="550" as="geometry" />
        </mxCell>
        <mxCell id="oO1IpqutuhY_mgt90Hi0-452" value="Paginator" style="shape=rect;strokeColor=none;fillColor=#008cff;strokeWidth=1;dashed=0;rounded=1;arcSize=20;fontColor=#ffffff;fontSize=17;spacing=2;spacingTop=-2;align=left;autosize=1;spacingLeft=4;resizeWidth=0;resizeHeight=0;perimeter=none;html=1;whiteSpace=wrap;" parent="oO1IpqutuhY_mgt90Hi0-451" vertex="1">
          <mxGeometry x="5" width="100" height="30" as="geometry" />
        </mxCell>
        <mxCell id="oO1IpqutuhY_mgt90Hi0-477" value="" style="shape=mxgraph.mockup.containers.marginRect;rectMarginTop=10;strokeColor=#666666;strokeWidth=1;dashed=0;rounded=1;arcSize=5;recursiveResize=0;html=1;whiteSpace=wrap;" parent="oO1IpqutuhY_mgt90Hi0-451" vertex="1">
          <mxGeometry x="20" y="40" width="260" height="440" as="geometry" />
        </mxCell>
        <mxCell id="oO1IpqutuhY_mgt90Hi0-478" value="Post" style="shape=rect;strokeColor=none;fillColor=#008cff;strokeWidth=1;dashed=0;rounded=1;arcSize=20;fontColor=#ffffff;fontSize=17;spacing=2;spacingTop=-2;align=left;autosize=1;spacingLeft=4;resizeWidth=0;resizeHeight=0;perimeter=none;html=1;whiteSpace=wrap;" parent="oO1IpqutuhY_mgt90Hi0-477" vertex="1">
          <mxGeometry x="5" width="60" height="30" as="geometry" />
        </mxCell>
        <mxCell id="oO1IpqutuhY_mgt90Hi0-479" value="YYYY-MM-DD" style="text;strokeColor=none;fillColor=none;html=1;fontSize=25;fontStyle=0;verticalAlign=middle;align=center;" parent="oO1IpqutuhY_mgt90Hi0-477" vertex="1">
          <mxGeometry x="41.43" y="370" width="160" height="50" as="geometry" />
        </mxCell>
        <mxCell id="oO1IpqutuhY_mgt90Hi0-481" value="by Author" style="text;strokeColor=none;fillColor=none;html=1;fontSize=30;fontStyle=2;verticalAlign=middle;align=center;" parent="oO1IpqutuhY_mgt90Hi0-477" vertex="1">
          <mxGeometry x="41.43" y="50" width="160" height="50" as="geometry" />
        </mxCell>
        <mxCell id="oO1IpqutuhY_mgt90Hi0-484" value="Lorem ipsum dolor sit amet, consectetur adipisicing elit, sed do eiusmod tempor incididunt ut labore et dolore magna aliqua.&amp;nbsp;" style="text;spacingTop=-5;whiteSpace=wrap;html=1;align=left;fontSize=20;fontFamily=Helvetica;fillColor=none;strokeColor=none;" parent="oO1IpqutuhY_mgt90Hi0-477" vertex="1">
          <mxGeometry x="10" y="210" width="240" height="140" as="geometry" />
        </mxCell>
        <mxCell id="HvcPI_E8XcnlEceZRkLn-47" value="" style="shape=mxgraph.mockup.containers.marginRect;rectMarginTop=10;strokeColor=#666666;strokeWidth=1;dashed=0;rounded=1;arcSize=5;recursiveResize=0;html=1;whiteSpace=wrap;" parent="oO1IpqutuhY_mgt90Hi0-477" vertex="1">
          <mxGeometry x="47.68000000000011" y="100" width="135" height="90" as="geometry" />
        </mxCell>
        <mxCell id="HvcPI_E8XcnlEceZRkLn-48" value="IconAndCount" style="shape=rect;strokeColor=none;fillColor=#008cff;strokeWidth=1;dashed=0;rounded=1;arcSize=20;fontColor=#ffffff;fontSize=17;spacing=2;spacingTop=-2;align=left;autosize=1;spacingLeft=4;resizeWidth=0;resizeHeight=0;perimeter=none;html=1;whiteSpace=wrap;" parent="HvcPI_E8XcnlEceZRkLn-47" vertex="1">
          <mxGeometry x="5" width="130" height="30" as="geometry" />
        </mxCell>
        <mxCell id="HvcPI_E8XcnlEceZRkLn-49" value="" style="shape=mxgraph.signs.healthcare.heart_2;html=1;pointerEvents=1;fillColor=#FF0080;strokeColor=none;verticalLabelPosition=bottom;verticalAlign=top;align=center;sketch=0;fontColor=#ff0000;" parent="HvcPI_E8XcnlEceZRkLn-47" vertex="1">
          <mxGeometry x="20" y="33" width="40" height="40" as="geometry" />
        </mxCell>
        <mxCell id="HvcPI_E8XcnlEceZRkLn-50" value="15" style="text;strokeColor=none;fillColor=none;html=1;fontSize=25;fontStyle=0;verticalAlign=middle;align=center;" parent="HvcPI_E8XcnlEceZRkLn-47" vertex="1">
          <mxGeometry x="50" y="28" width="70" height="50" as="geometry" />
        </mxCell>
        <mxCell id="B4IMx2vGt0d6lZp3y3eG-8" value="&lt;&lt; Prev 1 2 3 4 5 6 7 8 9 10 Next &gt;&gt;" style="strokeWidth=1;shadow=0;dashed=0;align=center;html=1;shape=mxgraph.mockup.navigation.pagination;linkText=;fontSize=17;fontColor=#0000ff;fontStyle=4;" parent="oO1IpqutuhY_mgt90Hi0-451" vertex="1">
          <mxGeometry x="23.75" y="500" width="265" height="30" as="geometry" />
        </mxCell>
        <mxCell id="oO1IpqutuhY_mgt90Hi0-486" value="" style="shape=mxgraph.mockup.containers.marginRect;rectMarginTop=10;strokeColor=#666666;strokeWidth=1;dashed=0;rounded=1;arcSize=5;recursiveResize=0;html=1;whiteSpace=wrap;" parent="oO1IpqutuhY_mgt90Hi0-358" vertex="1">
          <mxGeometry x="57.5" y="1160" width="310" height="220" as="geometry" />
        </mxCell>
        <mxCell id="oO1IpqutuhY_mgt90Hi0-487" value="CommentForm" style="shape=rect;strokeColor=none;fillColor=#008cff;strokeWidth=1;dashed=0;rounded=1;arcSize=20;fontColor=#ffffff;fontSize=17;spacing=2;spacingTop=-2;align=left;autosize=1;spacingLeft=4;resizeWidth=0;resizeHeight=0;perimeter=none;html=1;whiteSpace=wrap;" parent="oO1IpqutuhY_mgt90Hi0-486" vertex="1">
          <mxGeometry x="5" width="140" height="30" as="geometry" />
        </mxCell>
        <mxCell id="oO1IpqutuhY_mgt90Hi0-488" value="Comment...." style="strokeWidth=1;shadow=0;dashed=0;align=center;html=1;shape=mxgraph.mockup.text.textBox;fontColor=#666666;align=left;fontSize=30;spacingLeft=4;spacingTop=-3;whiteSpace=wrap;strokeColor=#666666;mainText=" parent="oO1IpqutuhY_mgt90Hi0-486" vertex="1">
          <mxGeometry x="25" y="60" width="265" height="60" as="geometry" />
        </mxCell>
        <mxCell id="oO1IpqutuhY_mgt90Hi0-489" value="Submit Comment" style="strokeWidth=1;shadow=0;dashed=0;align=center;html=1;shape=mxgraph.mockup.buttons.button;strokeColor=#666666;fontColor=#ffffff;mainText=;buttonStyle=round;fontSize=17;fontStyle=1;fillColor=#008cff;whiteSpace=wrap;" parent="oO1IpqutuhY_mgt90Hi0-486" vertex="1">
          <mxGeometry x="140" y="150" width="150" height="50" as="geometry" />
        </mxCell>
        <mxCell id="HvcPI_E8XcnlEceZRkLn-290" value="" style="shape=mxgraph.mockup.containers.marginRect;rectMarginTop=10;strokeColor=#666666;strokeWidth=1;dashed=0;rounded=1;arcSize=5;recursiveResize=0;html=1;whiteSpace=wrap;fillColor=none;" parent="oO1IpqutuhY_mgt90Hi0-358" vertex="1">
          <mxGeometry x="33.75" y="520" width="360" height="1480" as="geometry" />
        </mxCell>
        <mxCell id="HvcPI_E8XcnlEceZRkLn-291" value="Article" style="shape=rect;strokeColor=none;fillColor=#008cff;strokeWidth=1;dashed=0;rounded=1;arcSize=20;fontColor=#ffffff;fontSize=17;spacing=2;spacingTop=-2;align=left;autosize=1;spacingLeft=4;resizeWidth=0;resizeHeight=0;perimeter=none;html=1;whiteSpace=wrap;" parent="HvcPI_E8XcnlEceZRkLn-290" vertex="1">
          <mxGeometry x="5" width="70" height="30" as="geometry" />
        </mxCell>
        <mxCell id="HvcPI_E8XcnlEceZRkLn-138" value="&lt;font style=&quot;font-size: 25px;&quot;&gt;OnClick available&lt;br&gt;if !currentUser&lt;/font&gt;" style="strokeWidth=1;shadow=0;dashed=0;align=center;html=1;shape=mxgraph.mockup.text.callout;linkText=;textSize=17;textColor=#666666;callDir=SW;callStyle=line;fontSize=17;fontColor=#D40C20;align=left;verticalAlign=bottom;strokeColor=#666666;" parent="1" vertex="1">
          <mxGeometry x="90" y="2280" width="150" height="160" as="geometry" />
        </mxCell>
        <mxCell id="HvcPI_E8XcnlEceZRkLn-139" value="not clickable &lt;br&gt;on ArticleCard" style="strokeWidth=1;shadow=0;dashed=0;align=center;html=1;shape=mxgraph.mockup.text.callout;linkText=;textSize=17;textColor=#666666;callDir=SE;callStyle=line;fontSize=25;fontColor=#D40C20;align=right;verticalAlign=bottom;strokeColor=#666666;" parent="1" vertex="1">
          <mxGeometry x="1393" y="1030" width="177" height="230" as="geometry" />
        </mxCell>
        <mxCell id="HvcPI_E8XcnlEceZRkLn-142" value="OnClick available&lt;br style=&quot;border-color: var(--border-color); text-align: left;&quot;&gt;&lt;span style=&quot;text-align: left;&quot;&gt;if Author !==currentUser&lt;br&gt;&lt;br&gt;count+=1&lt;br&gt;UseEffect axios.get&lt;br&gt;on load&lt;br&gt;&lt;/span&gt;" style="strokeWidth=1;shadow=0;dashed=0;align=center;html=1;shape=mxgraph.mockup.text.callout;linkText=;textSize=17;textColor=#666666;callDir=SE;callStyle=line;fontSize=25;fontColor=#D40C20;align=right;verticalAlign=bottom;strokeColor=#666666;" parent="1" vertex="1">
          <mxGeometry x="1530" y="-1720" width="460" height="40" as="geometry" />
        </mxCell>
        <mxCell id="HvcPI_E8XcnlEceZRkLn-143" value="CommentForm visible&lt;br style=&quot;border-color: var(--border-color); text-align: left;&quot;&gt;&lt;span style=&quot;text-align: left;&quot;&gt;if Author !==currentUser&lt;br&gt;Controlled Component&lt;br&gt;&lt;/span&gt;" style="strokeWidth=1;shadow=0;dashed=0;align=center;html=1;shape=mxgraph.mockup.text.callout;linkText=;textSize=17;textColor=#666666;callDir=SE;callStyle=line;fontSize=25;fontColor=#D40C20;align=right;verticalAlign=bottom;strokeColor=#666666;" parent="1" vertex="1">
          <mxGeometry x="1630" y="-1340" width="450" height="10" as="geometry" />
        </mxCell>
        <mxCell id="HvcPI_E8XcnlEceZRkLn-149" value="visible&lt;br style=&quot;border-color: var(--border-color); text-align: left;&quot;&gt;&lt;span style=&quot;text-align: left;&quot;&gt;if Author !==currentUser&lt;/span&gt;" style="strokeWidth=1;shadow=0;dashed=0;align=center;html=1;shape=mxgraph.mockup.text.callout;linkText=;textSize=17;textColor=#666666;callDir=SE;callStyle=line;fontSize=25;fontColor=#D40C20;align=right;verticalAlign=bottom;strokeColor=#666666;" parent="1" vertex="1">
          <mxGeometry x="590" y="-520" width="220" height="310" as="geometry" />
        </mxCell>
        <mxCell id="HvcPI_E8XcnlEceZRkLn-106" value="First and only page&lt;br&gt;accessible if currentUser = &quot;&quot;" style="strokeWidth=1;shadow=0;dashed=0;align=center;html=1;shape=mxgraph.mockup.text.callout;linkText=;textSize=17;textColor=#666666;callDir=NE;callStyle=line;fontSize=25;fontColor=#D40C20;align=right;verticalAlign=top;strokeColor=#666666;" parent="1" vertex="1">
          <mxGeometry x="650" y="1360" width="180" height="190" as="geometry" />
        </mxCell>
        <mxCell id="HvcPI_E8XcnlEceZRkLn-153" value="Link to&lt;br&gt;/switchuser" style="strokeWidth=1;shadow=0;dashed=0;align=center;html=1;shape=mxgraph.mockup.text.callout;linkText=;textSize=17;textColor=#666666;callDir=NE;callStyle=line;fontSize=30;fontColor=#D40C20;align=right;verticalAlign=top;strokeColor=#666666;horizontal=1;" parent="1" vertex="1">
          <mxGeometry x="1603" y="30" width="280" height="90" as="geometry" />
        </mxCell>
        <mxCell id="HvcPI_E8XcnlEceZRkLn-154" value="Link to /login&lt;br&gt;setCuttentUser = &quot;&quot;" style="strokeWidth=1;shadow=0;dashed=0;align=center;html=1;shape=mxgraph.mockup.text.callout;linkText=;textSize=17;textColor=#666666;callDir=NE;callStyle=line;fontSize=30;fontColor=#D40C20;align=right;verticalAlign=top;strokeColor=#666666;horizontal=1;" parent="1" vertex="1">
          <mxGeometry x="1633" y="140" width="360" height="30" as="geometry" />
        </mxCell>
        <mxCell id="HvcPI_E8XcnlEceZRkLn-155" value="Optimistic&lt;br&gt;rendering" style="strokeWidth=1;shadow=0;dashed=0;align=center;html=1;shape=mxgraph.mockup.text.callout;linkText=;textSize=17;textColor=#666666;callDir=SE;callStyle=line;fontSize=25;fontColor=#D40C20;align=right;verticalAlign=bottom;strokeColor=#666666;" parent="1" vertex="1">
          <mxGeometry x="1570" y="-1230" width="460" height="40" as="geometry" />
        </mxCell>
        <mxCell id="HvcPI_E8XcnlEceZRkLn-156" value="const [comments,&lt;br&gt;setComments]&amp;nbsp; = useState([])" style="text;strokeColor=none;fillColor=none;html=1;fontSize=30;fontStyle=1;verticalAlign=middle;align=center;fontColor=#007A00;" parent="1" vertex="1">
          <mxGeometry x="4180" y="-1550" width="160" height="50" as="geometry" />
        </mxCell>
        <mxCell id="HvcPI_E8XcnlEceZRkLn-158" value="const [articles, setArticles]&amp;nbsp; = useState([])" style="text;strokeColor=none;fillColor=none;html=1;fontSize=30;fontStyle=1;verticalAlign=middle;align=center;fontColor=#007A00;" parent="1" vertex="1">
          <mxGeometry x="3435" y="-2030" width="650" height="50" as="geometry" />
        </mxCell>
        <mxCell id="HvcPI_E8XcnlEceZRkLn-159" value="&lt;font style=&quot;font-size: 30px;&quot;&gt;App&lt;/font&gt;" style="rounded=1;whiteSpace=wrap;html=1;fontSize=20;" parent="1" vertex="1">
          <mxGeometry x="3095" y="-2050" width="170" height="70" as="geometry" />
        </mxCell>
        <mxCell id="HvcPI_E8XcnlEceZRkLn-165" value="&lt;font style=&quot;font-size: 30px;&quot;&gt;NavBar&lt;/font&gt;" style="rounded=1;whiteSpace=wrap;html=1;fontSize=20;" parent="1" vertex="1">
          <mxGeometry x="2710" y="-1490" width="170" height="70" as="geometry" />
        </mxCell>
        <mxCell id="HvcPI_E8XcnlEceZRkLn-166" value="&lt;font style=&quot;font-size: 30px;&quot;&gt;UserList&lt;/font&gt;" style="rounded=1;whiteSpace=wrap;html=1;fontSize=20;verticalAlign=top;" parent="1" vertex="1">
          <mxGeometry x="3110" y="-1480" width="170" height="180" as="geometry" />
        </mxCell>
        <mxCell id="HvcPI_E8XcnlEceZRkLn-167" value="" style="endArrow=none;html=1;rounded=0;entryX=0.5;entryY=1;entryDx=0;entryDy=0;exitX=0.5;exitY=0;exitDx=0;exitDy=0;" parent="1" source="HvcPI_E8XcnlEceZRkLn-165" target="HvcPI_E8XcnlEceZRkLn-159" edge="1">
          <mxGeometry width="50" height="50" relative="1" as="geometry">
            <mxPoint x="2940" y="-1550" as="sourcePoint" />
            <mxPoint x="2990" y="-1600" as="targetPoint" />
          </mxGeometry>
        </mxCell>
        <mxCell id="HvcPI_E8XcnlEceZRkLn-168" value="&lt;font style=&quot;font-size: 30px;&quot;&gt;Cateogries&lt;br&gt;Pane&lt;/font&gt;" style="rounded=1;whiteSpace=wrap;html=1;fontSize=20;dashed=1;dashPattern=12 12;verticalAlign=top;" parent="1" vertex="1">
          <mxGeometry x="2370" y="-1260" width="170" height="270" as="geometry" />
        </mxCell>
        <mxCell id="HvcPI_E8XcnlEceZRkLn-169" value="&lt;font style=&quot;font-size: 30px;&quot;&gt;TitleBar&lt;/font&gt;" style="rounded=1;whiteSpace=wrap;html=1;fontSize=20;verticalAlign=top;" parent="1" vertex="1">
          <mxGeometry x="2600" y="-1250" width="170" height="260" as="geometry" />
        </mxCell>
        <mxCell id="HvcPI_E8XcnlEceZRkLn-170" value="&lt;font style=&quot;font-size: 30px;&quot;&gt;Avatar&lt;/font&gt;" style="rounded=1;whiteSpace=wrap;html=1;fontSize=20;dashed=1;dashPattern=12 12;verticalAlign=top;" parent="1" vertex="1">
          <mxGeometry x="2830" y="-1250" width="170" height="260" as="geometry" />
        </mxCell>
        <mxCell id="HvcPI_E8XcnlEceZRkLn-171" value="" style="endArrow=none;html=1;rounded=0;entryX=0.5;entryY=1;entryDx=0;entryDy=0;exitX=0.5;exitY=0;exitDx=0;exitDy=0;" parent="1" source="HvcPI_E8XcnlEceZRkLn-168" target="HvcPI_E8XcnlEceZRkLn-165" edge="1">
          <mxGeometry width="50" height="50" relative="1" as="geometry">
            <mxPoint x="2360" y="-1340" as="sourcePoint" />
            <mxPoint x="2590" y="-1470" as="targetPoint" />
          </mxGeometry>
        </mxCell>
        <mxCell id="HvcPI_E8XcnlEceZRkLn-172" value="" style="endArrow=none;html=1;rounded=0;entryX=0.5;entryY=1;entryDx=0;entryDy=0;exitX=0.5;exitY=0;exitDx=0;exitDy=0;" parent="1" source="HvcPI_E8XcnlEceZRkLn-169" target="HvcPI_E8XcnlEceZRkLn-165" edge="1">
          <mxGeometry width="50" height="50" relative="1" as="geometry">
            <mxPoint x="2500" y="-1260" as="sourcePoint" />
            <mxPoint x="2840" y="-1390" as="targetPoint" />
          </mxGeometry>
        </mxCell>
        <mxCell id="HvcPI_E8XcnlEceZRkLn-173" value="" style="endArrow=none;html=1;rounded=0;entryX=0.5;entryY=1;entryDx=0;entryDy=0;exitX=0.5;exitY=0;exitDx=0;exitDy=0;" parent="1" source="HvcPI_E8XcnlEceZRkLn-170" target="HvcPI_E8XcnlEceZRkLn-165" edge="1">
          <mxGeometry width="50" height="50" relative="1" as="geometry">
            <mxPoint x="2740" y="-1270" as="sourcePoint" />
            <mxPoint x="2850" y="-1410" as="targetPoint" />
          </mxGeometry>
        </mxCell>
        <mxCell id="HvcPI_E8XcnlEceZRkLn-178" value="ul, li, Link" style="ellipse;whiteSpace=wrap;html=1;aspect=fixed;fontSize=30;" parent="1" vertex="1">
          <mxGeometry x="2385" y="-1160" width="140" height="140" as="geometry" />
        </mxCell>
        <mxCell id="HvcPI_E8XcnlEceZRkLn-180" value="const [categories, &lt;br&gt;setCatgories]&amp;nbsp; = useState([])" style="text;strokeColor=none;fillColor=none;html=1;fontSize=30;fontStyle=1;verticalAlign=middle;align=center;fontColor=#007A00;" parent="1" vertex="1">
          <mxGeometry x="2190" y="-1330" width="160" height="50" as="geometry" />
        </mxCell>
        <mxCell id="HvcPI_E8XcnlEceZRkLn-183" value="h1, Link" style="ellipse;whiteSpace=wrap;html=1;aspect=fixed;fontSize=30;" parent="1" vertex="1">
          <mxGeometry x="2615" y="-1160" width="140" height="140" as="geometry" />
        </mxCell>
        <mxCell id="HvcPI_E8XcnlEceZRkLn-185" value="img, Link&lt;br&gt;p, Link" style="ellipse;whiteSpace=wrap;html=1;aspect=fixed;fontSize=30;" parent="1" vertex="1">
          <mxGeometry x="2845" y="-1160" width="140" height="140" as="geometry" />
        </mxCell>
        <mxCell id="HvcPI_E8XcnlEceZRkLn-187" value="" style="endArrow=none;html=1;rounded=0;exitX=0.5;exitY=0;exitDx=0;exitDy=0;entryX=0;entryY=0.5;entryDx=0;entryDy=0;" parent="1" source="HvcPI_E8XcnlEceZRkLn-166" target="HvcPI_E8XcnlEceZRkLn-252" edge="1">
          <mxGeometry width="50" height="50" relative="1" as="geometry">
            <mxPoint x="2805" y="-1480" as="sourcePoint" />
            <mxPoint x="3312.5" y="-1810" as="targetPoint" />
          </mxGeometry>
        </mxCell>
        <mxCell id="HvcPI_E8XcnlEceZRkLn-188" value="&lt;font style=&quot;font-size: 30px;&quot;&gt;UserCard&lt;/font&gt;" style="rounded=1;whiteSpace=wrap;html=1;fontSize=20;verticalAlign=top;" parent="1" vertex="1">
          <mxGeometry x="3110" y="-1250" width="170" height="260" as="geometry" />
        </mxCell>
        <mxCell id="HvcPI_E8XcnlEceZRkLn-190" value="Link&lt;br&gt;img, p" style="ellipse;whiteSpace=wrap;html=1;aspect=fixed;fontSize=30;" parent="1" vertex="1">
          <mxGeometry x="3125" y="-1160" width="140" height="140" as="geometry" />
        </mxCell>
        <mxCell id="HvcPI_E8XcnlEceZRkLn-192" value="h2" style="ellipse;whiteSpace=wrap;html=1;aspect=fixed;fontSize=30;" parent="1" vertex="1">
          <mxGeometry x="3155" y="-1400" width="80" height="80" as="geometry" />
        </mxCell>
        <mxCell id="HvcPI_E8XcnlEceZRkLn-194" value="" style="endArrow=none;html=1;rounded=0;exitX=0.44;exitY=-0.052;exitDx=0;exitDy=0;entryX=1;entryY=0.5;entryDx=0;entryDy=0;exitPerimeter=0;" parent="1" source="HvcPI_E8XcnlEceZRkLn-292" target="HvcPI_E8XcnlEceZRkLn-252" edge="1">
          <mxGeometry width="50" height="50" relative="1" as="geometry">
            <mxPoint x="3930" y="-1660" as="sourcePoint" />
            <mxPoint x="3397.5" y="-1810" as="targetPoint" />
          </mxGeometry>
        </mxCell>
        <mxCell id="HvcPI_E8XcnlEceZRkLn-196" value="" style="endArrow=none;html=1;rounded=0;exitX=0.5;exitY=0;exitDx=0;exitDy=0;" parent="1" source="HvcPI_E8XcnlEceZRkLn-188" target="HvcPI_E8XcnlEceZRkLn-166" edge="1">
          <mxGeometry width="50" height="50" relative="1" as="geometry">
            <mxPoint x="3310" y="-1080" as="sourcePoint" />
            <mxPoint x="3195" y="-1270" as="targetPoint" />
          </mxGeometry>
        </mxCell>
        <mxCell id="HvcPI_E8XcnlEceZRkLn-204" value="" style="endArrow=none;html=1;rounded=0;entryX=0.5;entryY=1;entryDx=0;entryDy=0;exitX=0.5;exitY=0;exitDx=0;exitDy=0;" parent="1" source="B4IMx2vGt0d6lZp3y3eG-14" target="HvcPI_E8XcnlEceZRkLn-252" edge="1">
          <mxGeometry width="50" height="50" relative="1" as="geometry">
            <mxPoint x="3478" y="-1610" as="sourcePoint" />
            <mxPoint x="3355" y="-1810" as="targetPoint" />
          </mxGeometry>
        </mxCell>
        <mxCell id="HvcPI_E8XcnlEceZRkLn-205" value="&lt;font style=&quot;font-size: 30px;&quot;&gt;ArticleCard&lt;/font&gt;" style="rounded=1;whiteSpace=wrap;html=1;fontSize=20;verticalAlign=top;" parent="1" vertex="1">
          <mxGeometry x="3395" y="-1250" width="170" height="270" as="geometry" />
        </mxCell>
        <mxCell id="HvcPI_E8XcnlEceZRkLn-209" value="" style="endArrow=none;html=1;rounded=0;exitX=0.5;exitY=0;exitDx=0;exitDy=0;entryX=0.5;entryY=1;entryDx=0;entryDy=0;" parent="1" source="HvcPI_E8XcnlEceZRkLn-205" target="B4IMx2vGt0d6lZp3y3eG-14" edge="1">
          <mxGeometry width="50" height="50" relative="1" as="geometry">
            <mxPoint x="3595" y="-1080" as="sourcePoint" />
            <mxPoint x="3480" y="-1330" as="targetPoint" />
          </mxGeometry>
        </mxCell>
        <mxCell id="HvcPI_E8XcnlEceZRkLn-211" value="&lt;font style=&quot;font-size: 30px;&quot;&gt;Post&lt;/font&gt;" style="rounded=1;whiteSpace=wrap;html=1;fontSize=20;verticalAlign=top;" parent="1" vertex="1">
          <mxGeometry x="3755" y="-1240" width="170" height="380" as="geometry" />
        </mxCell>
        <mxCell id="HvcPI_E8XcnlEceZRkLn-216" value="img, h3" style="ellipse;whiteSpace=wrap;html=1;aspect=fixed;fontSize=30;dashed=1;dashPattern=12 12;" parent="1" vertex="1">
          <mxGeometry x="3795" y="-1180" width="90" height="90" as="geometry" />
        </mxCell>
        <mxCell id="HvcPI_E8XcnlEceZRkLn-217" value="" style="endArrow=none;html=1;rounded=0;exitX=0.5;exitY=0;exitDx=0;exitDy=0;entryX=0.5;entryY=1;entryDx=0;entryDy=0;" parent="1" source="HvcPI_E8XcnlEceZRkLn-277" target="HvcPI_E8XcnlEceZRkLn-211" edge="1">
          <mxGeometry width="50" height="50" relative="1" as="geometry">
            <mxPoint x="3840" y="-740" as="sourcePoint" />
            <mxPoint x="3840" y="-850" as="targetPoint" />
          </mxGeometry>
        </mxCell>
        <mxCell id="HvcPI_E8XcnlEceZRkLn-219" value="&lt;font style=&quot;font-size: 30px;&quot;&gt;Comment&lt;br&gt;Form&lt;/font&gt;" style="rounded=1;whiteSpace=wrap;html=1;fontSize=20;verticalAlign=top;" parent="1" vertex="1">
          <mxGeometry x="4045" y="-1240" width="170" height="290" as="geometry" />
        </mxCell>
        <mxCell id="HvcPI_E8XcnlEceZRkLn-224" value="form, input,&lt;br&gt;button" style="ellipse;whiteSpace=wrap;html=1;aspect=fixed;fontSize=30;" parent="1" vertex="1">
          <mxGeometry x="4060" y="-1130" width="140" height="140" as="geometry" />
        </mxCell>
        <mxCell id="HvcPI_E8XcnlEceZRkLn-230" value="" style="endArrow=none;html=1;rounded=0;entryX=0.5;entryY=1;entryDx=0;entryDy=0;exitX=0.5;exitY=0;exitDx=0;exitDy=0;" parent="1" source="HvcPI_E8XcnlEceZRkLn-252" target="HvcPI_E8XcnlEceZRkLn-159" edge="1">
          <mxGeometry width="50" height="50" relative="1" as="geometry">
            <mxPoint x="3355" y="-1880" as="sourcePoint" />
            <mxPoint x="3190" y="-1970" as="targetPoint" />
          </mxGeometry>
        </mxCell>
        <mxCell id="HvcPI_E8XcnlEceZRkLn-234" value="Link&lt;br&gt;p, h3, p" style="ellipse;whiteSpace=wrap;html=1;aspect=fixed;fontSize=30;" parent="1" vertex="1">
          <mxGeometry x="3410" y="-1150" width="140" height="140" as="geometry" />
        </mxCell>
        <mxCell id="HvcPI_E8XcnlEceZRkLn-235" value="&lt;font style=&quot;font-size: 30px;&quot;&gt;IconAndCount&lt;/font&gt;" style="rounded=1;whiteSpace=wrap;html=1;fontSize=20;verticalAlign=top;" parent="1" vertex="1">
          <mxGeometry x="3140" y="-890" width="220" height="230" as="geometry" />
        </mxCell>
        <mxCell id="HvcPI_E8XcnlEceZRkLn-236" value="" style="endArrow=none;html=1;rounded=0;exitX=0.5;exitY=0;exitDx=0;exitDy=0;entryX=0.5;entryY=1;entryDx=0;entryDy=0;" parent="1" source="HvcPI_E8XcnlEceZRkLn-235" target="HvcPI_E8XcnlEceZRkLn-205" edge="1">
          <mxGeometry width="50" height="50" relative="1" as="geometry">
            <mxPoint x="3479" y="-920" as="sourcePoint" />
            <mxPoint x="3479" y="-980" as="targetPoint" />
          </mxGeometry>
        </mxCell>
        <mxCell id="HvcPI_E8XcnlEceZRkLn-238" value="img, p" style="ellipse;whiteSpace=wrap;html=1;aspect=fixed;fontSize=30;" parent="1" vertex="1">
          <mxGeometry x="3180" y="-830" width="140" height="140" as="geometry" />
        </mxCell>
        <mxCell id="HvcPI_E8XcnlEceZRkLn-240" value="&lt;span style=&quot;font-size: 30px;&quot;&gt;Paginator&lt;/span&gt;" style="rounded=1;whiteSpace=wrap;html=1;fontSize=20;verticalAlign=top;" parent="1" vertex="1">
          <mxGeometry x="4300" y="-1230" width="170" height="190" as="geometry" />
        </mxCell>
        <mxCell id="HvcPI_E8XcnlEceZRkLn-246" value="" style="endArrow=none;html=1;rounded=0;exitX=0.5;exitY=0;exitDx=0;exitDy=0;entryX=0.5;entryY=1;entryDx=0;entryDy=0;" parent="1" source="HvcPI_E8XcnlEceZRkLn-240" target="HvcPI_E8XcnlEceZRkLn-292" edge="1">
          <mxGeometry width="50" height="50" relative="1" as="geometry">
            <mxPoint x="4170" y="-1720" as="sourcePoint" />
            <mxPoint x="4070" y="-1400" as="targetPoint" />
          </mxGeometry>
        </mxCell>
        <mxCell id="HvcPI_E8XcnlEceZRkLn-247" value="" style="endArrow=none;html=1;rounded=0;exitX=0.5;exitY=0;exitDx=0;exitDy=0;entryX=0.5;entryY=1;entryDx=0;entryDy=0;" parent="1" source="HvcPI_E8XcnlEceZRkLn-279" target="HvcPI_E8XcnlEceZRkLn-240" edge="1">
          <mxGeometry width="50" height="50" relative="1" as="geometry">
            <mxPoint x="4385" y="-1080" as="sourcePoint" />
            <mxPoint x="4620" y="-1180" as="targetPoint" />
          </mxGeometry>
        </mxCell>
        <mxCell id="HvcPI_E8XcnlEceZRkLn-248" value="" style="endArrow=none;html=1;rounded=0;exitX=0.5;exitY=0;exitDx=0;exitDy=0;entryX=0.5;entryY=1;entryDx=0;entryDy=0;" parent="1" source="HvcPI_E8XcnlEceZRkLn-219" target="HvcPI_E8XcnlEceZRkLn-292" edge="1">
          <mxGeometry width="50" height="50" relative="1" as="geometry">
            <mxPoint x="4098" y="-1700" as="sourcePoint" />
            <mxPoint x="3990" y="-1400" as="targetPoint" />
          </mxGeometry>
        </mxCell>
        <mxCell id="HvcPI_E8XcnlEceZRkLn-250" value="" style="endArrow=none;html=1;rounded=0;exitX=0.5;exitY=0;exitDx=0;exitDy=0;entryX=0.5;entryY=1;entryDx=0;entryDy=0;" parent="1" source="HvcPI_E8XcnlEceZRkLn-211" target="HvcPI_E8XcnlEceZRkLn-292" edge="1">
          <mxGeometry width="50" height="50" relative="1" as="geometry">
            <mxPoint x="3790" y="-1570" as="sourcePoint" />
            <mxPoint x="3990" y="-1400" as="targetPoint" />
          </mxGeometry>
        </mxCell>
        <mxCell id="HvcPI_E8XcnlEceZRkLn-252" value="Router" style="rhombus;whiteSpace=wrap;html=1;fontSize=30;" parent="1" vertex="1">
          <mxGeometry x="3410" y="-1859" width="135" height="106" as="geometry" />
        </mxCell>
        <mxCell id="HvcPI_E8XcnlEceZRkLn-255" value="p, p, p" style="ellipse;whiteSpace=wrap;html=1;aspect=fixed;fontSize=30;" parent="1" vertex="1">
          <mxGeometry x="3795" y="-1070" width="90" height="90" as="geometry" />
        </mxCell>
        <mxCell id="HvcPI_E8XcnlEceZRkLn-273" value="" style="endArrow=none;html=1;rounded=0;exitX=0.5;exitY=0;exitDx=0;exitDy=0;entryX=0.5;entryY=1;entryDx=0;entryDy=0;" parent="1" source="HvcPI_E8XcnlEceZRkLn-275" target="HvcPI_E8XcnlEceZRkLn-205" edge="1">
          <mxGeometry width="50" height="50" relative="1" as="geometry">
            <mxPoint x="3540" y="-890" as="sourcePoint" />
            <mxPoint x="3490" y="-970" as="targetPoint" />
          </mxGeometry>
        </mxCell>
        <mxCell id="HvcPI_E8XcnlEceZRkLn-275" value="&lt;font style=&quot;font-size: 30px;&quot;&gt;IconAndCount&lt;/font&gt;" style="rounded=1;whiteSpace=wrap;html=1;fontSize=20;verticalAlign=top;" parent="1" vertex="1">
          <mxGeometry x="3430" y="-890" width="220" height="230" as="geometry" />
        </mxCell>
        <mxCell id="HvcPI_E8XcnlEceZRkLn-276" value="img, p" style="ellipse;whiteSpace=wrap;html=1;aspect=fixed;fontSize=30;" parent="1" vertex="1">
          <mxGeometry x="3470" y="-830" width="140" height="140" as="geometry" />
        </mxCell>
        <mxCell id="HvcPI_E8XcnlEceZRkLn-277" value="&lt;font style=&quot;font-size: 30px;&quot;&gt;IconAndCount&lt;/font&gt;" style="rounded=1;whiteSpace=wrap;html=1;fontSize=20;verticalAlign=top;" parent="1" vertex="1">
          <mxGeometry x="3730" y="-790" width="220" height="230" as="geometry" />
        </mxCell>
        <mxCell id="HvcPI_E8XcnlEceZRkLn-278" value="img, p" style="ellipse;whiteSpace=wrap;html=1;aspect=fixed;fontSize=30;" parent="1" vertex="1">
          <mxGeometry x="3770" y="-730" width="140" height="140" as="geometry" />
        </mxCell>
        <mxCell id="HvcPI_E8XcnlEceZRkLn-279" value="&lt;font style=&quot;font-size: 30px;&quot;&gt;Post&lt;/font&gt;" style="rounded=1;whiteSpace=wrap;html=1;fontSize=20;verticalAlign=top;" parent="1" vertex="1">
          <mxGeometry x="4300" y="-990" width="170" height="380" as="geometry" />
        </mxCell>
        <mxCell id="HvcPI_E8XcnlEceZRkLn-280" value="img, h3" style="ellipse;whiteSpace=wrap;html=1;aspect=fixed;fontSize=30;dashed=1;dashPattern=12 12;" parent="1" vertex="1">
          <mxGeometry x="4340" y="-930" width="90" height="90" as="geometry" />
        </mxCell>
        <mxCell id="HvcPI_E8XcnlEceZRkLn-281" value="" style="endArrow=none;html=1;rounded=0;exitX=0.5;exitY=0;exitDx=0;exitDy=0;entryX=0.5;entryY=1;entryDx=0;entryDy=0;" parent="1" source="HvcPI_E8XcnlEceZRkLn-283" target="HvcPI_E8XcnlEceZRkLn-279" edge="1">
          <mxGeometry width="50" height="50" relative="1" as="geometry">
            <mxPoint x="4380" y="-500" as="sourcePoint" />
            <mxPoint x="4380" y="-610" as="targetPoint" />
          </mxGeometry>
        </mxCell>
        <mxCell id="HvcPI_E8XcnlEceZRkLn-282" value="p, p, p" style="ellipse;whiteSpace=wrap;html=1;aspect=fixed;fontSize=30;" parent="1" vertex="1">
          <mxGeometry x="4340" y="-820" width="90" height="90" as="geometry" />
        </mxCell>
        <mxCell id="HvcPI_E8XcnlEceZRkLn-283" value="&lt;font style=&quot;font-size: 30px;&quot;&gt;IconAndCount&lt;/font&gt;" style="rounded=1;whiteSpace=wrap;html=1;fontSize=20;verticalAlign=top;" parent="1" vertex="1">
          <mxGeometry x="4275" y="-530" width="220" height="230" as="geometry" />
        </mxCell>
        <mxCell id="HvcPI_E8XcnlEceZRkLn-284" value="img, p" style="ellipse;whiteSpace=wrap;html=1;aspect=fixed;fontSize=30;" parent="1" vertex="1">
          <mxGeometry x="4315" y="-470" width="140" height="140" as="geometry" />
        </mxCell>
        <mxCell id="oO1IpqutuhY_mgt90Hi0-438" value="Lorem ipsum dolor sit amet, consectetur adipisicing elit, sed do eiusmod tempor incididunt ut labore et dolore magna aliqua. Ut enim ad minim veniam, quis nostrud exercitation ullamco laboris nisi ut aliquip ex ea commodo consequat. Duis aute irure dolor in reprehenderit in voluptate velit esse cillum dolore eu fugiat nulla pariatur. Excepteur sint occaecat cupidatat non proident, sunt in culpa qui officia deserunt mollit anim id est laborum." style="text;spacingTop=-5;whiteSpace=wrap;html=1;align=left;fontSize=20;fontFamily=Helvetica;fillColor=none;strokeColor=none;" parent="1" vertex="1">
          <mxGeometry x="790" y="-1670" width="850" height="140" as="geometry" />
        </mxCell>
        <mxCell id="HvcPI_E8XcnlEceZRkLn-292" value="&lt;font style=&quot;font-size: 30px;&quot;&gt;Article&lt;/font&gt;" style="rounded=1;whiteSpace=wrap;html=1;fontSize=20;" parent="1" vertex="1">
          <mxGeometry x="3930" y="-1475" width="170" height="70" as="geometry" />
        </mxCell>
        <mxCell id="HvcPI_E8XcnlEceZRkLn-293" value="const [users, &lt;br&gt;setUser]&amp;nbsp; = useState([])" style="text;strokeColor=none;fillColor=none;html=1;fontSize=30;fontStyle=1;verticalAlign=middle;align=center;fontColor=#007A00;" parent="1" vertex="1">
          <mxGeometry x="3030" y="-1560" width="160" height="50" as="geometry" />
        </mxCell>
        <mxCell id="HvcPI_E8XcnlEceZRkLn-294" value="const [currentArticle, setCurrentArticle]&amp;nbsp; = useState(null)" style="text;strokeColor=none;fillColor=none;html=1;fontSize=30;fontStyle=1;verticalAlign=middle;align=center;fontColor=#007A00;" parent="1" vertex="1">
          <mxGeometry x="3630" y="-2070" width="160" height="50" as="geometry" />
        </mxCell>
        <mxCell id="HvcPI_E8XcnlEceZRkLn-295" value="&lt;span style=&quot;font-family: Helvetica; font-size: 30px; font-style: normal; font-variant-ligatures: normal; font-variant-caps: normal; font-weight: 700; letter-spacing: normal; orphans: 2; text-align: center; text-indent: 0px; text-transform: none; widows: 2; word-spacing: 0px; -webkit-text-stroke-width: 0px; background-color: rgb(251, 251, 251); text-decoration-thickness: initial; text-decoration-style: initial; text-decoration-color: initial; float: none; display: inline !important;&quot;&gt;&lt;font color=&quot;#00ba00&quot;&gt;setCurrentArticle&lt;/font&gt;&lt;/span&gt;" style="text;whiteSpace=wrap;html=1;" parent="1" vertex="1">
          <mxGeometry x="3360" y="-1200" width="280" height="60" as="geometry" />
        </mxCell>
        <mxCell id="HvcPI_E8XcnlEceZRkLn-296" value="&lt;span style=&quot;font-family: Helvetica; font-size: 30px; font-style: normal; font-variant-ligatures: normal; font-variant-caps: normal; font-weight: 700; letter-spacing: normal; orphans: 2; text-align: center; text-indent: 0px; text-transform: none; widows: 2; word-spacing: 0px; -webkit-text-stroke-width: 0px; background-color: rgb(251, 251, 251); text-decoration-thickness: initial; text-decoration-style: initial; text-decoration-color: initial; float: none; display: inline !important;&quot;&gt;&lt;font color=&quot;#00ba00&quot;&gt;setCurrentUser&lt;/font&gt;&lt;/span&gt;" style="text;whiteSpace=wrap;html=1;" parent="1" vertex="1">
          <mxGeometry x="3095" y="-1200" width="280" height="60" as="geometry" />
        </mxCell>
        <mxCell id="HvcPI_E8XcnlEceZRkLn-298" value="button" style="ellipse;whiteSpace=wrap;html=1;aspect=fixed;fontSize=30;dashed=1;dashPattern=12 12;" parent="1" vertex="1">
          <mxGeometry x="3790" y="-967" width="90" height="90" as="geometry" />
        </mxCell>
        <mxCell id="HvcPI_E8XcnlEceZRkLn-299" value="button" style="ellipse;whiteSpace=wrap;html=1;aspect=fixed;fontSize=30;dashed=1;dashPattern=12 12;" parent="1" vertex="1">
          <mxGeometry x="4341.5" y="-715" width="90" height="90" as="geometry" />
        </mxCell>
        <mxCell id="HvcPI_E8XcnlEceZRkLn-300" value="const [text, &lt;br&gt;setText]&amp;nbsp; = useState([])" style="text;strokeColor=none;fillColor=none;html=1;fontSize=30;fontStyle=1;verticalAlign=middle;align=center;fontColor=#007A00;" parent="1" vertex="1">
          <mxGeometry x="4040" y="-915" width="160" height="50" as="geometry" />
        </mxCell>
        <mxCell id="HvcPI_E8XcnlEceZRkLn-301" value="&lt;font color=&quot;#00ba00&quot;&gt;currentArticle&lt;/font&gt;" style="text;strokeColor=none;fillColor=none;html=1;fontSize=30;fontStyle=1;verticalAlign=middle;align=center;fontColor=#007A00;" parent="1" vertex="1">
          <mxGeometry x="4140" y="-1470" width="160" height="50" as="geometry" />
        </mxCell>
        <mxCell id="UsoW7yV8ELrUlpd4n50g-1" value="" style="strokeWidth=1;shadow=0;dashed=0;align=center;html=1;shape=mxgraph.mockup.containers.browserWindow;rSize=0;strokeColor=#666666;strokeColor2=#008cff;strokeColor3=#c4c4c4;mainText=,;recursiveResize=0;fontSize=30;fontStyle=4" parent="1" vertex="1">
          <mxGeometry x="1810" y="1480" width="430" height="860" as="geometry" />
        </mxCell>
        <mxCell id="UsoW7yV8ELrUlpd4n50g-2" value="News Daily" style="strokeWidth=1;shadow=0;dashed=0;align=center;html=1;shape=mxgraph.mockup.containers.anchor;fontSize=17;fontColor=#666666;align=left;whiteSpace=wrap;" parent="UsoW7yV8ELrUlpd4n50g-1" vertex="1">
          <mxGeometry x="60" y="12" width="110" height="26" as="geometry" />
        </mxCell>
        <mxCell id="UsoW7yV8ELrUlpd4n50g-3" value="127.0.0.1:5173/switchuser" style="strokeWidth=1;shadow=0;dashed=0;align=center;html=1;shape=mxgraph.mockup.containers.anchor;rSize=0;fontSize=17;fontColor=#666666;align=left;" parent="UsoW7yV8ELrUlpd4n50g-1" vertex="1">
          <mxGeometry x="130" y="60" width="250" height="26" as="geometry" />
        </mxCell>
        <mxCell id="UsoW7yV8ELrUlpd4n50g-4" value="" style="shape=mxgraph.mockup.containers.marginRect;rectMarginTop=10;strokeColor=#666666;strokeWidth=1;dashed=0;rounded=1;arcSize=5;recursiveResize=0;html=1;whiteSpace=wrap;" parent="UsoW7yV8ELrUlpd4n50g-1" vertex="1">
          <mxGeometry x="30" y="130" width="370" height="220" as="geometry" />
        </mxCell>
        <mxCell id="UsoW7yV8ELrUlpd4n50g-5" value="NavBar" style="shape=rect;strokeColor=none;fillColor=#008cff;strokeWidth=1;dashed=0;rounded=1;arcSize=20;fontColor=#ffffff;fontSize=17;spacing=2;spacingTop=-2;align=left;autosize=1;spacingLeft=4;resizeWidth=0;resizeHeight=0;perimeter=none;html=1;whiteSpace=wrap;" parent="UsoW7yV8ELrUlpd4n50g-4" vertex="1">
          <mxGeometry x="5" width="80" height="30" as="geometry" />
        </mxCell>
        <mxCell id="UsoW7yV8ELrUlpd4n50g-6" value="" style="shape=mxgraph.mockup.containers.marginRect;rectMarginTop=10;strokeColor=#666666;strokeWidth=1;dashed=0;rounded=1;arcSize=5;recursiveResize=0;html=1;whiteSpace=wrap;" parent="UsoW7yV8ELrUlpd4n50g-4" vertex="1">
          <mxGeometry x="20" y="50" width="310" height="140" as="geometry" />
        </mxCell>
        <mxCell id="UsoW7yV8ELrUlpd4n50g-7" value="TitleBar" style="shape=rect;strokeColor=none;fillColor=#008cff;strokeWidth=1;dashed=0;rounded=1;arcSize=20;fontColor=#ffffff;fontSize=17;spacing=2;spacingTop=-2;align=left;autosize=1;spacingLeft=4;resizeWidth=0;resizeHeight=0;perimeter=none;html=1;whiteSpace=wrap;" parent="UsoW7yV8ELrUlpd4n50g-6" vertex="1">
          <mxGeometry x="5" width="80" height="30" as="geometry" />
        </mxCell>
        <mxCell id="UsoW7yV8ELrUlpd4n50g-8" value="WebsiteTitle" style="text;strokeColor=none;fillColor=none;html=1;fontSize=40;fontStyle=1;verticalAlign=middle;align=center;" parent="UsoW7yV8ELrUlpd4n50g-6" vertex="1">
          <mxGeometry x="85" y="45" width="160" height="50" as="geometry" />
        </mxCell>
        <mxCell id="UsoW7yV8ELrUlpd4n50g-9" value="" style="shape=mxgraph.mockup.containers.marginRect;rectMarginTop=10;strokeColor=#666666;strokeWidth=1;dashed=0;rounded=1;arcSize=5;recursiveResize=0;html=1;whiteSpace=wrap;" parent="UsoW7yV8ELrUlpd4n50g-1" vertex="1">
          <mxGeometry x="30" y="380" width="370" height="460" as="geometry" />
        </mxCell>
        <mxCell id="UsoW7yV8ELrUlpd4n50g-10" value="UserList" style="shape=rect;strokeColor=none;fillColor=#008cff;strokeWidth=1;dashed=0;rounded=1;arcSize=20;fontColor=#ffffff;fontSize=17;spacing=2;spacingTop=-2;align=left;autosize=1;spacingLeft=4;resizeWidth=0;resizeHeight=0;perimeter=none;html=1;whiteSpace=wrap;" parent="UsoW7yV8ELrUlpd4n50g-9" vertex="1">
          <mxGeometry x="5" width="90" height="30" as="geometry" />
        </mxCell>
        <mxCell id="UsoW7yV8ELrUlpd4n50g-11" value="ChooseUser/&lt;br style=&quot;font-size: 30px;&quot;&gt;SwitchUser" style="text;strokeColor=none;fillColor=none;html=1;fontSize=30;fontStyle=1;verticalAlign=middle;align=center;" parent="UsoW7yV8ELrUlpd4n50g-9" vertex="1">
          <mxGeometry x="112.5" y="30" width="145" height="70" as="geometry" />
        </mxCell>
        <mxCell id="UsoW7yV8ELrUlpd4n50g-12" value="" style="shape=mxgraph.mockup.containers.marginRect;rectMarginTop=10;strokeColor=#666666;strokeWidth=1;dashed=0;rounded=1;arcSize=5;recursiveResize=0;html=1;whiteSpace=wrap;" parent="UsoW7yV8ELrUlpd4n50g-9" vertex="1">
          <mxGeometry x="35" y="110" width="300" height="160" as="geometry" />
        </mxCell>
        <mxCell id="UsoW7yV8ELrUlpd4n50g-13" value="UserCard" style="shape=rect;strokeColor=none;fillColor=#008cff;strokeWidth=1;dashed=0;rounded=1;arcSize=20;fontColor=#ffffff;fontSize=17;spacing=2;spacingTop=-2;align=left;autosize=1;spacingLeft=4;resizeWidth=0;resizeHeight=0;perimeter=none;html=1;whiteSpace=wrap;" parent="UsoW7yV8ELrUlpd4n50g-12" vertex="1">
          <mxGeometry x="5" width="100" height="30" as="geometry" />
        </mxCell>
        <mxCell id="UsoW7yV8ELrUlpd4n50g-14" value="User Name" style="text;strokeColor=none;fillColor=none;html=1;fontSize=25;fontStyle=1;verticalAlign=middle;align=center;" parent="UsoW7yV8ELrUlpd4n50g-12" vertex="1">
          <mxGeometry x="140" y="65" width="160" height="50" as="geometry" />
        </mxCell>
        <mxCell id="UsoW7yV8ELrUlpd4n50g-15" value="" style="verticalLabelPosition=bottom;shadow=0;dashed=0;align=center;html=1;verticalAlign=top;strokeWidth=1;shape=mxgraph.mockup.containers.userFemale;strokeColor=#666666;strokeColor2=#008cff;" parent="UsoW7yV8ELrUlpd4n50g-12" vertex="1">
          <mxGeometry x="20" y="40" width="100" height="100" as="geometry" />
        </mxCell>
        <mxCell id="UsoW7yV8ELrUlpd4n50g-16" value="" style="shape=mxgraph.mockup.containers.marginRect;rectMarginTop=10;strokeColor=#666666;strokeWidth=1;dashed=0;rounded=1;arcSize=5;recursiveResize=0;html=1;whiteSpace=wrap;" parent="UsoW7yV8ELrUlpd4n50g-9" vertex="1">
          <mxGeometry x="35" y="280" width="300" height="160" as="geometry" />
        </mxCell>
        <mxCell id="UsoW7yV8ELrUlpd4n50g-17" value="UserCard" style="shape=rect;strokeColor=none;fillColor=#008cff;strokeWidth=1;dashed=0;rounded=1;arcSize=20;fontColor=#ffffff;fontSize=17;spacing=2;spacingTop=-2;align=left;autosize=1;spacingLeft=4;resizeWidth=0;resizeHeight=0;perimeter=none;html=1;whiteSpace=wrap;" parent="UsoW7yV8ELrUlpd4n50g-16" vertex="1">
          <mxGeometry x="5" width="100" height="30" as="geometry" />
        </mxCell>
        <mxCell id="UsoW7yV8ELrUlpd4n50g-18" value="User Name" style="text;strokeColor=none;fillColor=none;html=1;fontSize=25;fontStyle=1;verticalAlign=middle;align=center;" parent="UsoW7yV8ELrUlpd4n50g-16" vertex="1">
          <mxGeometry x="140" y="65" width="160" height="50" as="geometry" />
        </mxCell>
        <mxCell id="UsoW7yV8ELrUlpd4n50g-19" value="" style="verticalLabelPosition=bottom;shadow=0;dashed=0;align=center;html=1;verticalAlign=top;strokeWidth=1;shape=mxgraph.mockup.containers.userFemale;strokeColor=#666666;strokeColor2=#008cff;" parent="UsoW7yV8ELrUlpd4n50g-16" vertex="1">
          <mxGeometry x="20" y="40" width="100" height="100" as="geometry" />
        </mxCell>
        <mxCell id="UsoW7yV8ELrUlpd4n50g-20" value="" style="strokeWidth=1;shadow=0;dashed=0;align=center;html=1;shape=mxgraph.mockup.containers.browserWindow;rSize=0;strokeColor=#666666;strokeColor2=#008cff;strokeColor3=#c4c4c4;mainText=,;recursiveResize=0;fontSize=30;" parent="1" vertex="1">
          <mxGeometry x="2270" y="1480" width="1300" height="970" as="geometry" />
        </mxCell>
        <mxCell id="UsoW7yV8ELrUlpd4n50g-21" value="News Daily" style="strokeWidth=1;shadow=0;dashed=0;align=center;html=1;shape=mxgraph.mockup.containers.anchor;fontSize=17;fontColor=#666666;align=left;whiteSpace=wrap;" parent="UsoW7yV8ELrUlpd4n50g-20" vertex="1">
          <mxGeometry x="60" y="12" width="110" height="26" as="geometry" />
        </mxCell>
        <mxCell id="UsoW7yV8ELrUlpd4n50g-22" value="127.0.0.1:5173/switchuser" style="strokeWidth=1;shadow=0;dashed=0;align=center;html=1;shape=mxgraph.mockup.containers.anchor;rSize=0;fontSize=17;fontColor=#666666;align=left;" parent="UsoW7yV8ELrUlpd4n50g-20" vertex="1">
          <mxGeometry x="130" y="60" width="250" height="26" as="geometry" />
        </mxCell>
        <mxCell id="UsoW7yV8ELrUlpd4n50g-23" value="" style="shape=mxgraph.mockup.containers.marginRect;rectMarginTop=10;strokeColor=#666666;strokeWidth=1;dashed=0;rounded=1;arcSize=5;recursiveResize=0;html=1;whiteSpace=wrap;" parent="UsoW7yV8ELrUlpd4n50g-20" vertex="1">
          <mxGeometry x="20" y="330" width="1240" height="620" as="geometry" />
        </mxCell>
        <mxCell id="UsoW7yV8ELrUlpd4n50g-24" value="UserList" style="shape=rect;strokeColor=none;fillColor=#008cff;strokeWidth=1;dashed=0;rounded=1;arcSize=20;fontColor=#ffffff;fontSize=17;spacing=2;spacingTop=-2;align=left;autosize=1;spacingLeft=4;resizeWidth=0;resizeHeight=0;perimeter=none;html=1;whiteSpace=wrap;" parent="UsoW7yV8ELrUlpd4n50g-23" vertex="1">
          <mxGeometry x="5" width="90" height="30" as="geometry" />
        </mxCell>
        <mxCell id="UsoW7yV8ELrUlpd4n50g-25" value="ChooseUser/SwitchUser" style="text;strokeColor=none;fillColor=none;html=1;fontSize=40;fontStyle=1;verticalAlign=middle;align=center;" parent="UsoW7yV8ELrUlpd4n50g-23" vertex="1">
          <mxGeometry x="540" y="50" width="160" height="50" as="geometry" />
        </mxCell>
        <mxCell id="UsoW7yV8ELrUlpd4n50g-26" value="" style="shape=mxgraph.mockup.containers.marginRect;rectMarginTop=10;strokeColor=#666666;strokeWidth=1;dashed=0;rounded=1;arcSize=5;recursiveResize=0;html=1;whiteSpace=wrap;" parent="UsoW7yV8ELrUlpd4n50g-23" vertex="1">
          <mxGeometry x="470" y="102" width="300" height="160" as="geometry" />
        </mxCell>
        <mxCell id="UsoW7yV8ELrUlpd4n50g-27" value="UserCard" style="shape=rect;strokeColor=none;fillColor=#008cff;strokeWidth=1;dashed=0;rounded=1;arcSize=20;fontColor=#ffffff;fontSize=17;spacing=2;spacingTop=-2;align=left;autosize=1;spacingLeft=4;resizeWidth=0;resizeHeight=0;perimeter=none;html=1;whiteSpace=wrap;" parent="UsoW7yV8ELrUlpd4n50g-26" vertex="1">
          <mxGeometry x="5" width="100" height="30" as="geometry" />
        </mxCell>
        <mxCell id="UsoW7yV8ELrUlpd4n50g-28" value="User Name" style="text;strokeColor=none;fillColor=none;html=1;fontSize=25;fontStyle=1;verticalAlign=middle;align=center;" parent="UsoW7yV8ELrUlpd4n50g-26" vertex="1">
          <mxGeometry x="140" y="65" width="160" height="50" as="geometry" />
        </mxCell>
        <mxCell id="UsoW7yV8ELrUlpd4n50g-29" value="" style="verticalLabelPosition=bottom;shadow=0;dashed=0;align=center;html=1;verticalAlign=top;strokeWidth=1;shape=mxgraph.mockup.containers.userFemale;strokeColor=#666666;strokeColor2=#008cff;" parent="UsoW7yV8ELrUlpd4n50g-26" vertex="1">
          <mxGeometry x="20" y="40" width="100" height="100" as="geometry" />
        </mxCell>
        <mxCell id="UsoW7yV8ELrUlpd4n50g-30" value="" style="shape=mxgraph.mockup.containers.marginRect;rectMarginTop=10;strokeColor=#666666;strokeWidth=1;dashed=0;rounded=1;arcSize=5;recursiveResize=0;html=1;whiteSpace=wrap;" parent="UsoW7yV8ELrUlpd4n50g-23" vertex="1">
          <mxGeometry x="470" y="270" width="300" height="160" as="geometry" />
        </mxCell>
        <mxCell id="UsoW7yV8ELrUlpd4n50g-31" value="UserCard" style="shape=rect;strokeColor=none;fillColor=#008cff;strokeWidth=1;dashed=0;rounded=1;arcSize=20;fontColor=#ffffff;fontSize=17;spacing=2;spacingTop=-2;align=left;autosize=1;spacingLeft=4;resizeWidth=0;resizeHeight=0;perimeter=none;html=1;whiteSpace=wrap;" parent="UsoW7yV8ELrUlpd4n50g-30" vertex="1">
          <mxGeometry x="5" width="100" height="30" as="geometry" />
        </mxCell>
        <mxCell id="UsoW7yV8ELrUlpd4n50g-32" value="User Name" style="text;strokeColor=none;fillColor=none;html=1;fontSize=25;fontStyle=1;verticalAlign=middle;align=center;" parent="UsoW7yV8ELrUlpd4n50g-30" vertex="1">
          <mxGeometry x="140" y="65" width="160" height="50" as="geometry" />
        </mxCell>
        <mxCell id="UsoW7yV8ELrUlpd4n50g-33" value="" style="verticalLabelPosition=bottom;shadow=0;dashed=0;align=center;html=1;verticalAlign=top;strokeWidth=1;shape=mxgraph.mockup.containers.userFemale;strokeColor=#666666;strokeColor2=#008cff;" parent="UsoW7yV8ELrUlpd4n50g-30" vertex="1">
          <mxGeometry x="20" y="40" width="100" height="100" as="geometry" />
        </mxCell>
        <mxCell id="UsoW7yV8ELrUlpd4n50g-34" value="" style="shape=mxgraph.mockup.containers.marginRect;rectMarginTop=10;strokeColor=#666666;strokeWidth=1;dashed=0;rounded=1;arcSize=5;recursiveResize=0;html=1;whiteSpace=wrap;" parent="UsoW7yV8ELrUlpd4n50g-23" vertex="1">
          <mxGeometry x="470" y="440" width="300" height="160" as="geometry" />
        </mxCell>
        <mxCell id="UsoW7yV8ELrUlpd4n50g-35" value="UserCard" style="shape=rect;strokeColor=none;fillColor=#008cff;strokeWidth=1;dashed=0;rounded=1;arcSize=20;fontColor=#ffffff;fontSize=17;spacing=2;spacingTop=-2;align=left;autosize=1;spacingLeft=4;resizeWidth=0;resizeHeight=0;perimeter=none;html=1;whiteSpace=wrap;" parent="UsoW7yV8ELrUlpd4n50g-34" vertex="1">
          <mxGeometry x="5" width="100" height="30" as="geometry" />
        </mxCell>
        <mxCell id="UsoW7yV8ELrUlpd4n50g-36" value="User Name" style="text;strokeColor=none;fillColor=none;html=1;fontSize=25;fontStyle=1;verticalAlign=middle;align=center;" parent="UsoW7yV8ELrUlpd4n50g-34" vertex="1">
          <mxGeometry x="140" y="65" width="160" height="50" as="geometry" />
        </mxCell>
        <mxCell id="UsoW7yV8ELrUlpd4n50g-37" value="" style="verticalLabelPosition=bottom;shadow=0;dashed=0;align=center;html=1;verticalAlign=top;strokeWidth=1;shape=mxgraph.mockup.containers.userFemale;strokeColor=#666666;strokeColor2=#008cff;" parent="UsoW7yV8ELrUlpd4n50g-34" vertex="1">
          <mxGeometry x="20" y="40" width="100" height="100" as="geometry" />
        </mxCell>
        <mxCell id="UsoW7yV8ELrUlpd4n50g-38" value="" style="shape=mxgraph.mockup.containers.marginRect;rectMarginTop=10;strokeColor=#666666;strokeWidth=1;dashed=0;rounded=1;arcSize=5;recursiveResize=0;html=1;whiteSpace=wrap;" parent="UsoW7yV8ELrUlpd4n50g-20" vertex="1">
          <mxGeometry x="20" y="120" width="1240" height="200" as="geometry" />
        </mxCell>
        <mxCell id="UsoW7yV8ELrUlpd4n50g-39" value="NavBar" style="shape=rect;strokeColor=none;fillColor=#008cff;strokeWidth=1;dashed=0;rounded=1;arcSize=20;fontColor=#ffffff;fontSize=17;spacing=2;spacingTop=-2;align=left;autosize=1;spacingLeft=4;resizeWidth=0;resizeHeight=0;perimeter=none;html=1;whiteSpace=wrap;" parent="UsoW7yV8ELrUlpd4n50g-38" vertex="1">
          <mxGeometry x="5" width="80" height="30" as="geometry" />
        </mxCell>
        <mxCell id="UsoW7yV8ELrUlpd4n50g-40" value="" style="shape=mxgraph.mockup.containers.marginRect;rectMarginTop=10;strokeColor=#666666;strokeWidth=1;dashed=0;rounded=1;arcSize=5;recursiveResize=0;html=1;whiteSpace=wrap;" parent="UsoW7yV8ELrUlpd4n50g-38" vertex="1">
          <mxGeometry x="200" y="35" width="860" height="140" as="geometry" />
        </mxCell>
        <mxCell id="UsoW7yV8ELrUlpd4n50g-41" value="TitleBar" style="shape=rect;strokeColor=none;fillColor=#008cff;strokeWidth=1;dashed=0;rounded=1;arcSize=20;fontColor=#ffffff;fontSize=17;spacing=2;spacingTop=-2;align=left;autosize=1;spacingLeft=4;resizeWidth=0;resizeHeight=0;perimeter=none;html=1;whiteSpace=wrap;" parent="UsoW7yV8ELrUlpd4n50g-40" vertex="1">
          <mxGeometry x="5" width="80" height="30" as="geometry" />
        </mxCell>
        <mxCell id="UsoW7yV8ELrUlpd4n50g-42" value="WebsiteTitle" style="text;strokeColor=none;fillColor=none;html=1;fontSize=40;fontStyle=1;verticalAlign=middle;align=center;labelBorderColor=none;" parent="UsoW7yV8ELrUlpd4n50g-40" vertex="1">
          <mxGeometry x="350" y="45" width="160" height="50" as="geometry" />
        </mxCell>
        <mxCell id="B4IMx2vGt0d6lZp3y3eG-1" value="" style="shape=mxgraph.mockup.containers.marginRect;rectMarginTop=10;strokeColor=#666666;strokeWidth=1;dashed=0;rounded=1;arcSize=5;recursiveResize=0;html=1;whiteSpace=wrap;" parent="UsoW7yV8ELrUlpd4n50g-38" vertex="1">
          <mxGeometry x="30" y="37.5" width="132.86" height="135" as="geometry" />
        </mxCell>
        <mxCell id="B4IMx2vGt0d6lZp3y3eG-2" value="CategoriesPane" style="shape=rect;strokeColor=none;fillColor=#008cff;strokeWidth=1;dashed=0;rounded=1;arcSize=20;fontColor=#ffffff;fontSize=17;spacing=2;spacingTop=-2;align=left;autosize=1;spacingLeft=4;resizeWidth=0;resizeHeight=0;perimeter=none;html=1;whiteSpace=wrap;" parent="B4IMx2vGt0d6lZp3y3eG-1" vertex="1">
          <mxGeometry x="5" width="150" height="30" as="geometry" />
        </mxCell>
        <mxCell id="B4IMx2vGt0d6lZp3y3eG-3" value="" style="shape=image;html=1;verticalAlign=top;verticalLabelPosition=bottom;labelBackgroundColor=#ffffff;imageAspect=0;aspect=fixed;image=https://cdn4.iconfinder.com/data/icons/flat-black/128/menu.png" parent="B4IMx2vGt0d6lZp3y3eG-1" vertex="1">
          <mxGeometry x="11.43" y="20" width="110" height="110" as="geometry" />
        </mxCell>
        <mxCell id="UsoW7yV8ELrUlpd4n50g-43" value="&lt;font style=&quot;font-size: 25px;&quot;&gt;OnClick available&lt;br&gt;if !currentUser&lt;/font&gt;" style="strokeWidth=1;shadow=0;dashed=0;align=center;html=1;shape=mxgraph.mockup.text.callout;linkText=;textSize=17;textColor=#666666;callDir=SW;callStyle=line;fontSize=17;fontColor=#D40C20;align=left;verticalAlign=bottom;strokeColor=#666666;" parent="1" vertex="1">
          <mxGeometry x="1930" y="2270" width="150" height="160" as="geometry" />
        </mxCell>
        <mxCell id="HvcPI_E8XcnlEceZRkLn-152" value="Accessible&lt;br&gt;if currentUser !== &quot;&quot;" style="strokeWidth=1;shadow=0;dashed=0;align=center;html=1;shape=mxgraph.mockup.text.callout;linkText=;textSize=17;textColor=#666666;callDir=NE;callStyle=line;fontSize=25;fontColor=#D40C20;align=right;verticalAlign=top;strokeColor=#666666;" parent="1" vertex="1">
          <mxGeometry x="2570" y="1350" width="350" height="190" as="geometry" />
        </mxCell>
        <mxCell id="B4IMx2vGt0d6lZp3y3eG-4" value="" style="shape=mxgraph.mockup.containers.marginRect;rectMarginTop=10;strokeColor=#666666;strokeWidth=1;dashed=0;rounded=1;arcSize=5;recursiveResize=0;html=1;whiteSpace=wrap;" parent="1" vertex="1">
          <mxGeometry x="3370" y="1630" width="130" height="140" as="geometry" />
        </mxCell>
        <mxCell id="B4IMx2vGt0d6lZp3y3eG-5" value="Avatar" style="shape=rect;strokeColor=none;fillColor=#008cff;strokeWidth=1;dashed=0;rounded=1;arcSize=20;fontColor=#ffffff;fontSize=17;spacing=2;spacingTop=-2;align=left;autosize=1;spacingLeft=4;resizeWidth=0;resizeHeight=0;perimeter=none;html=1;whiteSpace=wrap;" parent="B4IMx2vGt0d6lZp3y3eG-4" vertex="1">
          <mxGeometry x="5" width="70" height="30" as="geometry" />
        </mxCell>
        <mxCell id="B4IMx2vGt0d6lZp3y3eG-6" value="" style="verticalLabelPosition=bottom;shadow=0;dashed=0;align=center;html=1;verticalAlign=top;strokeWidth=1;shape=mxgraph.mockup.containers.userFemale;strokeColor=#666666;strokeColor2=#008cff;" parent="B4IMx2vGt0d6lZp3y3eG-4" vertex="1">
          <mxGeometry x="32.5" y="37.5" width="65" height="65" as="geometry" />
        </mxCell>
        <mxCell id="B4IMx2vGt0d6lZp3y3eG-7" value="Log Out" style="text;strokeColor=none;fillColor=none;html=1;fontSize=20;fontStyle=0;verticalAlign=middle;align=center;" parent="B4IMx2vGt0d6lZp3y3eG-4" vertex="1">
          <mxGeometry x="10" y="110" width="110" height="30" as="geometry" />
        </mxCell>
        <mxCell id="B4IMx2vGt0d6lZp3y3eG-10" value="MUI React Pagination" style="strokeWidth=1;shadow=0;dashed=0;align=center;html=1;shape=mxgraph.mockup.text.callout;linkText=;textSize=17;textColor=#666666;callDir=SE;callStyle=line;fontSize=25;fontColor=#D40C20;align=right;verticalAlign=bottom;strokeColor=#666666;" parent="1" vertex="1">
          <mxGeometry x="1180" y="-400" width="180" height="190" as="geometry" />
        </mxCell>
        <mxCell id="B4IMx2vGt0d6lZp3y3eG-13" value="&lt;font style=&quot;font-size: 25px;&quot;&gt;Pagina&lt;br&gt;tion&lt;/font&gt;" style="ellipse;whiteSpace=wrap;html=1;aspect=fixed;fontSize=30;" parent="1" vertex="1">
          <mxGeometry x="4341.5" y="-1140" width="90" height="90" as="geometry" />
        </mxCell>
        <mxCell id="B4IMx2vGt0d6lZp3y3eG-14" value="&lt;span style=&quot;font-size: 30px;&quot;&gt;Paginator&lt;/span&gt;" style="rounded=1;whiteSpace=wrap;html=1;fontSize=20;verticalAlign=top;" parent="1" vertex="1">
          <mxGeometry x="3395" y="-1520" width="170" height="190" as="geometry" />
        </mxCell>
        <mxCell id="B4IMx2vGt0d6lZp3y3eG-15" value="&lt;font style=&quot;font-size: 25px;&quot;&gt;Pagina&lt;br&gt;tion&lt;/font&gt;" style="ellipse;whiteSpace=wrap;html=1;aspect=fixed;fontSize=30;" parent="1" vertex="1">
          <mxGeometry x="3432.5" y="-1440" width="90" height="90" as="geometry" />
        </mxCell>
        <mxCell id="B4IMx2vGt0d6lZp3y3eG-16" value="query,&lt;br&gt;props for axios.get&lt;br&gt;and Pagination" style="strokeWidth=1;shadow=0;dashed=0;align=center;html=1;shape=mxgraph.mockup.text.callout;linkText=;textSize=17;textColor=#666666;callDir=NE;callStyle=line;fontSize=25;fontColor=#D40C20;align=right;verticalAlign=top;strokeColor=#666666;" parent="1" vertex="1">
          <mxGeometry x="770" y="-2430" width="130" height="280" as="geometry" />
        </mxCell>
        <mxCell id="B4IMx2vGt0d6lZp3y3eG-17" value="" style="strokeWidth=1;shadow=0;dashed=0;align=center;html=1;shape=mxgraph.mockup.containers.browserWindow;rSize=0;strokeColor=#666666;strokeColor2=#008cff;strokeColor3=#c4c4c4;mainText=,;recursiveResize=0;fontSize=30;fontStyle=4" parent="1" vertex="1">
          <mxGeometry x="2050" y="-110" width="430" height="1400" as="geometry" />
        </mxCell>
        <mxCell id="B4IMx2vGt0d6lZp3y3eG-18" value="News Daily" style="strokeWidth=1;shadow=0;dashed=0;align=center;html=1;shape=mxgraph.mockup.containers.anchor;fontSize=17;fontColor=#666666;align=left;whiteSpace=wrap;" parent="B4IMx2vGt0d6lZp3y3eG-17" vertex="1">
          <mxGeometry x="60" y="12" width="110" height="26" as="geometry" />
        </mxCell>
        <mxCell id="B4IMx2vGt0d6lZp3y3eG-19" value="127.0.0.1:5173/articles/:category?page=1" style="strokeWidth=1;shadow=0;dashed=0;align=center;html=1;shape=mxgraph.mockup.containers.anchor;rSize=0;fontSize=17;fontColor=#666666;align=left;" parent="B4IMx2vGt0d6lZp3y3eG-17" vertex="1">
          <mxGeometry x="130" y="60" width="250" height="26" as="geometry" />
        </mxCell>
        <mxCell id="B4IMx2vGt0d6lZp3y3eG-20" value="" style="shape=mxgraph.mockup.containers.marginRect;rectMarginTop=10;strokeColor=#666666;strokeWidth=1;dashed=0;rounded=1;arcSize=5;recursiveResize=0;html=1;whiteSpace=wrap;" parent="B4IMx2vGt0d6lZp3y3eG-17" vertex="1">
          <mxGeometry x="30" y="130" width="370" height="370" as="geometry" />
        </mxCell>
        <mxCell id="B4IMx2vGt0d6lZp3y3eG-21" value="NavBar" style="shape=rect;strokeColor=none;fillColor=#008cff;strokeWidth=1;dashed=0;rounded=1;arcSize=20;fontColor=#ffffff;fontSize=17;spacing=2;spacingTop=-2;align=left;autosize=1;spacingLeft=4;resizeWidth=0;resizeHeight=0;perimeter=none;html=1;whiteSpace=wrap;" parent="B4IMx2vGt0d6lZp3y3eG-20" vertex="1">
          <mxGeometry x="5" width="80" height="30" as="geometry" />
        </mxCell>
        <mxCell id="B4IMx2vGt0d6lZp3y3eG-22" value="" style="shape=mxgraph.mockup.containers.marginRect;rectMarginTop=10;strokeColor=#666666;strokeWidth=1;dashed=0;rounded=1;arcSize=5;recursiveResize=0;html=1;whiteSpace=wrap;" parent="B4IMx2vGt0d6lZp3y3eG-20" vertex="1">
          <mxGeometry x="30" y="35" width="132.86" height="135" as="geometry" />
        </mxCell>
        <mxCell id="B4IMx2vGt0d6lZp3y3eG-23" value="CategoriesPane" style="shape=rect;strokeColor=none;fillColor=#008cff;strokeWidth=1;dashed=0;rounded=1;arcSize=20;fontColor=#ffffff;fontSize=17;spacing=2;spacingTop=-2;align=left;autosize=1;spacingLeft=4;resizeWidth=0;resizeHeight=0;perimeter=none;html=1;whiteSpace=wrap;" parent="B4IMx2vGt0d6lZp3y3eG-22" vertex="1">
          <mxGeometry x="5" width="150" height="30" as="geometry" />
        </mxCell>
        <mxCell id="B4IMx2vGt0d6lZp3y3eG-24" value="" style="shape=image;html=1;verticalAlign=top;verticalLabelPosition=bottom;labelBackgroundColor=#ffffff;imageAspect=0;aspect=fixed;image=https://cdn4.iconfinder.com/data/icons/flat-black/128/menu.png" parent="B4IMx2vGt0d6lZp3y3eG-22" vertex="1">
          <mxGeometry x="11.43" y="20" width="110" height="110" as="geometry" />
        </mxCell>
        <mxCell id="B4IMx2vGt0d6lZp3y3eG-25" value="" style="shape=mxgraph.mockup.containers.marginRect;rectMarginTop=10;strokeColor=#666666;strokeWidth=1;dashed=0;rounded=1;arcSize=5;recursiveResize=0;html=1;whiteSpace=wrap;" parent="B4IMx2vGt0d6lZp3y3eG-20" vertex="1">
          <mxGeometry x="30" y="200" width="310" height="140" as="geometry" />
        </mxCell>
        <mxCell id="B4IMx2vGt0d6lZp3y3eG-26" value="TitleBar" style="shape=rect;strokeColor=none;fillColor=#008cff;strokeWidth=1;dashed=0;rounded=1;arcSize=20;fontColor=#ffffff;fontSize=17;spacing=2;spacingTop=-2;align=left;autosize=1;spacingLeft=4;resizeWidth=0;resizeHeight=0;perimeter=none;html=1;whiteSpace=wrap;" parent="B4IMx2vGt0d6lZp3y3eG-25" vertex="1">
          <mxGeometry x="5" width="80" height="30" as="geometry" />
        </mxCell>
        <mxCell id="B4IMx2vGt0d6lZp3y3eG-27" value="WebsiteTitle" style="text;strokeColor=none;fillColor=none;html=1;fontSize=40;fontStyle=5;verticalAlign=middle;align=center;" parent="B4IMx2vGt0d6lZp3y3eG-25" vertex="1">
          <mxGeometry x="85" y="45" width="160" height="50" as="geometry" />
        </mxCell>
        <mxCell id="B4IMx2vGt0d6lZp3y3eG-28" value="" style="shape=mxgraph.mockup.containers.marginRect;rectMarginTop=10;strokeColor=#666666;strokeWidth=1;dashed=0;rounded=1;arcSize=5;recursiveResize=0;html=1;whiteSpace=wrap;" parent="B4IMx2vGt0d6lZp3y3eG-20" vertex="1">
          <mxGeometry x="210" y="35" width="130" height="140" as="geometry" />
        </mxCell>
        <mxCell id="B4IMx2vGt0d6lZp3y3eG-29" value="Avatar" style="shape=rect;strokeColor=none;fillColor=#008cff;strokeWidth=1;dashed=0;rounded=1;arcSize=20;fontColor=#ffffff;fontSize=17;spacing=2;spacingTop=-2;align=left;autosize=1;spacingLeft=4;resizeWidth=0;resizeHeight=0;perimeter=none;html=1;whiteSpace=wrap;" parent="B4IMx2vGt0d6lZp3y3eG-28" vertex="1">
          <mxGeometry x="5" width="70" height="30" as="geometry" />
        </mxCell>
        <mxCell id="B4IMx2vGt0d6lZp3y3eG-30" value="" style="verticalLabelPosition=bottom;shadow=0;dashed=0;align=center;html=1;verticalAlign=top;strokeWidth=1;shape=mxgraph.mockup.containers.userFemale;strokeColor=#666666;strokeColor2=#008cff;" parent="B4IMx2vGt0d6lZp3y3eG-28" vertex="1">
          <mxGeometry x="27.5" y="30" width="75" height="65" as="geometry" />
        </mxCell>
        <mxCell id="B4IMx2vGt0d6lZp3y3eG-31" value="Log Out" style="text;strokeColor=none;fillColor=none;html=1;fontSize=20;fontStyle=0;verticalAlign=middle;align=center;" parent="B4IMx2vGt0d6lZp3y3eG-28" vertex="1">
          <mxGeometry x="5" y="105" width="110" height="30" as="geometry" />
        </mxCell>
        <mxCell id="B4IMx2vGt0d6lZp3y3eG-32" value="" style="shape=mxgraph.mockup.containers.marginRect;rectMarginTop=10;strokeColor=#666666;strokeWidth=1;dashed=0;rounded=1;arcSize=5;recursiveResize=0;html=1;whiteSpace=wrap;" parent="B4IMx2vGt0d6lZp3y3eG-17" vertex="1">
          <mxGeometry x="30" y="530" width="380" height="840" as="geometry" />
        </mxCell>
        <mxCell id="B4IMx2vGt0d6lZp3y3eG-33" value="Paginator" style="shape=rect;strokeColor=none;fillColor=#008cff;strokeWidth=1;dashed=0;rounded=1;arcSize=20;fontColor=#ffffff;fontSize=17;spacing=2;spacingTop=-2;align=left;autosize=1;spacingLeft=4;resizeWidth=0;resizeHeight=0;perimeter=none;html=1;whiteSpace=wrap;" parent="B4IMx2vGt0d6lZp3y3eG-32" vertex="1">
          <mxGeometry x="5" width="100" height="30" as="geometry" />
        </mxCell>
        <mxCell id="B4IMx2vGt0d6lZp3y3eG-34" value="" style="shape=mxgraph.mockup.containers.marginRect;rectMarginTop=10;strokeColor=#666666;strokeWidth=1;dashed=0;rounded=1;arcSize=5;recursiveResize=0;html=1;whiteSpace=wrap;" parent="B4IMx2vGt0d6lZp3y3eG-32" vertex="1">
          <mxGeometry x="25" y="40" width="325" height="350" as="geometry" />
        </mxCell>
        <mxCell id="B4IMx2vGt0d6lZp3y3eG-35" value="ArticleCard" style="shape=rect;strokeColor=none;fillColor=#008cff;strokeWidth=1;dashed=0;rounded=1;arcSize=20;fontColor=#ffffff;fontSize=17;spacing=2;spacingTop=-2;align=left;autosize=1;spacingLeft=4;resizeWidth=0;resizeHeight=0;perimeter=none;html=1;whiteSpace=wrap;" parent="B4IMx2vGt0d6lZp3y3eG-34" vertex="1">
          <mxGeometry x="5" width="110" height="30" as="geometry" />
        </mxCell>
        <mxCell id="B4IMx2vGt0d6lZp3y3eG-36" value="YYYY-MM-DD" style="text;strokeColor=none;fillColor=none;html=1;fontSize=25;fontStyle=0;verticalAlign=middle;align=center;" parent="B4IMx2vGt0d6lZp3y3eG-34" vertex="1">
          <mxGeometry x="82.5" y="185" width="160" height="50" as="geometry" />
        </mxCell>
        <mxCell id="B4IMx2vGt0d6lZp3y3eG-37" value="ArticleTitle" style="text;strokeColor=none;fillColor=none;html=1;fontSize=40;fontStyle=1;verticalAlign=middle;align=center;" parent="B4IMx2vGt0d6lZp3y3eG-34" vertex="1">
          <mxGeometry x="77.5" y="118" width="160" height="50" as="geometry" />
        </mxCell>
        <mxCell id="B4IMx2vGt0d6lZp3y3eG-38" value="by Author" style="text;strokeColor=none;fillColor=none;html=1;fontSize=30;fontStyle=2;verticalAlign=middle;align=center;" parent="B4IMx2vGt0d6lZp3y3eG-34" vertex="1">
          <mxGeometry x="82.5" y="60" width="160" height="50" as="geometry" />
        </mxCell>
        <mxCell id="B4IMx2vGt0d6lZp3y3eG-39" value="" style="shape=mxgraph.mockup.containers.marginRect;rectMarginTop=10;strokeColor=#666666;strokeWidth=1;dashed=0;rounded=1;arcSize=5;recursiveResize=0;html=1;whiteSpace=wrap;" parent="B4IMx2vGt0d6lZp3y3eG-34" vertex="1">
          <mxGeometry x="175" y="250" width="135" height="90" as="geometry" />
        </mxCell>
        <mxCell id="B4IMx2vGt0d6lZp3y3eG-40" value="IconAndCount" style="shape=rect;strokeColor=none;fillColor=#008cff;strokeWidth=1;dashed=0;rounded=1;arcSize=20;fontColor=#ffffff;fontSize=17;spacing=2;spacingTop=-2;align=left;autosize=1;spacingLeft=4;resizeWidth=0;resizeHeight=0;perimeter=none;html=1;whiteSpace=wrap;" parent="B4IMx2vGt0d6lZp3y3eG-39" vertex="1">
          <mxGeometry x="5" width="130" height="30" as="geometry" />
        </mxCell>
        <mxCell id="B4IMx2vGt0d6lZp3y3eG-41" value="" style="shape=image;html=1;verticalAlign=top;verticalLabelPosition=bottom;labelBackgroundColor=#ffffff;imageAspect=0;aspect=fixed;image=https://cdn1.iconfinder.com/data/icons/unicons-line-vol-2/24/comment-alt-lines-128.png" parent="B4IMx2vGt0d6lZp3y3eG-39" vertex="1">
          <mxGeometry y="30" width="60" height="60" as="geometry" />
        </mxCell>
        <mxCell id="B4IMx2vGt0d6lZp3y3eG-42" value="99" style="text;strokeColor=none;fillColor=none;html=1;fontSize=25;fontStyle=0;verticalAlign=middle;align=center;" parent="B4IMx2vGt0d6lZp3y3eG-39" vertex="1">
          <mxGeometry x="60" y="35" width="70" height="50" as="geometry" />
        </mxCell>
        <mxCell id="B4IMx2vGt0d6lZp3y3eG-43" value="" style="shape=mxgraph.mockup.containers.marginRect;rectMarginTop=10;strokeColor=#666666;strokeWidth=1;dashed=0;rounded=1;arcSize=5;recursiveResize=0;html=1;whiteSpace=wrap;" parent="B4IMx2vGt0d6lZp3y3eG-34" vertex="1">
          <mxGeometry x="15" y="250" width="135" height="90" as="geometry" />
        </mxCell>
        <mxCell id="B4IMx2vGt0d6lZp3y3eG-44" value="IconAndCount" style="shape=rect;strokeColor=none;fillColor=#008cff;strokeWidth=1;dashed=0;rounded=1;arcSize=20;fontColor=#ffffff;fontSize=17;spacing=2;spacingTop=-2;align=left;autosize=1;spacingLeft=4;resizeWidth=0;resizeHeight=0;perimeter=none;html=1;whiteSpace=wrap;" parent="B4IMx2vGt0d6lZp3y3eG-43" vertex="1">
          <mxGeometry x="5" width="130" height="30" as="geometry" />
        </mxCell>
        <mxCell id="B4IMx2vGt0d6lZp3y3eG-45" value="" style="shape=mxgraph.signs.healthcare.heart_2;html=1;pointerEvents=1;fillColor=#FF0080;strokeColor=none;verticalLabelPosition=bottom;verticalAlign=top;align=center;sketch=0;fontColor=#ff0000;" parent="B4IMx2vGt0d6lZp3y3eG-43" vertex="1">
          <mxGeometry x="20" y="33" width="40" height="40" as="geometry" />
        </mxCell>
        <mxCell id="B4IMx2vGt0d6lZp3y3eG-46" value="15" style="text;strokeColor=none;fillColor=none;html=1;fontSize=25;fontStyle=0;verticalAlign=middle;align=center;" parent="B4IMx2vGt0d6lZp3y3eG-43" vertex="1">
          <mxGeometry x="50" y="28" width="70" height="50" as="geometry" />
        </mxCell>
        <mxCell id="B4IMx2vGt0d6lZp3y3eG-47" value="" style="shape=mxgraph.mockup.containers.marginRect;rectMarginTop=10;strokeColor=#666666;strokeWidth=1;dashed=0;rounded=1;arcSize=5;recursiveResize=0;html=1;whiteSpace=wrap;" parent="B4IMx2vGt0d6lZp3y3eG-32" vertex="1">
          <mxGeometry x="25" y="430" width="325" height="350" as="geometry" />
        </mxCell>
        <mxCell id="B4IMx2vGt0d6lZp3y3eG-48" value="ArticleCard" style="shape=rect;strokeColor=none;fillColor=#008cff;strokeWidth=1;dashed=0;rounded=1;arcSize=20;fontColor=#ffffff;fontSize=17;spacing=2;spacingTop=-2;align=left;autosize=1;spacingLeft=4;resizeWidth=0;resizeHeight=0;perimeter=none;html=1;whiteSpace=wrap;" parent="B4IMx2vGt0d6lZp3y3eG-47" vertex="1">
          <mxGeometry x="5" width="110" height="30" as="geometry" />
        </mxCell>
        <mxCell id="B4IMx2vGt0d6lZp3y3eG-49" value="YYYY-MM-DD" style="text;strokeColor=none;fillColor=none;html=1;fontSize=25;fontStyle=0;verticalAlign=middle;align=center;" parent="B4IMx2vGt0d6lZp3y3eG-47" vertex="1">
          <mxGeometry x="82.5" y="185" width="160" height="50" as="geometry" />
        </mxCell>
        <mxCell id="B4IMx2vGt0d6lZp3y3eG-50" value="ArticleTitle" style="text;strokeColor=none;fillColor=none;html=1;fontSize=40;fontStyle=1;verticalAlign=middle;align=center;" parent="B4IMx2vGt0d6lZp3y3eG-47" vertex="1">
          <mxGeometry x="77.5" y="118" width="160" height="50" as="geometry" />
        </mxCell>
        <mxCell id="B4IMx2vGt0d6lZp3y3eG-51" value="by Author" style="text;strokeColor=none;fillColor=none;html=1;fontSize=30;fontStyle=2;verticalAlign=middle;align=center;" parent="B4IMx2vGt0d6lZp3y3eG-47" vertex="1">
          <mxGeometry x="82.5" y="60" width="160" height="50" as="geometry" />
        </mxCell>
        <mxCell id="B4IMx2vGt0d6lZp3y3eG-52" value="" style="shape=mxgraph.mockup.containers.marginRect;rectMarginTop=10;strokeColor=#666666;strokeWidth=1;dashed=0;rounded=1;arcSize=5;recursiveResize=0;html=1;whiteSpace=wrap;" parent="B4IMx2vGt0d6lZp3y3eG-47" vertex="1">
          <mxGeometry x="175" y="235" width="135" height="90" as="geometry" />
        </mxCell>
        <mxCell id="B4IMx2vGt0d6lZp3y3eG-53" value="IconAndCount" style="shape=rect;strokeColor=none;fillColor=#008cff;strokeWidth=1;dashed=0;rounded=1;arcSize=20;fontColor=#ffffff;fontSize=17;spacing=2;spacingTop=-2;align=left;autosize=1;spacingLeft=4;resizeWidth=0;resizeHeight=0;perimeter=none;html=1;whiteSpace=wrap;" parent="B4IMx2vGt0d6lZp3y3eG-52" vertex="1">
          <mxGeometry x="5" width="130" height="30" as="geometry" />
        </mxCell>
        <mxCell id="B4IMx2vGt0d6lZp3y3eG-54" value="" style="shape=image;html=1;verticalAlign=top;verticalLabelPosition=bottom;labelBackgroundColor=#ffffff;imageAspect=0;aspect=fixed;image=https://cdn1.iconfinder.com/data/icons/unicons-line-vol-2/24/comment-alt-lines-128.png" parent="B4IMx2vGt0d6lZp3y3eG-52" vertex="1">
          <mxGeometry y="30" width="60" height="60" as="geometry" />
        </mxCell>
        <mxCell id="B4IMx2vGt0d6lZp3y3eG-55" value="99" style="text;strokeColor=none;fillColor=none;html=1;fontSize=25;fontStyle=0;verticalAlign=middle;align=center;" parent="B4IMx2vGt0d6lZp3y3eG-52" vertex="1">
          <mxGeometry x="60" y="35" width="70" height="50" as="geometry" />
        </mxCell>
        <mxCell id="B4IMx2vGt0d6lZp3y3eG-56" value="" style="shape=mxgraph.mockup.containers.marginRect;rectMarginTop=10;strokeColor=#666666;strokeWidth=1;dashed=0;rounded=1;arcSize=5;recursiveResize=0;html=1;whiteSpace=wrap;" parent="B4IMx2vGt0d6lZp3y3eG-47" vertex="1">
          <mxGeometry x="15" y="235" width="135" height="90" as="geometry" />
        </mxCell>
        <mxCell id="B4IMx2vGt0d6lZp3y3eG-57" value="IconAndCount" style="shape=rect;strokeColor=none;fillColor=#008cff;strokeWidth=1;dashed=0;rounded=1;arcSize=20;fontColor=#ffffff;fontSize=17;spacing=2;spacingTop=-2;align=left;autosize=1;spacingLeft=4;resizeWidth=0;resizeHeight=0;perimeter=none;html=1;whiteSpace=wrap;" parent="B4IMx2vGt0d6lZp3y3eG-56" vertex="1">
          <mxGeometry x="5" width="130" height="30" as="geometry" />
        </mxCell>
        <mxCell id="B4IMx2vGt0d6lZp3y3eG-58" value="" style="shape=mxgraph.signs.healthcare.heart_2;html=1;pointerEvents=1;fillColor=#FF0080;strokeColor=none;verticalLabelPosition=bottom;verticalAlign=top;align=center;sketch=0;fontColor=#ff0000;" parent="B4IMx2vGt0d6lZp3y3eG-56" vertex="1">
          <mxGeometry x="20" y="33" width="40" height="40" as="geometry" />
        </mxCell>
        <mxCell id="B4IMx2vGt0d6lZp3y3eG-59" value="15" style="text;strokeColor=none;fillColor=none;html=1;fontSize=25;fontStyle=0;verticalAlign=middle;align=center;" parent="B4IMx2vGt0d6lZp3y3eG-56" vertex="1">
          <mxGeometry x="50" y="28" width="70" height="50" as="geometry" />
        </mxCell>
        <mxCell id="B4IMx2vGt0d6lZp3y3eG-60" value="&lt;&lt; Prev 1 2 3 4 5 6 7 8 9 10 Next &gt;&gt;" style="strokeWidth=1;shadow=0;dashed=0;align=center;html=1;shape=mxgraph.mockup.navigation.pagination;linkText=;fontSize=17;fontColor=#0000ff;fontStyle=4;" parent="B4IMx2vGt0d6lZp3y3eG-32" vertex="1">
          <mxGeometry x="12.5" y="790" width="350" height="30" as="geometry" />
        </mxCell>
        <mxCell id="B4IMx2vGt0d6lZp3y3eG-61" value="" style="strokeWidth=1;shadow=0;dashed=0;align=center;html=1;shape=mxgraph.mockup.containers.browserWindow;rSize=0;strokeColor=#666666;strokeColor2=#008cff;strokeColor3=#c4c4c4;mainText=,;recursiveResize=0;fontSize=30;" parent="1" vertex="1">
          <mxGeometry x="2520" y="-110" width="1300" height="1280" as="geometry" />
        </mxCell>
        <mxCell id="B4IMx2vGt0d6lZp3y3eG-62" value="News Daily" style="strokeWidth=1;shadow=0;dashed=0;align=center;html=1;shape=mxgraph.mockup.containers.anchor;fontSize=17;fontColor=#666666;align=left;whiteSpace=wrap;" parent="B4IMx2vGt0d6lZp3y3eG-61" vertex="1">
          <mxGeometry x="60" y="12" width="110" height="26" as="geometry" />
        </mxCell>
        <mxCell id="B4IMx2vGt0d6lZp3y3eG-63" value="127.0.0.1:5173/articles/:category?page=1" style="strokeWidth=1;shadow=0;dashed=0;align=center;html=1;shape=mxgraph.mockup.containers.anchor;rSize=0;fontSize=17;fontColor=#666666;align=left;" parent="B4IMx2vGt0d6lZp3y3eG-61" vertex="1">
          <mxGeometry x="130" y="60" width="820" height="26" as="geometry" />
        </mxCell>
        <mxCell id="B4IMx2vGt0d6lZp3y3eG-64" value="" style="shape=mxgraph.mockup.containers.marginRect;rectMarginTop=10;strokeColor=#666666;strokeWidth=1;dashed=0;rounded=1;arcSize=5;recursiveResize=0;html=1;whiteSpace=wrap;" parent="B4IMx2vGt0d6lZp3y3eG-61" vertex="1">
          <mxGeometry x="20" y="330" width="1240" height="920" as="geometry" />
        </mxCell>
        <mxCell id="B4IMx2vGt0d6lZp3y3eG-65" value="Paginator" style="shape=rect;strokeColor=none;fillColor=#008cff;strokeWidth=1;dashed=0;rounded=1;arcSize=20;fontColor=#ffffff;fontSize=17;spacing=2;spacingTop=-2;align=left;autosize=1;spacingLeft=4;resizeWidth=0;resizeHeight=0;perimeter=none;html=1;whiteSpace=wrap;" parent="B4IMx2vGt0d6lZp3y3eG-64" vertex="1">
          <mxGeometry x="5" width="100" height="30" as="geometry" />
        </mxCell>
        <mxCell id="B4IMx2vGt0d6lZp3y3eG-66" value="" style="shape=mxgraph.mockup.containers.marginRect;rectMarginTop=10;strokeColor=#666666;strokeWidth=1;dashed=0;rounded=1;arcSize=5;recursiveResize=0;html=1;whiteSpace=wrap;" parent="B4IMx2vGt0d6lZp3y3eG-64" vertex="1">
          <mxGeometry x="35" y="50" width="1170" height="240" as="geometry" />
        </mxCell>
        <mxCell id="B4IMx2vGt0d6lZp3y3eG-67" value="ArticleCard" style="shape=rect;strokeColor=none;fillColor=#008cff;strokeWidth=1;dashed=0;rounded=1;arcSize=20;fontColor=#ffffff;fontSize=17;spacing=2;spacingTop=-2;align=left;autosize=1;spacingLeft=4;resizeWidth=0;resizeHeight=0;perimeter=none;html=1;whiteSpace=wrap;" parent="B4IMx2vGt0d6lZp3y3eG-66" vertex="1">
          <mxGeometry x="5" width="110" height="30" as="geometry" />
        </mxCell>
        <mxCell id="B4IMx2vGt0d6lZp3y3eG-68" value="YYYY-MM-DD" style="text;strokeColor=none;fillColor=none;html=1;fontSize=25;fontStyle=0;verticalAlign=middle;align=center;" parent="B4IMx2vGt0d6lZp3y3eG-66" vertex="1">
          <mxGeometry x="20" y="170" width="160" height="50" as="geometry" />
        </mxCell>
        <mxCell id="B4IMx2vGt0d6lZp3y3eG-69" value="ArticleTitle" style="text;strokeColor=none;fillColor=none;html=1;fontSize=40;fontStyle=1;verticalAlign=middle;align=center;" parent="B4IMx2vGt0d6lZp3y3eG-66" vertex="1">
          <mxGeometry x="400" y="94.5" width="160" height="50" as="geometry" />
        </mxCell>
        <mxCell id="B4IMx2vGt0d6lZp3y3eG-70" value="by Author" style="text;strokeColor=none;fillColor=none;html=1;fontSize=30;fontStyle=2;verticalAlign=middle;align=center;" parent="B4IMx2vGt0d6lZp3y3eG-66" vertex="1">
          <mxGeometry x="940" y="15" width="160" height="50" as="geometry" />
        </mxCell>
        <mxCell id="B4IMx2vGt0d6lZp3y3eG-71" value="" style="shape=mxgraph.mockup.containers.marginRect;rectMarginTop=10;strokeColor=#666666;strokeWidth=1;dashed=0;rounded=1;arcSize=5;recursiveResize=0;html=1;whiteSpace=wrap;" parent="B4IMx2vGt0d6lZp3y3eG-66" vertex="1">
          <mxGeometry x="995" y="130" width="135" height="90" as="geometry" />
        </mxCell>
        <mxCell id="B4IMx2vGt0d6lZp3y3eG-72" value="IconAndCount" style="shape=rect;strokeColor=none;fillColor=#008cff;strokeWidth=1;dashed=0;rounded=1;arcSize=20;fontColor=#ffffff;fontSize=17;spacing=2;spacingTop=-2;align=left;autosize=1;spacingLeft=4;resizeWidth=0;resizeHeight=0;perimeter=none;html=1;whiteSpace=wrap;" parent="B4IMx2vGt0d6lZp3y3eG-71" vertex="1">
          <mxGeometry x="5" width="130" height="30" as="geometry" />
        </mxCell>
        <mxCell id="B4IMx2vGt0d6lZp3y3eG-73" value="" style="shape=image;html=1;verticalAlign=top;verticalLabelPosition=bottom;labelBackgroundColor=#ffffff;imageAspect=0;aspect=fixed;image=https://cdn1.iconfinder.com/data/icons/unicons-line-vol-2/24/comment-alt-lines-128.png" parent="B4IMx2vGt0d6lZp3y3eG-71" vertex="1">
          <mxGeometry y="30" width="60" height="60" as="geometry" />
        </mxCell>
        <mxCell id="B4IMx2vGt0d6lZp3y3eG-74" value="99" style="text;strokeColor=none;fillColor=none;html=1;fontSize=25;fontStyle=0;verticalAlign=middle;align=center;" parent="B4IMx2vGt0d6lZp3y3eG-71" vertex="1">
          <mxGeometry x="60" y="35" width="70" height="50" as="geometry" />
        </mxCell>
        <mxCell id="B4IMx2vGt0d6lZp3y3eG-75" value="" style="shape=mxgraph.mockup.containers.marginRect;rectMarginTop=10;strokeColor=#666666;strokeWidth=1;dashed=0;rounded=1;arcSize=5;recursiveResize=0;html=1;whiteSpace=wrap;" parent="B4IMx2vGt0d6lZp3y3eG-66" vertex="1">
          <mxGeometry x="835" y="130" width="135" height="90" as="geometry" />
        </mxCell>
        <mxCell id="B4IMx2vGt0d6lZp3y3eG-76" value="IconAndCount" style="shape=rect;strokeColor=none;fillColor=#008cff;strokeWidth=1;dashed=0;rounded=1;arcSize=20;fontColor=#ffffff;fontSize=17;spacing=2;spacingTop=-2;align=left;autosize=1;spacingLeft=4;resizeWidth=0;resizeHeight=0;perimeter=none;html=1;whiteSpace=wrap;" parent="B4IMx2vGt0d6lZp3y3eG-75" vertex="1">
          <mxGeometry x="5" width="130" height="30" as="geometry" />
        </mxCell>
        <mxCell id="B4IMx2vGt0d6lZp3y3eG-77" value="" style="shape=mxgraph.signs.healthcare.heart_2;html=1;pointerEvents=1;fillColor=#FF0080;strokeColor=none;verticalLabelPosition=bottom;verticalAlign=top;align=center;sketch=0;fontColor=#ff0000;" parent="B4IMx2vGt0d6lZp3y3eG-75" vertex="1">
          <mxGeometry x="20" y="33" width="40" height="40" as="geometry" />
        </mxCell>
        <mxCell id="B4IMx2vGt0d6lZp3y3eG-78" value="15" style="text;strokeColor=none;fillColor=none;html=1;fontSize=25;fontStyle=0;verticalAlign=middle;align=center;" parent="B4IMx2vGt0d6lZp3y3eG-75" vertex="1">
          <mxGeometry x="50" y="28" width="70" height="50" as="geometry" />
        </mxCell>
        <mxCell id="B4IMx2vGt0d6lZp3y3eG-79" value="" style="shape=mxgraph.mockup.containers.marginRect;rectMarginTop=10;strokeColor=#666666;strokeWidth=1;dashed=0;rounded=1;arcSize=5;recursiveResize=0;html=1;whiteSpace=wrap;" parent="B4IMx2vGt0d6lZp3y3eG-64" vertex="1">
          <mxGeometry x="30" y="320" width="1170" height="240" as="geometry" />
        </mxCell>
        <mxCell id="B4IMx2vGt0d6lZp3y3eG-80" value="ArticleCard" style="shape=rect;strokeColor=none;fillColor=#008cff;strokeWidth=1;dashed=0;rounded=1;arcSize=20;fontColor=#ffffff;fontSize=17;spacing=2;spacingTop=-2;align=left;autosize=1;spacingLeft=4;resizeWidth=0;resizeHeight=0;perimeter=none;html=1;whiteSpace=wrap;" parent="B4IMx2vGt0d6lZp3y3eG-79" vertex="1">
          <mxGeometry x="5" width="110" height="30" as="geometry" />
        </mxCell>
        <mxCell id="B4IMx2vGt0d6lZp3y3eG-81" value="YYYY-MM-DD" style="text;strokeColor=none;fillColor=none;html=1;fontSize=25;fontStyle=0;verticalAlign=middle;align=center;" parent="B4IMx2vGt0d6lZp3y3eG-79" vertex="1">
          <mxGeometry x="20" y="170" width="160" height="50" as="geometry" />
        </mxCell>
        <mxCell id="B4IMx2vGt0d6lZp3y3eG-82" value="ArticleTitle" style="text;strokeColor=none;fillColor=none;html=1;fontSize=40;fontStyle=1;verticalAlign=middle;align=center;" parent="B4IMx2vGt0d6lZp3y3eG-79" vertex="1">
          <mxGeometry x="400" y="94.5" width="160" height="50" as="geometry" />
        </mxCell>
        <mxCell id="B4IMx2vGt0d6lZp3y3eG-83" value="by Author" style="text;strokeColor=none;fillColor=none;html=1;fontSize=30;fontStyle=2;verticalAlign=middle;align=center;" parent="B4IMx2vGt0d6lZp3y3eG-79" vertex="1">
          <mxGeometry x="940" y="15" width="160" height="50" as="geometry" />
        </mxCell>
        <mxCell id="B4IMx2vGt0d6lZp3y3eG-84" value="" style="shape=mxgraph.mockup.containers.marginRect;rectMarginTop=10;strokeColor=#666666;strokeWidth=1;dashed=0;rounded=1;arcSize=5;recursiveResize=0;html=1;whiteSpace=wrap;" parent="B4IMx2vGt0d6lZp3y3eG-79" vertex="1">
          <mxGeometry x="1010" y="132" width="135" height="90" as="geometry" />
        </mxCell>
        <mxCell id="B4IMx2vGt0d6lZp3y3eG-85" value="IconAndCount" style="shape=rect;strokeColor=none;fillColor=#008cff;strokeWidth=1;dashed=0;rounded=1;arcSize=20;fontColor=#ffffff;fontSize=17;spacing=2;spacingTop=-2;align=left;autosize=1;spacingLeft=4;resizeWidth=0;resizeHeight=0;perimeter=none;html=1;whiteSpace=wrap;" parent="B4IMx2vGt0d6lZp3y3eG-84" vertex="1">
          <mxGeometry x="5" width="130" height="30" as="geometry" />
        </mxCell>
        <mxCell id="B4IMx2vGt0d6lZp3y3eG-86" value="" style="shape=image;html=1;verticalAlign=top;verticalLabelPosition=bottom;labelBackgroundColor=#ffffff;imageAspect=0;aspect=fixed;image=https://cdn1.iconfinder.com/data/icons/unicons-line-vol-2/24/comment-alt-lines-128.png" parent="B4IMx2vGt0d6lZp3y3eG-84" vertex="1">
          <mxGeometry y="30" width="60" height="60" as="geometry" />
        </mxCell>
        <mxCell id="B4IMx2vGt0d6lZp3y3eG-87" value="99" style="text;strokeColor=none;fillColor=none;html=1;fontSize=25;fontStyle=0;verticalAlign=middle;align=center;" parent="B4IMx2vGt0d6lZp3y3eG-84" vertex="1">
          <mxGeometry x="60" y="35" width="70" height="50" as="geometry" />
        </mxCell>
        <mxCell id="B4IMx2vGt0d6lZp3y3eG-88" value="" style="shape=mxgraph.mockup.containers.marginRect;rectMarginTop=10;strokeColor=#666666;strokeWidth=1;dashed=0;rounded=1;arcSize=5;recursiveResize=0;html=1;whiteSpace=wrap;" parent="B4IMx2vGt0d6lZp3y3eG-79" vertex="1">
          <mxGeometry x="850" y="132" width="135" height="90" as="geometry" />
        </mxCell>
        <mxCell id="B4IMx2vGt0d6lZp3y3eG-89" value="IconAndCount" style="shape=rect;strokeColor=none;fillColor=#008cff;strokeWidth=1;dashed=0;rounded=1;arcSize=20;fontColor=#ffffff;fontSize=17;spacing=2;spacingTop=-2;align=left;autosize=1;spacingLeft=4;resizeWidth=0;resizeHeight=0;perimeter=none;html=1;whiteSpace=wrap;" parent="B4IMx2vGt0d6lZp3y3eG-88" vertex="1">
          <mxGeometry x="5" width="130" height="30" as="geometry" />
        </mxCell>
        <mxCell id="B4IMx2vGt0d6lZp3y3eG-90" value="" style="shape=mxgraph.signs.healthcare.heart_2;html=1;pointerEvents=1;fillColor=#FF0080;strokeColor=none;verticalLabelPosition=bottom;verticalAlign=top;align=center;sketch=0;fontColor=#ff0000;" parent="B4IMx2vGt0d6lZp3y3eG-88" vertex="1">
          <mxGeometry x="20" y="33" width="40" height="40" as="geometry" />
        </mxCell>
        <mxCell id="B4IMx2vGt0d6lZp3y3eG-91" value="15" style="text;strokeColor=none;fillColor=none;html=1;fontSize=25;fontStyle=0;verticalAlign=middle;align=center;" parent="B4IMx2vGt0d6lZp3y3eG-88" vertex="1">
          <mxGeometry x="50" y="28" width="70" height="50" as="geometry" />
        </mxCell>
        <mxCell id="B4IMx2vGt0d6lZp3y3eG-92" value="" style="shape=mxgraph.mockup.containers.marginRect;rectMarginTop=10;strokeColor=#666666;strokeWidth=1;dashed=0;rounded=1;arcSize=5;recursiveResize=0;html=1;whiteSpace=wrap;" parent="B4IMx2vGt0d6lZp3y3eG-64" vertex="1">
          <mxGeometry x="35" y="590" width="1170" height="240" as="geometry" />
        </mxCell>
        <mxCell id="B4IMx2vGt0d6lZp3y3eG-93" value="ArticleCard" style="shape=rect;strokeColor=none;fillColor=#008cff;strokeWidth=1;dashed=0;rounded=1;arcSize=20;fontColor=#ffffff;fontSize=17;spacing=2;spacingTop=-2;align=left;autosize=1;spacingLeft=4;resizeWidth=0;resizeHeight=0;perimeter=none;html=1;whiteSpace=wrap;" parent="B4IMx2vGt0d6lZp3y3eG-92" vertex="1">
          <mxGeometry x="5" width="110" height="30" as="geometry" />
        </mxCell>
        <mxCell id="B4IMx2vGt0d6lZp3y3eG-94" value="YYYY-MM-DD" style="text;strokeColor=none;fillColor=none;html=1;fontSize=25;fontStyle=0;verticalAlign=middle;align=center;" parent="B4IMx2vGt0d6lZp3y3eG-92" vertex="1">
          <mxGeometry x="20" y="170" width="160" height="50" as="geometry" />
        </mxCell>
        <mxCell id="B4IMx2vGt0d6lZp3y3eG-95" value="ArticleTitle" style="text;strokeColor=none;fillColor=none;html=1;fontSize=40;fontStyle=1;verticalAlign=middle;align=center;" parent="B4IMx2vGt0d6lZp3y3eG-92" vertex="1">
          <mxGeometry x="400" y="94.5" width="160" height="50" as="geometry" />
        </mxCell>
        <mxCell id="B4IMx2vGt0d6lZp3y3eG-96" value="" style="shape=mxgraph.mockup.containers.marginRect;rectMarginTop=10;strokeColor=#666666;strokeWidth=1;dashed=0;rounded=1;arcSize=5;recursiveResize=0;html=1;whiteSpace=wrap;" parent="B4IMx2vGt0d6lZp3y3eG-92" vertex="1">
          <mxGeometry x="1015" y="140" width="135" height="90" as="geometry" />
        </mxCell>
        <mxCell id="B4IMx2vGt0d6lZp3y3eG-97" value="IconAndCount" style="shape=rect;strokeColor=none;fillColor=#008cff;strokeWidth=1;dashed=0;rounded=1;arcSize=20;fontColor=#ffffff;fontSize=17;spacing=2;spacingTop=-2;align=left;autosize=1;spacingLeft=4;resizeWidth=0;resizeHeight=0;perimeter=none;html=1;whiteSpace=wrap;" parent="B4IMx2vGt0d6lZp3y3eG-96" vertex="1">
          <mxGeometry x="5" width="130" height="30" as="geometry" />
        </mxCell>
        <mxCell id="B4IMx2vGt0d6lZp3y3eG-98" value="" style="shape=image;html=1;verticalAlign=top;verticalLabelPosition=bottom;labelBackgroundColor=#ffffff;imageAspect=0;aspect=fixed;image=https://cdn1.iconfinder.com/data/icons/unicons-line-vol-2/24/comment-alt-lines-128.png" parent="B4IMx2vGt0d6lZp3y3eG-96" vertex="1">
          <mxGeometry y="30" width="60" height="60" as="geometry" />
        </mxCell>
        <mxCell id="B4IMx2vGt0d6lZp3y3eG-99" value="99" style="text;strokeColor=none;fillColor=none;html=1;fontSize=25;fontStyle=0;verticalAlign=middle;align=center;" parent="B4IMx2vGt0d6lZp3y3eG-96" vertex="1">
          <mxGeometry x="60" y="35" width="70" height="50" as="geometry" />
        </mxCell>
        <mxCell id="B4IMx2vGt0d6lZp3y3eG-100" value="" style="shape=mxgraph.mockup.containers.marginRect;rectMarginTop=10;strokeColor=#666666;strokeWidth=1;dashed=0;rounded=1;arcSize=5;recursiveResize=0;html=1;whiteSpace=wrap;" parent="B4IMx2vGt0d6lZp3y3eG-92" vertex="1">
          <mxGeometry x="855" y="140" width="135" height="90" as="geometry" />
        </mxCell>
        <mxCell id="B4IMx2vGt0d6lZp3y3eG-101" value="IconAndCount" style="shape=rect;strokeColor=none;fillColor=#008cff;strokeWidth=1;dashed=0;rounded=1;arcSize=20;fontColor=#ffffff;fontSize=17;spacing=2;spacingTop=-2;align=left;autosize=1;spacingLeft=4;resizeWidth=0;resizeHeight=0;perimeter=none;html=1;whiteSpace=wrap;" parent="B4IMx2vGt0d6lZp3y3eG-100" vertex="1">
          <mxGeometry x="5" width="130" height="30" as="geometry" />
        </mxCell>
        <mxCell id="B4IMx2vGt0d6lZp3y3eG-102" value="" style="shape=mxgraph.signs.healthcare.heart_2;html=1;pointerEvents=1;fillColor=#FF0080;strokeColor=none;verticalLabelPosition=bottom;verticalAlign=top;align=center;sketch=0;fontColor=#ff0000;" parent="B4IMx2vGt0d6lZp3y3eG-100" vertex="1">
          <mxGeometry x="20" y="33" width="40" height="40" as="geometry" />
        </mxCell>
        <mxCell id="B4IMx2vGt0d6lZp3y3eG-103" value="15" style="text;strokeColor=none;fillColor=none;html=1;fontSize=25;fontStyle=0;verticalAlign=middle;align=center;" parent="B4IMx2vGt0d6lZp3y3eG-100" vertex="1">
          <mxGeometry x="50" y="28" width="70" height="50" as="geometry" />
        </mxCell>
        <mxCell id="B4IMx2vGt0d6lZp3y3eG-104" value="&lt;font style=&quot;font-size: 30px;&quot;&gt;&amp;lt;&amp;lt; Prev 1 2 3 4 5 6 7 8 9 10 Next &amp;gt;&amp;gt;&lt;/font&gt;" style="strokeWidth=1;shadow=0;dashed=0;align=center;html=1;shape=mxgraph.mockup.navigation.pagination;linkText=;fontSize=17;fontColor=#0000ff;fontStyle=4;" parent="B4IMx2vGt0d6lZp3y3eG-64" vertex="1">
          <mxGeometry x="345" y="860" width="540" height="30" as="geometry" />
        </mxCell>
        <mxCell id="B4IMx2vGt0d6lZp3y3eG-105" value="" style="shape=mxgraph.mockup.containers.marginRect;rectMarginTop=10;strokeColor=#666666;strokeWidth=1;dashed=0;rounded=1;arcSize=5;recursiveResize=0;html=1;whiteSpace=wrap;" parent="B4IMx2vGt0d6lZp3y3eG-61" vertex="1">
          <mxGeometry x="20" y="120" width="1240" height="200" as="geometry" />
        </mxCell>
        <mxCell id="B4IMx2vGt0d6lZp3y3eG-106" value="NavBar" style="shape=rect;strokeColor=none;fillColor=#008cff;strokeWidth=1;dashed=0;rounded=1;arcSize=20;fontColor=#ffffff;fontSize=17;spacing=2;spacingTop=-2;align=left;autosize=1;spacingLeft=4;resizeWidth=0;resizeHeight=0;perimeter=none;html=1;whiteSpace=wrap;" parent="B4IMx2vGt0d6lZp3y3eG-105" vertex="1">
          <mxGeometry x="5" width="80" height="30" as="geometry" />
        </mxCell>
        <mxCell id="B4IMx2vGt0d6lZp3y3eG-107" value="" style="shape=mxgraph.mockup.containers.marginRect;rectMarginTop=10;strokeColor=#666666;strokeWidth=1;dashed=0;rounded=1;arcSize=5;recursiveResize=0;html=1;whiteSpace=wrap;" parent="B4IMx2vGt0d6lZp3y3eG-105" vertex="1">
          <mxGeometry x="30" y="35" width="132.86" height="135" as="geometry" />
        </mxCell>
        <mxCell id="B4IMx2vGt0d6lZp3y3eG-108" value="CategoriesPane" style="shape=rect;strokeColor=none;fillColor=#008cff;strokeWidth=1;dashed=0;rounded=1;arcSize=20;fontColor=#ffffff;fontSize=17;spacing=2;spacingTop=-2;align=left;autosize=1;spacingLeft=4;resizeWidth=0;resizeHeight=0;perimeter=none;html=1;whiteSpace=wrap;" parent="B4IMx2vGt0d6lZp3y3eG-107" vertex="1">
          <mxGeometry x="5" width="150" height="30" as="geometry" />
        </mxCell>
        <mxCell id="B4IMx2vGt0d6lZp3y3eG-109" value="" style="shape=image;html=1;verticalAlign=top;verticalLabelPosition=bottom;labelBackgroundColor=#ffffff;imageAspect=0;aspect=fixed;image=https://cdn4.iconfinder.com/data/icons/flat-black/128/menu.png" parent="B4IMx2vGt0d6lZp3y3eG-107" vertex="1">
          <mxGeometry x="11.43" y="20" width="110" height="110" as="geometry" />
        </mxCell>
        <mxCell id="B4IMx2vGt0d6lZp3y3eG-110" value="" style="shape=mxgraph.mockup.containers.marginRect;rectMarginTop=10;strokeColor=#666666;strokeWidth=1;dashed=0;rounded=1;arcSize=5;recursiveResize=0;html=1;whiteSpace=wrap;" parent="B4IMx2vGt0d6lZp3y3eG-105" vertex="1">
          <mxGeometry x="200" y="35" width="860" height="140" as="geometry" />
        </mxCell>
        <mxCell id="B4IMx2vGt0d6lZp3y3eG-111" value="TitleBar" style="shape=rect;strokeColor=none;fillColor=#008cff;strokeWidth=1;dashed=0;rounded=1;arcSize=20;fontColor=#ffffff;fontSize=17;spacing=2;spacingTop=-2;align=left;autosize=1;spacingLeft=4;resizeWidth=0;resizeHeight=0;perimeter=none;html=1;whiteSpace=wrap;" parent="B4IMx2vGt0d6lZp3y3eG-110" vertex="1">
          <mxGeometry x="5" width="80" height="30" as="geometry" />
        </mxCell>
        <mxCell id="B4IMx2vGt0d6lZp3y3eG-112" value="WebsiteTitle" style="text;strokeColor=none;fillColor=none;html=1;fontSize=40;fontStyle=5;verticalAlign=middle;align=center;" parent="B4IMx2vGt0d6lZp3y3eG-110" vertex="1">
          <mxGeometry x="380" y="45" width="160" height="50" as="geometry" />
        </mxCell>
        <mxCell id="B4IMx2vGt0d6lZp3y3eG-113" value="" style="shape=mxgraph.mockup.containers.marginRect;rectMarginTop=10;strokeColor=#666666;strokeWidth=1;dashed=0;rounded=1;arcSize=5;recursiveResize=0;html=1;whiteSpace=wrap;" parent="B4IMx2vGt0d6lZp3y3eG-105" vertex="1">
          <mxGeometry x="1080" y="30" width="130" height="140" as="geometry" />
        </mxCell>
        <mxCell id="B4IMx2vGt0d6lZp3y3eG-114" value="Avatar" style="shape=rect;strokeColor=none;fillColor=#008cff;strokeWidth=1;dashed=0;rounded=1;arcSize=20;fontColor=#ffffff;fontSize=17;spacing=2;spacingTop=-2;align=left;autosize=1;spacingLeft=4;resizeWidth=0;resizeHeight=0;perimeter=none;html=1;whiteSpace=wrap;" parent="B4IMx2vGt0d6lZp3y3eG-113" vertex="1">
          <mxGeometry x="5" width="70" height="30" as="geometry" />
        </mxCell>
        <mxCell id="B4IMx2vGt0d6lZp3y3eG-115" value="" style="verticalLabelPosition=bottom;shadow=0;dashed=0;align=center;html=1;verticalAlign=top;strokeWidth=1;shape=mxgraph.mockup.containers.userFemale;strokeColor=#666666;strokeColor2=#008cff;" parent="B4IMx2vGt0d6lZp3y3eG-113" vertex="1">
          <mxGeometry x="32.5" y="37.5" width="65" height="65" as="geometry" />
        </mxCell>
        <mxCell id="B4IMx2vGt0d6lZp3y3eG-116" value="Log Out" style="text;strokeColor=none;fillColor=none;html=1;fontSize=20;fontStyle=0;verticalAlign=middle;align=center;" parent="B4IMx2vGt0d6lZp3y3eG-113" vertex="1">
          <mxGeometry x="10" y="110" width="110" height="30" as="geometry" />
        </mxCell>
        <mxCell id="B4IMx2vGt0d6lZp3y3eG-118" value="query,&lt;br&gt;props for filtering&lt;br&gt;and Pagination" style="strokeWidth=1;shadow=0;dashed=0;align=center;html=1;shape=mxgraph.mockup.text.callout;linkText=;textSize=17;textColor=#666666;callDir=NE;callStyle=line;fontSize=25;fontColor=#D40C20;align=right;verticalAlign=top;strokeColor=#666666;" parent="1" vertex="1">
          <mxGeometry x="2965" y="-310" width="130" height="280" as="geometry" />
        </mxCell>
        <mxCell id="B4IMx2vGt0d6lZp3y3eG-120" value="Sorting DESC&lt;br&gt;is taken care by&lt;br&gt;backend" style="strokeWidth=1;shadow=0;dashed=0;align=center;html=1;shape=mxgraph.mockup.text.callout;linkText=;textSize=17;textColor=#666666;callDir=SE;callStyle=line;fontSize=25;fontColor=#D40C20;align=right;verticalAlign=bottom;strokeColor=#666666;" parent="1" vertex="1">
          <mxGeometry x="1560" y="-830" width="460" height="40" as="geometry" />
        </mxCell>
        <mxCell id="B4IMx2vGt0d6lZp3y3eG-121" value="Sorting DESC&lt;br&gt;is taken care by&lt;br&gt;backend" style="strokeWidth=1;shadow=0;dashed=0;align=center;html=1;shape=mxgraph.mockup.text.callout;linkText=;textSize=17;textColor=#666666;callDir=SE;callStyle=line;fontSize=25;fontColor=#D40C20;align=right;verticalAlign=bottom;strokeColor=#666666;" parent="1" vertex="1">
          <mxGeometry x="570" y="1040" width="200" height="250" as="geometry" />
        </mxCell>
        <mxCell id="vAro4Mmbef0UHMDtrLqC-1" value="" style="shape=mxgraph.mockup.containers.marginRect;rectMarginTop=10;strokeColor=#666666;strokeWidth=1;dashed=0;rounded=1;arcSize=5;recursiveResize=0;html=1;whiteSpace=wrap;" vertex="1" parent="1">
          <mxGeometry x="-597" y="-1125" width="150" height="200" as="geometry" />
        </mxCell>
        <mxCell id="vAro4Mmbef0UHMDtrLqC-2" value="Comments" style="shape=rect;strokeColor=none;fillColor=#008cff;strokeWidth=1;dashed=0;rounded=1;arcSize=20;fontColor=#ffffff;fontSize=17;spacing=2;spacingTop=-2;align=left;autosize=1;spacingLeft=4;resizeWidth=0;resizeHeight=0;perimeter=none;html=1;whiteSpace=wrap;" vertex="1" parent="vAro4Mmbef0UHMDtrLqC-1">
          <mxGeometry x="5" width="110" height="30" as="geometry" />
        </mxCell>
        <mxCell id="vAro4Mmbef0UHMDtrLqC-3" value="&lt;font color=&quot;#00ba00&quot;&gt;items = articles&lt;/font&gt;" style="text;strokeColor=none;fillColor=none;html=1;fontSize=30;fontStyle=1;verticalAlign=middle;align=center;fontColor=#007A00;" vertex="1" parent="1">
          <mxGeometry x="3405" y="-1490" width="160" height="50" as="geometry" />
        </mxCell>
        <mxCell id="vAro4Mmbef0UHMDtrLqC-4" value="&lt;font color=&quot;#00ba00&quot;&gt;items = comments&lt;/font&gt;" style="text;strokeColor=none;fillColor=none;html=1;fontSize=30;fontStyle=1;verticalAlign=middle;align=center;fontColor=#007A00;" vertex="1" parent="1">
          <mxGeometry x="4305" y="-1200" width="160" height="50" as="geometry" />
        </mxCell>
      </root>
    </mxGraphModel>
  </diagram>
</mxfile>
